<svg xmlns="http://www.w3.org/2000/svg" xmlns:xlink="http://www.w3.org/1999/xlink" width="45.828" height="45.829" viewBox="0 0 45.828 45.829">
  <defs>
    <clipPath id="clip-path">
      <rect id="Rectangle_56" data-name="Rectangle 56" width="45.828" height="45.829" fill="#55738a"/>
    </clipPath>
  </defs>
  <g id="Group_74" data-name="Group 74" transform="translate(0 -2)">
    <g id="Group_73" data-name="Group 73" transform="translate(0 2)" clip-path="url(#clip-path)">
      <path id="Path_70" data-name="Path 70" d="M22.914,0a.975.975,0,0,0-.975.975V9.751a.975.975,0,0,0,1.95,0V.975A.975.975,0,0,0,22.914,0M7.4,6.429A.975.975,0,0,0,6.719,8.09l6.2,6.2a.97.97,0,1,0,1.371-1.371l-6.2-6.2a.967.967,0,0,0-.686-.29Zm31.019,0a.968.968,0,0,0-.686.29l-6.2,6.2a.97.97,0,1,0,1.371,1.371l6.2-6.2a.975.975,0,0,0-.686-1.661Zm-15.51,9.66a6.826,6.826,0,1,0,6.826,6.826,6.84,6.84,0,0,0-6.826-6.826m0,1.95a4.875,4.875,0,1,1-4.875,4.875,4.861,4.861,0,0,1,4.875-4.875M.975,21.939a.975.975,0,1,0,0,1.95H9.751a.975.975,0,0,0,0-1.95Zm35.1,0a.975.975,0,1,0,0,1.95h8.776a.975.975,0,1,0,0-1.95ZM13.6,31.248a.967.967,0,0,0-.686.29l-6.2,6.2A.97.97,0,0,0,8.089,39.11l6.2-6.2a.975.975,0,0,0-.686-1.661Zm18.618,0a.975.975,0,0,0-.686,1.661l6.2,6.2a.97.97,0,0,0,1.371-1.371l-6.2-6.2a.968.968,0,0,0-.686-.29ZM22.914,35.1a.975.975,0,0,0-.975.975v8.776a.975.975,0,1,0,1.95,0V36.078a.975.975,0,0,0-.975-.975" fill="#55738a"/>
    </g>
  </g>
</svg>