<?xml version="1.0" encoding="utf-8"?>
<!-- Generator: Adobe Illustrator 27.3.1, SVG Export Plug-In . SVG Version: 6.00 Build 0)  -->
<svg version="1.1" id="Layer_1" xmlns="http://www.w3.org/2000/svg" xmlns:xlink="http://www.w3.org/1999/xlink" x="0px" y="0px"
	 viewBox="0 0 45.8 45.8" style="enable-background:new 0 0 45.8 45.8;" xml:space="preserve">
<style type="text/css">
	.st0{fill:#55738A;}
</style>
<g>
	<path class="st0" d="M26.7,39.6c-3.6,0-7.2,0-10.7,0c-0.8,0-1.6,0.1-2.3-0.1c-2.7-0.5-5-2.5-5.6-5.4c-0.7-3.7,1.8-7.4,5.8-8
		c0.8-0.1,1.7-0.2,2.5,0.1c0.1,0,0.1,0,0.1-0.1c0-0.2-0.1-2.6,2-4.6c2.3-2.2,6.2-1.2,6.6-1.1c0.2,0.1,0.3-0.1,0.4-0.2
		c1.2-1.2,2.8-1.9,4.5-2.2c1.8-0.3,3.6-0.1,5.3,0.7c2.8,1.3,4.6,3.4,5.7,6.2c0.2,0.7,0.3,1.4,0.5,2c0,0.1,0.1,0.2,0.2,0.3
		c1.7,1,2.7,2.4,3.1,4.3c0.7,3.2-1.1,6.5-4.2,7.6c-0.7,0.3-1.5,0.4-2.2,0.4C34.7,39.7,30.7,39.7,26.7,39.6
		C26.7,39.7,26.7,39.7,26.7,39.6z M26.8,38.5c3.8,0,7.6,0,11.4,0c0.5,0,0.9,0,1.4-0.1c3.3-0.6,5.2-4.1,4-7.2c-0.5-1.3-1.4-2.4-2.7-3
		c-0.3-0.1-0.4-0.3-0.4-0.6c0-0.4-0.1-0.8-0.2-1.2c-0.7-2.8-2.2-4.8-4.7-6.2c-1.5-0.9-3.1-1.2-4.8-1c-0.8,0.1-2.1,0.4-3.1,0.9
		c-1.3,0.7-2.1,1.7-2.2,1.7c-2.2-0.6-4.7-0.7-6.2,0.7c-1.7,1.6-1.4,3-1.7,4.6c-0.1,0.6-0.4,0.7-1,0.6c-0.5-0.1-1-0.3-1.4-0.3
		c-2.1-0.1-3.8,0.8-5,2.5c-1.6,2.3-1.1,5.5,1.1,7.4c1.2,1,2.6,1.3,4.1,1.3C19.1,38.5,23,38.5,26.8,38.5z"/>
	<path class="st0" d="M10,20.5c0,1.4,0.3,2.6,0.9,3.8c0.2,0.3,0.1,0.7-0.2,0.8c-0.3,0.1-0.5,0.1-0.7-0.3c-0.4-0.7-0.7-1.4-0.8-2.2
		c-0.7-3.2,0.1-6,2.3-8.4c1.9-2,4.4-3.1,7.2-2.9c3.4,0.2,6,1.9,7.7,4.9c0.2,0.4,0.1,0.7-0.2,0.9c-0.3,0.1-0.5,0-0.7-0.3
		c-0.3-0.4-0.6-0.9-0.9-1.3c-1.3-1.6-3-2.6-5.1-3c-3.9-0.6-7.7,1.8-8.9,5.6c-0.1,0.3-0.2,0.7-0.3,1.1C10.1,19.8,10.1,20.2,10,20.5z"
		/>
	<path class="st0" d="M5.8,7.6C6,7.8,6.1,7.9,6.3,8C7.1,8.9,8,9.7,8.8,10.6c0.2,0.2,0.4,0.4,0.7,0.7c0.3,0.3,0.3,0.6,0.1,0.9
		C9.3,12.4,9,12.4,8.7,12c-0.7-0.7-1.5-1.5-2.2-2.3C6.1,9.4,5.7,9.1,5.4,8.7C5.2,8.5,5.1,8.3,5.2,8.1C5.3,7.9,5.5,7.7,5.8,7.6z"/>
	<path class="st0" d="M31.1,8.3c-0.1,0.1-0.1,0.3-0.2,0.4c-1.1,1.1-2.2,2.3-3.4,3.4c-0.3,0.3-0.6,0.3-0.8,0c-0.2-0.2-0.2-0.6,0-0.8
		c1.1-1.1,2.3-2.3,3.4-3.4c0.2-0.2,0.4-0.2,0.6-0.1C30.9,7.9,31,8,31.1,8.3z"/>
	<path class="st0" d="M3.3,20.1c0.7,0,1.4,0,2.1,0c0.4,0,0.7,0.2,0.7,0.6c0,0.4-0.3,0.6-0.7,0.6c-1.3,0-2.7,0-4,0
		c-0.1,0-0.2,0-0.4,0c-0.3-0.1-0.5-0.3-0.5-0.6c0-0.3,0.2-0.5,0.5-0.5C1.8,20.1,2.6,20.1,3.3,20.1C3.3,20.1,3.3,20.1,3.3,20.1z"/>
	<path class="st0" d="M17.5,5.9c0-0.7,0-1.5,0-2.2c0-0.3,0.2-0.5,0.5-0.6c0.3,0,0.5,0.2,0.6,0.5c0,0.1,0,0.3,0,0.4c0,1,0,2.1,0,3.1
		c0,0.3,0,0.6,0,0.9c0,0.3-0.2,0.5-0.4,0.6c-0.2,0-0.4,0-0.5-0.1c-0.1-0.1-0.2-0.3-0.2-0.4C17.5,7.3,17.5,6.6,17.5,5.9
		C17.5,5.9,17.5,5.9,17.5,5.9z"/>
</g>
</svg>
