<?xml version="1.0" encoding="utf-8"?>
<!-- Generator: Adobe Illustrator 27.1.1, SVG Export Plug-In . SVG Version: 6.00 Build 0)  -->
<svg version="1.1" id="Layer_1" xmlns="http://www.w3.org/2000/svg" xmlns:xlink="http://www.w3.org/1999/xlink" x="0px" y="0px"
	 viewBox="0 0 45.8 45.8" style="enable-background:new 0 0 45.8 45.8;" xml:space="preserve">
<style type="text/css">
	.st0{fill:#55738A;}
</style>
<g id="ozuNBh.tif">
</g>
<g id="qiVCDu.tif">
	<g>
		<path class="st0" d="M22.3,22.3c1-0.8,2.1-1.2,3.3-1.3c2.7-0.3,5.3,1.4,6.2,4.1c0.1,0.4,0.3,0.5,0.6,0.6c2.9,0.7,5.2,3.4,5.3,6.5
			c0.1,2.2-0.9,4-2.6,5.4c-1.2,1-2.6,1.4-4.1,1.4c-8,0-16,0-24.1,0c-3.4,0-6.3-2.6-6.7-5.9c-0.5-3.8,1.5-7,4.9-8
			c0.4-0.1,0.4-0.3,0.5-0.6c0.4-3.9,3.3-7.1,7-7.8c4-0.7,7.9,1.4,9.5,5.4C22.2,22,22.2,22.1,22.3,22.3z M6.7,25.9
			C6.6,26,6.4,26,6.2,26c-2.9,0.4-4.9,3.1-4.8,6.2C1.6,35.3,4,37.7,7,37.7c8.1,0,16.1,0,24.2,0c0.7,0,1.4-0.2,2-0.4
			c2.2-0.8,3.7-3.2,3.4-5.4c-0.3-2.5-2.4-4.8-4.9-5.1c-0.5-0.1-0.7-0.2-0.9-0.7c-0.5-1.9-1.7-3.2-3.5-3.7c-1.9-0.5-3.5,0-4.9,1.6
			c-0.2,0.3-0.5,0.5-0.7,0.9c-0.7-5-4.6-7.3-7.9-7.1C10.6,17.8,6.6,20.6,6.7,25.9z"/>
		<path class="st0" d="M33.8,25c0-0.4,0-0.8,0-1.2c0.2,0,0.4,0,0.6,0c1.8,0,3.7,0,5.5,0c2.2,0,4-1.5,4.3-3.7
			c0.3-1.7-0.5-3.1-1.8-4.1c-0.7-0.6-1.4-0.8-2.3-0.9c-0.3,0-0.4-0.1-0.5-0.4c-0.4-1.6-1.3-2.7-2.8-3.1c-1.6-0.4-2.9,0.1-4,1.3
			c-0.2,0.2-0.4,0.4-0.7,0.7c-0.1-0.4-0.2-0.8-0.3-1.1c-0.7-3-3.4-5-6.3-4.7c-3,0.3-5.2,2.8-5.3,5.9c0,0.3,0,0.5,0,0.8
			C19,14.6,17.9,15.1,17,16c-0.3-0.3-0.6-0.6-0.9-0.8c0.7-0.8,1.6-1.4,2.5-1.7c0.3-0.1,0.4-0.2,0.4-0.5c0.4-3.2,2.8-5.9,5.8-6.4
			c3.2-0.6,6.3,1.1,7.7,4.1c0.1,0.1,0.1,0.3,0.2,0.4c1-0.7,2.1-1.1,3.3-1c2.1,0.1,3.6,1.2,4.5,3.3c0.1,0.3,0.3,0.5,0.6,0.5
			c2.5,0.7,4.3,3.1,4.3,5.6c-0.1,2.8-2.2,5.2-5,5.4C38.3,25.2,36,25,33.8,25z"/>
	</g>
</g>
</svg>
