<?xml version="1.0" encoding="utf-8"?>
<!-- Generator: Adobe Illustrator 27.1.1, SVG Export Plug-In . SVG Version: 6.00 Build 0)  -->
<svg version="1.1" id="Layer_1" xmlns="http://www.w3.org/2000/svg" xmlns:xlink="http://www.w3.org/1999/xlink" x="0px" y="0px"
	 viewBox="0 0 45.8 45.8" style="enable-background:new 0 0 45.8 45.8;" xml:space="preserve">
<style type="text/css">
	.st0{fill:#55738A;}
</style>
<g id="_x34_NUKSu_00000175292603902182440210000009792090477426580869_">
	<g>
		<path class="st0" d="M18.4,5.9c0.5-0.6,0.9-1.3,1.5-1.8C24.1-0.5,31.4-0.5,35.7,4c2,2.2,3.1,4.7,3.1,7.7c0,0.4,0,0.7-0.1,1.1
			c0,0.2,0,0.3,0.2,0.3c3.5,1.4,5.5,4,5.9,7.8c0.5,5.2-3.4,9.4-8.2,9.8c-0.3,0-0.6,0-0.8,0c-8.6,0-17.1,0-25.7,0
			c-2,0-3.9-0.5-5.6-1.7C2,27.3,0.8,24.9,1,21.8c0.2-3.9,2.1-6.6,5.7-8.2c0.2-0.1,0.2-0.2,0.2-0.4C6.5,10.4,7.4,8,9.7,6.2
			c2.5-1.9,5.8-2,8.5-0.3C18.3,5.9,18.3,5.9,18.4,5.9z M22.9,28.7c4.2,0,8.5,0,12.7,0c0.4,0,0.7,0,1.1-0.1c3.1-0.4,5.7-3,6.1-6.1
			c0.4-3.6-1.8-6.8-5.3-7.7c-0.2-0.1-0.5-0.2-0.6-0.4c-0.3-0.3-0.3-0.7-0.2-1c0.3-1.9,0.1-3.7-0.7-5.4c-2.2-4.9-8.3-6.7-12.8-3.9
			c-1.5,0.9-2.6,2.2-3.4,3.8c-0.4,0.7-1.1,0.9-1.7,0.3c-0.2-0.1-0.3-0.3-0.5-0.4c-1.9-1.4-4.4-1.5-6.3-0.2C9.2,9,8.3,11.5,9,13.7
			c0.3,0.9-0.2,1.5-0.9,1.7c-2.2,0.6-3.8,2-4.6,4.2c-1.2,3-0.2,6.3,2.5,8c1.3,0.8,2.7,1.1,4.2,1.1C14.4,28.7,18.6,28.7,22.9,28.7z"
			/>
		<path class="st0" d="M20.5,34.8c-0.1,0.8-0.2,1.6-0.3,2.4c-0.3,2.4-0.7,4.9-1,7.3c-0.1,0.8-1,1.2-1.6,0.8c-0.4-0.2-0.5-0.6-0.4-1
			c0.3-1.9,0.5-3.9,0.8-5.8c0.2-1.2,0.4-2.5,0.5-3.7c0-0.1,0-0.2,0-0.3c0.1-0.6,0.6-0.9,1.1-0.9C20.1,33.8,20.5,34.2,20.5,34.8z"/>
		<path class="st0" d="M24.4,44.4c0.1-0.8,0.2-1.6,0.3-2.4c0.3-2.4,0.7-4.9,1-7.3c0.1-0.9,1-1.3,1.7-0.7c0.3,0.2,0.4,0.6,0.4,0.9
			c-0.3,2.5-0.7,5-1,7.4c-0.1,0.7-0.2,1.5-0.3,2.2c-0.1,0.8-0.7,1.2-1.4,1C24.7,45.4,24.4,45,24.4,44.4z"/>
		<path class="st0" d="M32.3,39.6c0.1-0.7,0.2-1.4,0.3-2.2c0.1-0.9,0.3-1.8,0.4-2.7c0.1-0.4,0.2-0.7,0.6-0.9c0.4-0.1,0.7-0.1,1,0.2
			c0.3,0.2,0.4,0.6,0.4,0.9c-0.2,1.6-0.5,3.3-0.7,4.9c-0.1,0.6-0.6,0.9-1.1,0.9C32.6,40.6,32.2,40.2,32.3,39.6z"/>
		<path class="st0" d="M10.6,39.6c0.1-0.8,0.2-1.7,0.3-2.5c0.1-0.8,0.2-1.6,0.3-2.3c0.1-0.7,0.6-1.1,1.3-1c0.5,0.1,0.9,0.6,0.8,1.2
			c-0.2,1.3-0.4,2.6-0.5,3.9c0,0.3-0.1,0.6-0.1,0.9c-0.1,0.6-0.6,0.9-1.1,0.9C10.9,40.6,10.6,40.2,10.6,39.6z"/>
	</g>
</g>
</svg>
