<?xml version="1.0" encoding="utf-8"?>
<!-- Generator: Adobe Illustrator 27.3.1, SVG Export Plug-In . SVG Version: 6.00 Build 0)  -->
<svg version="1.1" id="Layer_1" xmlns="http://www.w3.org/2000/svg" xmlns:xlink="http://www.w3.org/1999/xlink" x="0px" y="0px"
	 viewBox="0 0 45.8 45.8" style="enable-background:new 0 0 45.8 45.8;" xml:space="preserve">
<style type="text/css">
	.st0{fill:#55738A;}
</style>
<g id="_x37_BUINi.tif">
	<g>
		<path class="st0" d="M17.5,18.9c0.4-3.2,2.7-5.8,5.8-6.5c3.1-0.7,6.4,0.6,8.1,3.3c0.2,0.3,0.3,0.3,0.6,0.3c3.3-0.8,6.5,1,7.5,4.2
			c0.1,0.4,0.2,0.9,0.3,1.3c0.5,0.1,1,0.2,1.5,0.4c3.7,1.6,3.8,6,1.6,8.2c-0.7,0.7-1.6,1.1-2.6,1.1c-7.7,0-15.3,0-23,0
			c-4.2,0-7.1-4.6-5.2-8.4c1-2.1,2.8-3.2,5.2-3.4C17.5,19.2,17.5,19.1,17.5,18.9z M40.4,29.4c0.6,0,1.1-0.2,1.5-0.7
			c1.3-1.6,1.1-4.3-1.3-5.2c-0.4-0.1-0.8-0.2-1.2-0.1c-1,0-1.3-0.3-1.3-1.2c0-2.3-1.5-4.1-3.7-4.5c-0.9-0.2-1.7,0-2.5,0.3
			c-0.8,0.3-1.2,0.2-1.5-0.6c-1.2-2.5-3.9-3.8-6.6-3.2c-2.6,0.6-4.5,3.1-4.3,5.9c0,1-0.3,1.3-1.3,1.2c-2.3-0.2-4.3,1.5-4.4,3.8
			c-0.1,2.4,1.7,4.3,4.1,4.3c3.8,0,7.5,0,11.3,0C32.8,29.3,36.6,29.3,40.4,29.4z"/>
		<path class="st0" d="M9.4,16.4c0,1.1,0.2,2.1,0.7,3.1c0.3,0.7,0.8,1,1.4,0.7c0.5-0.3,0.6-0.7,0.3-1.5c-1.1-2.5-0.4-5.5,1.8-7.1
			c1.9-1.4,4-1.5,6.1-0.5c0.2,0.1,0.5,0.2,0.7,0.2c0.4,0,0.7-0.3,0.8-0.7c0.1-0.4-0.1-0.8-0.4-1c-1.3-0.7-2.7-1.1-4.2-1
			c-3.8,0.3-6.6,2.8-7.2,6.6C9.4,15.7,9.4,16.1,9.4,16.4z"/>
		<path class="st0" d="M31.6,44.3c0-0.1,0-0.2-0.1-0.4c-1.1-3.3-2.1-6.6-3.2-9.9c-0.2-0.5-0.7-0.8-1.2-0.6c-0.5,0.2-0.8,0.7-0.6,1.2
			c1.1,3.4,2.1,6.7,3.2,10c0.2,0.5,0.6,0.8,1,0.7C31.3,45.2,31.6,44.8,31.6,44.3z"/>
		<path class="st0" d="M35.2,42.6c-0.1-0.2-0.1-0.4-0.1-0.5c-0.8-2.6-1.7-5.2-2.5-7.8c-0.2-0.6-0.6-0.9-1-0.8
			c-0.6,0.1-1,0.6-0.7,1.4c0.4,1.3,0.8,2.6,1.3,3.9c0.4,1.3,0.9,2.7,1.3,4c0.1,0.4,0.4,0.7,0.8,0.7c0.3,0,0.6-0.2,0.9-0.4
			C35.1,43,35.1,42.7,35.2,42.6z"/>
		<path class="st0" d="M22.6,34.5c0,0.1,0,0.2,0.1,0.3c0.8,2.6,1.7,5.2,2.5,7.8c0.2,0.6,0.7,0.9,1.2,0.8c0.6-0.2,0.8-0.7,0.6-1.3
			c-0.6-1.7-1.1-3.4-1.7-5.1c-0.3-0.9-0.6-1.9-0.9-2.8c-0.2-0.5-0.6-0.7-1-0.6C22.9,33.7,22.6,34,22.6,34.5z"/>
		<path class="st0" d="M18.5,34.4c0,0.1,0.1,0.2,0.1,0.4c0.7,2,1.3,4,2,6c0.1,0.4,0.3,0.7,0.7,0.8c0.3,0,0.6-0.1,0.9-0.2
			c0.3-0.2,0.3-0.6,0.2-1c-0.4-1.2-0.8-2.4-1.2-3.5c-0.3-0.9-0.6-1.9-0.9-2.8c-0.2-0.5-0.6-0.7-1-0.6C18.8,33.5,18.5,33.9,18.5,34.4
			z"/>
		<path class="st0" d="M35.7,33.4c-0.8,0-1.2,0.6-1,1.3c0.6,1.9,1.2,3.7,1.8,5.6c0.1,0.3,0.2,0.6,0.3,0.8c0.2,0.5,0.7,0.7,1.2,0.6
			c0.5-0.1,0.7-0.6,0.6-1.1c-0.7-2.2-1.4-4.3-2.1-6.4C36.3,33.6,36,33.4,35.7,33.4z"/>
		<path class="st0" d="M5.6,27.1c0.2,0.2,0.3,0.6,0.6,0.7c0.3,0.1,0.7,0.1,0.9-0.1c0.8-0.8,1.6-1.6,2.4-2.4c0.3-0.3,0.2-0.9-0.1-1.2
			c-0.3-0.3-0.8-0.4-1.2-0.1c-0.8,0.8-1.6,1.6-2.4,2.4C5.8,26.5,5.8,26.8,5.6,27.1z"/>
		<path class="st0" d="M4.2,17.6c0.5,0,1.1,0,1.6,0c0.6,0,1-0.4,1.1-0.9c0-0.6-0.4-1-1-1c-1.1,0-2.3,0-3.4,0c-0.6,0-1.1,0.5-1.1,1
			c0,0.6,0.4,0.9,1.1,1C3.1,17.6,3.6,17.6,4.2,17.6z"/>
		<path class="st0" d="M7.6,8.1C8,8.5,8.4,8.9,8.8,9.2c0.5,0.4,1,0.5,1.4,0.1c0.4-0.4,0.4-1,0-1.5C9.4,7,8.6,6.2,7.8,5.5
			C7.3,5,6.7,5.1,6.3,5.5C5.9,5.9,6,6.5,6.4,6.9C6.8,7.3,7.2,7.7,7.6,8.1z"/>
		<path class="st0" d="M16.2,3.9c0,0.6,0,1.3,0,1.9c0,0.7,0.4,1.2,0.9,1.2C17.6,7,18,6.5,18,5.8c0-1.3,0-2.5,0-3.8
			c0-0.7-0.4-1.2-0.9-1.1c-0.5,0-0.9,0.5-0.9,1.2c0,0.3,0,0.6,0,1C16.2,3.3,16.2,3.6,16.2,3.9C16.2,3.9,16.2,3.9,16.2,3.9z"/>
		<path class="st0" d="M24.4,6c-0.4,0.5-0.8,0.9-1.2,1.4c-0.4,0.5-0.5,1.1-0.1,1.4c0.4,0.3,1,0.3,1.4-0.2c0.8-0.9,1.6-1.8,2.4-2.7
			c0.4-0.5,0.4-1.1,0-1.4c-0.4-0.3-0.9-0.2-1.4,0.2c-0.2,0.2-0.4,0.4-0.6,0.7C24.7,5.6,24.6,5.8,24.4,6C24.4,6,24.4,6,24.4,6z"/>
	</g>
</g>
</svg>
