<?xml version="1.0" encoding="utf-8"?>
<!-- Generator: Adobe Illustrator 27.1.1, SVG Export Plug-In . SVG Version: 6.00 Build 0)  -->
<svg version="1.1" id="Layer_1" xmlns="http://www.w3.org/2000/svg" xmlns:xlink="http://www.w3.org/1999/xlink" x="0px" y="0px"
	 viewBox="0 0 45.8 45.8" style="enable-background:new 0 0 45.8 45.8;" xml:space="preserve">
<style type="text/css">
	.st0{fill:#55738A;}
</style>
<g id="schzlA_00000137839594221788308670000004722730811482806185_">
	<g>
		<path class="st0" d="M22.2,32c-3.8,0-7.5-0.1-11.3-0.1c-5.2,0-9.4-3.6-10.4-8.6c-1-5.1,2.2-10.3,7.3-11.8c0.3-0.1,0.4-0.2,0.5-0.5
			c2.4-5.3,6.5-8.4,12.3-8.9C26.5,1.6,31,4,34.3,8.9c0.1,0.2,0.3,0.3,0.5,0.3c5.6,0.4,10.1,4.9,10.5,10.5
			c0.5,6.7-4.8,12.4-11.5,12.3C29.9,32.1,26.1,32,22.2,32C22.2,32,22.2,32,22.2,32z M9.4,11C9.5,11,9.5,11.1,9.4,11
			c0.1,0,0.2,0,0.3,0c2.3-0.3,4.4,0.2,6.4,1.3c0.5,0.3,0.6,0.5,0.4,0.8c-0.2,0.3-0.4,0.3-0.9,0c-2.2-1.2-4.5-1.6-6.9-1
			c-4.1,1-7,4.3-7.3,8.6c-0.4,5.1,3.6,9.7,8.7,10c1.2,0.1,2.4,0.1,3.6,0.1c6.7,0.1,13.4,0.2,20.1,0.2c6.5,0,11.4-5.8,10.3-12.2
			c-1.2-7.2-9.4-11-15.6-7.3c-0.7,0.4-1.3,1-2,1.5c-0.3,0.2-0.5,0.2-0.7,0c-0.2-0.2-0.2-0.5,0-0.7c0,0,0.1-0.1,0.1-0.1
			c1.6-1.5,3.5-2.5,5.6-2.9c0.5-0.1,1.1-0.2,1.6-0.2C31,5.5,26.2,2.4,20.4,3C15,3.6,11,7.3,9.4,11z"/>
		<path class="st0" d="M20.9,38.9c0.9-1.6,1.8-3.2,2.6-4.7c0.2-0.3,0.3-0.6,0.5-0.9c0.2-0.3,0.5-0.4,0.8-0.3
			c0.3,0.2,0.4,0.5,0.2,0.8c-0.7,1.2-1.4,2.4-2,3.6c0,0.1-0.1,0.1-0.1,0.3c0.9,0,1.7,0,2.6,0c-0.1,0.1-0.1,0.2-0.1,0.3
			c-1.1,2-2.3,4.1-3.4,6.1c-0.1,0.1-0.1,0.2-0.2,0.3c-0.2,0.2-0.4,0.2-0.7,0.1c-0.2-0.1-0.3-0.4-0.2-0.6c0.1-0.2,0.2-0.4,0.3-0.6
			c0.8-1.4,1.6-2.8,2.3-4.2c0-0.1,0.1-0.1,0.1-0.3C22.7,38.9,21.8,38.9,20.9,38.9z"/>
		<path class="st0" d="M10.9,38.9c-0.9,0-1.8,0-2.7,0c0.1-0.1,0.1-0.2,0.1-0.3c1-1.7,1.9-3.4,2.9-5.1c0-0.1,0.1-0.1,0.1-0.2
			c0.2-0.3,0.5-0.3,0.7-0.2c0.3,0.1,0.4,0.4,0.2,0.7c-0.3,0.5-0.5,1-0.8,1.5c-0.5,0.8-0.9,1.6-1.4,2.5c0.9,0,1.8,0,2.7,0
			c-0.3,0.5-0.5,1-0.8,1.4c-0.9,1.6-1.8,3.3-2.8,4.9c0,0.1-0.1,0.1-0.1,0.2c-0.2,0.3-0.5,0.4-0.8,0.2C8,44.4,8,44.1,8.1,43.8
			c0.7-1.3,1.5-2.6,2.2-4C10.6,39.5,10.7,39.3,10.9,38.9z"/>
		<path class="st0" d="M35.5,37.8c0.9,0,1.8,0,2.7,0c-0.3,0.5-0.5,1-0.8,1.4c-0.9,1.6-1.8,3.3-2.8,4.9c0,0.1-0.1,0.1-0.1,0.2
			c-0.2,0.3-0.5,0.4-0.7,0.2c-0.3-0.2-0.3-0.5-0.2-0.8c0.5-0.9,1-1.8,1.5-2.7c0.4-0.7,0.8-1.4,1.2-2.2c-0.9,0-1.8,0-2.7,0
			c0.4-0.6,0.7-1.2,1-1.8c0.7-1.2,1.4-2.5,2.1-3.7c0.2-0.3,0.4-0.4,0.7-0.3c0.4,0.1,0.5,0.5,0.3,0.9c-0.7,1.2-1.3,2.4-2,3.5
			C35.7,37.6,35.6,37.7,35.5,37.8z"/>
		<path class="st0" d="M10.1,29.8c-2.3-0.2-4.2-1.2-5.7-2.9c-0.3-0.3-0.3-0.6,0-0.8c0.2-0.2,0.5-0.2,0.8,0.1
			c1.6,1.8,3.6,2.6,5.9,2.6c2.7,0,5.4,0,8.1,0.1c0.4,0,0.6,0.2,0.6,0.5c0,0.3-0.2,0.5-0.6,0.5C17.7,29.9,11.6,29.9,10.1,29.8z"/>
		<path class="st0" d="M9,13.2c0.3,0,0.5,0.1,0.5,0.4c0.1,0.3,0,0.5-0.3,0.6c-0.2,0.1-0.4,0.1-0.6,0.2c-2.5,0.8-4.2,2.5-5,5.1
			c0,0.1-0.1,0.3-0.2,0.4c-0.2,0.1-0.4,0.1-0.6,0c-0.2-0.1-0.3-0.3-0.2-0.6c0.2-0.9,0.6-1.8,1.2-2.6c1.2-1.7,2.8-2.8,4.9-3.4
			C8.8,13.2,8.9,13.2,9,13.2z"/>
		<path class="st0" d="M26.6,30c-0.5,0-0.7-0.2-0.7-0.5c0-0.3,0.2-0.5,0.7-0.5c2.4,0,4.7,0,7.1,0.1c0.5,0,0.8,0.4,0.6,0.7
			c-0.1,0.1-0.3,0.3-0.5,0.3C32.5,30.1,27.7,30,26.6,30z"/>
		<path class="st0" d="M2.9,20.9c0.3,0,0.5,0.2,0.5,0.5c0.1,0.6,0.2,1.3,0.2,1.9c0,0.3-0.1,0.5-0.3,0.6C3,24,2.7,23.8,2.7,23.5
			c-0.1-0.7-0.2-1.4-0.3-2.1C2.4,21.1,2.6,20.9,2.9,20.9z"/>
		<path class="st0" d="M22.4,30c-0.3,0-0.5-0.2-0.5-0.5c0-0.3,0.2-0.5,0.5-0.5c0.7,0,1.4,0,2,0c0.3,0,0.4,0.2,0.5,0.5
			c0,0.3-0.2,0.5-0.5,0.5C24,30,22.7,30,22.4,30z"/>
	</g>
</g>
</svg>
