<?xml version="1.0" encoding="utf-8"?>
<!-- Generator: Adobe Illustrator 27.3.1, SVG Export Plug-In . SVG Version: 6.00 Build 0)  -->
<svg version="1.1" id="Layer_1" xmlns="http://www.w3.org/2000/svg" xmlns:xlink="http://www.w3.org/1999/xlink" x="0px" y="0px"
	 viewBox="0 0 45.8 45.8" style="enable-background:new 0 0 45.8 45.8;" xml:space="preserve">
<style type="text/css">
	.st0{fill:#55738A;}
</style>
<g id="wJBLzr.tif">
	<g>
		<path class="st0" d="M45.3,17.8c-0.2,0.5-0.6,0.7-1.2,0.7c-1,0-2.1,0-3.1,0c-0.6,0-1-0.3-1-0.9c0-0.6,0.4-0.9,1-0.9
			c1,0,2.1,0,3.1,0c0.6,0,1,0.1,1.2,0.6C45.3,17.5,45.3,17.6,45.3,17.8z"/>
		<path class="st0" d="M23.6,28.2c-0.7,1.4-1.4,2.7-2.2,4.2c1.3,0,2.4,0,3.6,0c0,0,0,0.1,0.1,0.1c-3,3.6-5.9,7.2-8.9,10.8
			c0,0,0,0-0.1,0c0.6-2.3,1.1-4.7,1.7-7.1c-1,0-1.9,0-2.9,0c0.3-0.9,0.5-1.7,0.8-2.5c0.5-1.7,1.1-3.5,1.6-5.2
			c0.1-0.2,0.1-0.3,0.4-0.3c1.9,0,3.8,0,5.7,0C23.4,28.1,23.4,28.2,23.6,28.2z M19.4,34.8c-0.4,1.4-0.7,2.8-1,4.1c0,0,0.1,0,0.1,0
			c1.2-1.8,2.4-3.5,3.6-5.4c-0.8,0-1.5,0-2.2,0c0.5-1.4,1-2.6,1.5-4c-0.9,0-1.7,0-2.5,0c-0.3,0-0.4,0.1-0.5,0.4
			c-0.5,1.5-1,2.9-1.5,4.4c0,0.1-0.1,0.2-0.1,0.4C17.6,34.8,18.5,34.8,19.4,34.8z"/>
		<path class="st0" d="M38.5,22c0.1,0.1,0.4,0.2,0.5,0.3c0.8,0.8,1.6,1.6,2.4,2.3c0.4,0.4,0.4,0.9,0.1,1.3c-0.4,0.4-0.9,0.4-1.3,0
			c-0.8-0.8-1.6-1.6-2.4-2.4c-0.3-0.3-0.4-0.6-0.2-1C37.7,22.2,37.9,22,38.5,22z"/>
		<path class="st0" d="M31.1,5.3c0,0.6,0,1.2,0,1.7c0,0.6-0.4,0.9-0.9,1c-0.5,0-0.9-0.4-0.9-0.9c0-1.2,0-2.3,0-3.5
			c0-0.6,0.4-0.9,0.9-0.9c0.5,0,0.9,0.4,0.9,0.9C31.1,4.2,31.1,4.7,31.1,5.3C31.1,5.3,31.1,5.3,31.1,5.3z"/>
		<path class="st0" d="M37.4,11.1c-0.2-0.2-0.5-0.4-0.7-0.6c-0.2-0.3-0.1-0.7,0.1-1c0.9-0.9,1.7-1.7,2.6-2.6
			c0.4-0.3,0.9-0.3,1.3,0.1c0.3,0.3,0.4,0.9,0,1.2c-0.8,0.9-1.7,1.7-2.6,2.6C38,11,37.7,11,37.4,11.1z"/>
		<path class="st0" d="M20.2,6.3c0.1,0.1,0.4,0.1,0.6,0.3c0.8,0.8,1.6,1.6,2.4,2.4c0.4,0.4,0.4,0.9,0,1.3c-0.4,0.4-0.9,0.4-1.3,0
			c-0.8-0.8-1.6-1.6-2.4-2.4c-0.3-0.3-0.4-0.6-0.2-1C19.4,6.5,19.7,6.4,20.2,6.3z"/>
		<path class="st0" d="M23.2,13c1.1-1.3,2.6-2.2,4.3-2.6c4.5-1,8.9,2.5,9.1,7.1c0.1,1.8-0.4,3.5-1.6,4.9c-0.2,0.3-0.3,0.6-0.2,1
			c0.2,1.6,0.1,3.2-0.5,4.7c-0.5,1.4-1.5,2.5-2.8,3.3c-1.1,0.7-2.4,1.2-3.7,1.5c-0.6,0.1-1.1-0.2-1.2-0.7c-0.1-0.6,0.1-1.1,0.7-1.3
			c0.8-0.3,1.5-0.5,2.3-0.8c2.2-1,3.2-2.7,3.3-5c0-0.9-0.1-1.9-0.4-2.8c-0.9-2.9-3.6-4.3-6.6-3.4c-1.2,0.3-2.2,1-3.2,1.7
			c-0.1,0.1-0.3,0.2-0.4,0.3c-0.4-0.5-0.9-1-1.4-1.6c0.5-0.4,1.1-0.8,1.6-1.2c0.5-0.4,1.1-0.6,1.7-1c-0.1-0.1-0.1-0.3-0.2-0.4
			c-1.9-2.9-5.4-4.3-8.9-3.6C11.8,14,9.4,16.5,8.7,20c-0.1,0.5-0.3,0.6-0.7,0.7c-0.9,0.2-1.9,0.4-2.7,0.9c-2.4,1.2-3.2,4.1-1.9,6.7
			C4.4,30,5.8,31,7.9,31c1.7,0,3.4,0,5,0c0.6,0,1,0.3,1.1,0.8c0.2,0.7-0.3,1.3-1.1,1.3c-1.6,0-3.3,0-4.9,0c-3.7,0-6.2-2.5-6.9-5.3
			c-1-3.9,1-7.4,5-8.6C6.7,18.9,7,18.6,7.2,18c1.4-4.3,5.4-7,10-6.9c2.1,0,4,0.6,5.8,1.8C23,12.9,23,13,23.2,13
			C23.1,13,23.1,13,23.2,13z M33.9,20.4c1.2-2,0.8-5.4-1.9-7.1c-2.6-1.7-5.9-0.8-7.3,1.2c0.4,0.6,0.9,1.2,1.2,1.8
			c0.2,0.4,0.5,0.5,0.9,0.5c1.9-0.2,3.7,0.3,5.1,1.6C32.8,18.9,33.3,19.7,33.9,20.4z"/>
	</g>
</g>
</svg>
