<?xml version="1.0" encoding="utf-8"?>
<!-- Generator: Adobe Illustrator 27.3.1, SVG Export Plug-In . SVG Version: 6.00 Build 0)  -->
<svg version="1.1" id="Layer_1" xmlns="http://www.w3.org/2000/svg" xmlns:xlink="http://www.w3.org/1999/xlink" x="0px" y="0px"
	 viewBox="0 0 45.8 45.8" style="enable-background:new 0 0 45.8 45.8;" xml:space="preserve">
<style type="text/css">
	.st0{fill:#55738A;}
</style>
<g>
	<g id="tt4ryd.tif">
		<g>
			<path class="st0" d="M45,17.6c-0.1,0.4-0.1,0.8-0.2,1.2c-0.6,2.6-2,4.6-4.4,6.1c-0.1,0.1-0.2,0.1-0.2,0.1c0.1,0.7,0.3,1.3,0.4,2
				c0.5,4.5-3.3,8.5-8,8.6c-0.5,0-0.9-0.1-1.1-0.6c-0.2-0.4-0.2-0.8,0.2-1c0.3-0.2,0.6-0.3,1-0.4c2.3-0.2,4-1.1,5.2-2.9
				c2-3.2,0.3-7.5-3.5-8.6c-0.1,0-0.2-0.1-0.3-0.1c-0.9-0.2-1.1-0.6-1-1.5c0.1-0.8,0.2-1.5,0.1-2.3c-0.5-4.1-4.4-7.1-8.7-6.6
				c-2.8,0.3-4.9,1.6-6.3,4c-0.1,0.1-0.2,0.3-0.2,0.4c-0.4,0.7-1.1,0.8-1.7,0.3c-0.7-0.6-1.6-1.1-2.6-1.2c-2.9-0.5-5.6,1.8-5.5,4.6
				c0,0.4,0.1,0.8,0.2,1.3c0.2,0.8,0,1.2-0.9,1.4c-1.6,0.4-2.8,1.3-3.6,2.6c-2.3,3.3-0.4,7.7,3.7,8.5c0.5,0.1,1,0.1,1.5,0.2
				c0.7,0.1,1.1,0.5,1.1,1c0,0.5-0.5,1-1.1,0.9c-3.3-0.1-5.9-1.3-7.4-4.2c-2.1-3.9-0.2-8.8,4.1-10.6c0.3-0.1,0.4-0.2,0.4-0.6
				c-0.6-4.4,3.7-8,8.2-7.1c0.8,0.2,1.6,0.5,2.4,0.8c0.3-0.4,0.6-0.8,1-1.2c2.1-2.3,4.8-3.3,8-3.2c0.6,0,1.2,0.2,1.8,0.2
				c0.1,0,0.3,0,0.5-0.1c1.7-1.5,3.7-2.3,5.9-2.5c0.1,0,0.1,0,0.2-0.1c0.5,0,1,0,1.6,0c0.4,0.1,0.7,0.1,1.1,0.2
				c3.8,0.7,6.4,2.8,7.8,6.3c0.3,0.7,0.4,1.6,0.6,2.3C45,16.4,45,17,45,17.6z M35.1,20.2c1.7,0.6,3,1.6,4.1,3.1
				c2.6-1.8,4-4.2,3.6-7.3c-0.3-3.2-2.2-5.5-5.4-6.5c-2.7-0.9-5.2-0.4-7.5,1.2C33.6,12.9,35.4,16,35.1,20.2z"/>
		</g>
	</g>
	<path class="st0" d="M26.7,35.7c-0.1,0.8-0.1,1.6-0.2,2.3c-0.1,0.7-0.5,1.1-1.2,1.1c-0.6-0.1-1-0.6-0.9-1.2
		c0.1-0.7,0.1-1.5,0.2-2.3c-0.5,0.3-1,0.5-1.4,0.7c-0.3,0.1-0.6,0.3-0.9,0.4c-0.6,0.2-1.2,0.1-1.4-0.5c-0.3-0.5-0.1-1.1,0.4-1.4
		c0.7-0.4,1.4-0.7,2.1-1.1c0.1-0.1,0.2-0.1,0.4-0.2c-0.8-0.6-1.5-1.1-2.2-1.7c-0.4-0.3-0.5-0.7-0.4-1.2c0.1-0.4,0.5-0.7,0.9-0.7
		c0.3,0,0.6,0.1,0.9,0.3c0.6,0.4,1.2,0.9,1.9,1.4c0.1-0.8,0.1-1.6,0.2-2.4c0-0.4,0.3-0.8,0.7-0.9c0.3-0.1,0.8,0,1,0.2
		c0.2,0.2,0.4,0.6,0.4,1c0,0.7-0.1,1.5-0.2,2.3c0.8-0.4,1.4-0.8,2.1-1.1c0.3-0.1,0.6-0.2,0.9-0.1c0.4,0.1,0.7,0.4,0.7,0.9
		c0,0.5-0.1,0.8-0.6,1c-0.8,0.4-1.6,0.8-2.5,1.3c0.7,0.5,1.4,1,2,1.6c0.2,0.2,0.5,0.5,0.5,0.8c0.1,0.4-0.1,0.8-0.5,1
		c-0.4,0.2-0.8,0.2-1.2,0c-0.5-0.4-1-0.8-1.5-1.1C27.1,35.9,27,35.9,26.7,35.7z"/>
	<path class="st0" d="M15.2,37.4c-0.1,0.5-0.2,0.9-0.4,1.3c-0.1,0.4-0.4,0.6-0.8,0.5c-0.4-0.1-0.5-0.4-0.4-0.8
		c0.1-0.4,0.2-0.8,0.4-1.3c-0.3,0.1-0.6,0.2-0.9,0.3c-0.2,0.1-0.4,0.1-0.6,0.2c-0.4,0.1-0.7-0.1-0.8-0.4c-0.1-0.3,0.1-0.7,0.4-0.8
		c0.4-0.2,0.9-0.3,1.3-0.4c0.1,0,0.2-0.1,0.3-0.1c-0.4-0.4-0.8-0.8-1.1-1.2c-0.2-0.2-0.2-0.5-0.1-0.7c0.1-0.2,0.4-0.4,0.6-0.3
		c0.2,0,0.4,0.1,0.5,0.3c0.3,0.3,0.6,0.6,1,1c0.1-0.5,0.3-0.9,0.4-1.4c0.1-0.3,0.2-0.5,0.5-0.5c0.2,0,0.5,0.1,0.6,0.2
		c0.1,0.1,0.2,0.4,0.1,0.6c-0.1,0.4-0.2,0.9-0.4,1.4c0.5-0.2,0.9-0.3,1.4-0.4c0.2,0,0.4,0,0.6,0c0.2,0.1,0.4,0.3,0.3,0.6
		c0,0.3-0.2,0.5-0.4,0.6c-0.5,0.2-1,0.3-1.6,0.5c0.4,0.4,0.7,0.7,1,1.1c0.1,0.1,0.2,0.3,0.2,0.5c0,0.3-0.1,0.5-0.4,0.6
		c-0.3,0.1-0.5,0.1-0.7-0.1c-0.3-0.3-0.5-0.5-0.8-0.8C15.4,37.6,15.4,37.5,15.2,37.4z"/>
</g>
</svg>
