<?xml version="1.0" encoding="utf-8"?>
<!-- Generator: Adobe Illustrator 27.3.1, SVG Export Plug-In . SVG Version: 6.00 Build 0)  -->
<svg version="1.1" id="Layer_1" xmlns="http://www.w3.org/2000/svg" xmlns:xlink="http://www.w3.org/1999/xlink" x="0px" y="0px"
	 viewBox="0 0 45.8 45.8" style="enable-background:new 0 0 45.8 45.8;" xml:space="preserve">
<style type="text/css">
	.st0{fill:#55738A;}
</style>
<g id="pLLwGH_00000083070272104823205730000009978781712851381942_">
	<g>
		<path class="st0" d="M23.1,23.4c-1.1-0.9-2.3-1.6-3.7-1.9c-2.3-0.4-4.6,0.7-5.6,2.9c-0.6,1.3-0.9,2.7-0.7,4.2
			c0.2,2.1,1.2,3.6,3,4.5c0.7,0.4,1.5,0.6,2.3,0.9c0.6,0.2,0.8,0.7,0.6,1.3c-0.2,0.5-0.7,0.8-1.2,0.6c-0.9-0.3-1.8-0.6-2.6-1.1
			c-1.3-0.7-2.4-1.7-3.1-3c-0.7-1.2-1-2.5-0.9-3.9c0-0.8,0.1-1.6,0.2-2.4c0-0.2,0-0.3-0.1-0.5c-1.6-2.2-2-4.7-1.1-7.3
			c1.3-3.8,5.2-5.7,8.6-5c1.9,0.4,3.4,1.4,4.6,2.9c0.1,0.1,0.2,0.1,0.3,0c2.8-1.7,5.7-2.2,8.8-1.2c3.8,1.2,6.2,3.8,7.1,7.8
			c0,0.2,0.1,0.3,0.3,0.3c0.6,0.2,1.2,0.4,1.8,0.7c1.8,0.9,3.1,2.4,3.6,4.4c0.3,1.1,0.3,2.2,0.1,3.3c-0.5,2.3-1.7,4.1-3.7,5.2
			c-0.9,0.5-1.9,0.8-3,0.8c-0.4,0-0.7-0.2-0.9-0.5c-0.2-0.3-0.1-0.7,0.1-1c0.2-0.3,0.6-0.4,0.9-0.5c0.6-0.1,1.2-0.2,1.8-0.5
			c2.1-1.1,3.1-3.3,2.9-5.6c-0.2-1.7-1.2-2.9-2.6-3.7c-0.8-0.4-1.6-0.7-2.5-0.9c-0.4-0.1-0.4-0.1-0.4-0.5c-0.1-1.5-0.6-2.9-1.4-4.1
			c-1.5-2.2-3.7-3.4-6.3-3.6c-2.9-0.2-5.3,0.8-7.2,3c-0.2,0.3-0.5,0.6-0.7,0.9c0.1,0.1,0.2,0.1,0.4,0.2c1,0.5,2,1.2,2.8,2.1
			c0.1,0.1,0.1,0.1,0,0.3c-0.4,0.4-0.8,0.9-1.3,1.3C23.6,23.8,23.3,23.6,23.1,23.4z M13.4,21.5c1.1-1.2,2.5-1.8,4.1-2
			c0.8-0.1,1.5-0.1,2.3,0.1c0.1,0,0.2,0,0.3-0.1c0.5-0.8,1-1.5,1.7-2.2c-1.7-2.5-5.2-3.2-7.7-1.5c-2.4,1.7-3.2,4.9-2,7.2
			C12.6,22.5,12.9,21.9,13.4,21.5z"/>
		<path class="st0" d="M0.7,19.4c0,0.1,0.1,0.1,0.1,0.2c0.1,0.5,0.5,0.7,0.9,0.7c1.1,0.1,2.2,0.1,3.4,0.2c0.5,0,0.9-0.3,1-0.8
			c0.1-0.4-0.2-0.9-0.6-1c-0.1,0-0.2-0.1-0.4-0.1C4,18.6,3,18.6,1.9,18.5c-0.1,0-0.3,0-0.4,0c-0.3,0-0.6,0.2-0.7,0.5
			c0,0.1-0.1,0.1-0.1,0.2C0.7,19.3,0.7,19.4,0.7,19.4z"/>
		<path class="st0" d="M5.7,9.4C5.7,9.6,5.8,9.9,5.9,10c0.8,0.9,1.6,1.8,2.4,2.7c0.2,0.2,0.5,0.4,0.8,0.3c0.7-0.1,1-0.8,0.6-1.4
			c-0.2-0.2-0.4-0.4-0.5-0.6C8.6,10.3,8,9.6,7.4,9C7,8.5,6.6,8.4,6.2,8.7C5.9,8.8,5.7,9.1,5.7,9.4z"/>
		<path class="st0" d="M17.6,7.6c0-0.6,0.1-1.1,0.1-1.7c0-0.5-0.3-0.9-0.8-1c-0.5,0-0.9,0.3-0.9,0.9c-0.1,1.1-0.1,2.3-0.2,3.4
			c0,0.7,0.4,1.2,1,1.1c0.4-0.1,0.7-0.4,0.7-0.9C17.5,8.8,17.5,8.2,17.6,7.6C17.6,7.6,17.6,7.6,17.6,7.6z"/>
		<path class="st0" d="M23.2,12.6c0,0.2,0.1,0.5,0.4,0.7c0.3,0.2,0.6,0.2,0.9,0c0.1-0.1,0.2-0.1,0.3-0.2c0.8-0.7,1.5-1.4,2.3-2.1
			c0.1-0.1,0.1-0.1,0.2-0.2c0.4-0.4,0.4-0.9,0.1-1.3c-0.3-0.4-0.8-0.4-1.2-0.1c-0.3,0.2-0.6,0.5-0.8,0.7c-0.6,0.5-1.1,1-1.7,1.6
			C23.5,11.9,23.2,12.1,23.2,12.6z"/>
		<path class="st0" d="M8.4,25.2c0-0.3-0.2-0.6-0.5-0.8c-0.3-0.2-0.7-0.1-0.9,0.1c-0.9,0.8-1.8,1.6-2.7,2.5c-0.4,0.4-0.4,0.9,0,1.3
			c0.3,0.4,0.8,0.4,1.2,0C6.3,27.5,7.2,26.8,8,26C8.2,25.8,8.4,25.6,8.4,25.2z"/>
		<path class="st0" d="M32.6,34.8c0,0.7,0.1,1.3,0.1,2c0,0.6-0.3,1-0.9,1c-0.5,0-0.9-0.3-0.9-0.9c0-0.6-0.1-1.3-0.1-2
			c-0.4,0.3-0.7,0.5-1.1,0.8c-0.2,0.2-0.4,0.3-0.7,0.5c-0.4,0.3-1,0.2-1.2-0.2c-0.3-0.4-0.2-0.9,0.2-1.2c0.5-0.4,1.1-0.8,1.6-1.2
			c0.1-0.1,0.2-0.1,0.3-0.2c-0.7-0.4-1.4-0.7-2-1.1c-0.4-0.2-0.5-0.5-0.5-0.9c0.1-0.4,0.3-0.6,0.7-0.7c0.2,0,0.5,0,0.8,0.1
			c0.6,0.3,1.1,0.6,1.7,0.9c0-0.7-0.1-1.4-0.1-2c0-0.4,0.1-0.7,0.5-0.8c0.3-0.1,0.7-0.1,0.9,0c0.2,0.1,0.4,0.5,0.4,0.8
			c0.1,0.6,0.1,1.3,0.1,2c0.6-0.4,1.1-0.8,1.6-1.2c0.2-0.1,0.5-0.2,0.7-0.2c0.4,0,0.6,0.3,0.7,0.6c0.1,0.4,0,0.7-0.3,1
			c-0.6,0.5-1.2,0.9-1.9,1.4c0.7,0.4,1.3,0.7,1.9,1.1c0.2,0.1,0.5,0.4,0.6,0.6c0.2,0.3,0,0.7-0.3,0.9c-0.3,0.3-0.7,0.3-1,0.1
			c-0.5-0.2-0.9-0.5-1.4-0.8C32.9,34.9,32.8,34.9,32.6,34.8z"/>
		<path class="st0" d="M23.2,37.7c0,0.4-0.1,0.8-0.1,1.2c0,0.4-0.3,0.6-0.6,0.5c-0.3,0-0.5-0.3-0.5-0.6c0-0.4,0.1-0.7,0.1-1.2
			c-0.3,0.1-0.5,0.2-0.7,0.4c-0.1,0.1-0.3,0.2-0.4,0.2c-0.3,0.1-0.6,0-0.7-0.2c-0.1-0.3,0-0.6,0.2-0.7c0.3-0.2,0.7-0.4,1.1-0.5
			c0.1,0,0.1-0.1,0.2-0.1c-0.4-0.3-0.7-0.6-1.1-0.9c-0.2-0.2-0.2-0.4-0.2-0.6c0.1-0.2,0.2-0.4,0.5-0.3c0.1,0,0.3,0.1,0.4,0.2
			c0.3,0.2,0.6,0.5,0.9,0.7c0-0.4,0.1-0.8,0.1-1.2c0-0.2,0.1-0.4,0.4-0.5c0.2,0,0.4,0,0.5,0.1c0.1,0.1,0.2,0.3,0.2,0.5
			c0,0.4-0.1,0.8-0.1,1.2c0.4-0.2,0.7-0.4,1.1-0.5c0.1-0.1,0.3-0.1,0.5-0.1c0.2,0,0.3,0.2,0.4,0.4c0,0.2-0.1,0.4-0.3,0.5
			c-0.4,0.2-0.8,0.4-1.3,0.6c0.4,0.3,0.7,0.5,1,0.8c0.1,0.1,0.2,0.3,0.3,0.4c0.1,0.2,0,0.4-0.2,0.5c-0.2,0.1-0.4,0.1-0.6,0
			c-0.3-0.2-0.5-0.4-0.8-0.6C23.4,37.8,23.4,37.8,23.2,37.7z"/>
	</g>
</g>
</svg>
