<?xml version="1.0" encoding="utf-8"?>
<!-- Generator: Adobe Illustrator 27.1.1, SVG Export Plug-In . SVG Version: 6.00 Build 0)  -->
<svg version="1.1" id="Layer_1" xmlns="http://www.w3.org/2000/svg" xmlns:xlink="http://www.w3.org/1999/xlink" x="0px" y="0px"
	 viewBox="0 0 45.8 45.8" style="enable-background:new 0 0 45.8 45.8;" xml:space="preserve">
<style type="text/css">
	.st0{fill:#55738A;}
</style>
<g>
	<path class="st0" d="M34,19.1c2-0.5,3.8-0.3,5.5,0.8c2.5,1.6,3.7,4.7,2.9,7.5c-0.8,2.9-3.4,4.9-6.4,4.9c-2.6,0-5.1,0-7.7,0
		c-0.6,0-0.9-0.3-0.9-0.8c0-0.5,0.3-0.8,0.9-0.8c2.5,0,5,0,7.5,0c2.2,0,3.9-1.1,4.8-3.1c0.9-2,0.5-4-1-5.6c-1.4-1.6-3.7-2-5.7-1.2
		c-0.1,0-0.2,0.1-0.3,0.1c-0.7,0.3-1.2,0-1.2-0.7c-0.1-2.1-0.8-4.1-2.2-5.7c-2.7-3.2-6.1-4.5-10.1-3.5c-4,0.9-6.5,3.6-7.5,7.6
		c-0.2,0.9-0.6,1.1-1.4,0.6c-2.3-1.3-5.1-1-7.1,0.7c-2,1.7-2.7,4.4-1.8,6.8c0.9,2.4,3.2,4,5.8,4.1c2.2,0,4.3,0,6.5,0
		c0.6,0,0.9,0.2,1,0.7c0.1,0.5-0.3,0.9-0.8,0.9c-2.4,0-4.7,0-7.1,0C4,32.2,0.7,29,0.4,25.2c-0.3-4.1,2.5-7.6,6.3-8.3
		c1.5-0.3,3-0.1,4.4,0.5c2.4-5.9,6.6-9,12.9-8.2C29.7,10,32.8,13.6,34,19.1z"/>
	<path class="st0" d="M39.7,10.9c0.6,0,1.2-0.1,1.7,0c2,0.3,3.6,1.9,3.9,3.9c0.3,2.1-0.7,4-2.6,4.9c-0.5,0.3-1,0.2-1.2-0.3
		c-0.2-0.4,0-0.9,0.5-1.1c1.4-0.7,2.1-2.2,1.6-3.7c-0.4-1.4-1.8-2.3-3.4-2.2c-0.3,0-0.5,0.1-0.8,0.2c-0.9,0.4-1.3,0.1-1.4-0.9
		c-0.2-2-1.2-3.6-2.9-4.7c-2.5-1.6-5.7-1.2-7.8,0.9c-0.1,0.1-0.2,0.3-0.4,0.4c-0.3,0.3-0.8,0.3-1,0c-0.3-0.3-0.3-0.7-0.1-1
		c0.1-0.1,0.2-0.2,0.3-0.3C28.5,4.8,31.1,4,34,4.8c2.9,0.8,4.7,2.7,5.5,5.6C39.6,10.5,39.7,10.7,39.7,10.9z"/>
	<path class="st0" d="M11.7,39c-0.7,0-1.3,0-1.9,0c-0.6,0-0.9-0.3-0.9-0.8c0-0.5,0.3-0.8,0.9-0.8c0.6,0,1.2,0,1.8,0
		c-0.4-0.6-0.7-1.2-1-1.7c-0.2-0.3-0.2-0.7,0.1-0.9c0.2-0.2,0.5-0.3,0.8-0.2c0.2,0,0.4,0.2,0.5,0.4c0.3,0.5,0.6,1,0.9,1.6
		c0.4-0.6,0.7-1.2,1-1.7c0.2-0.4,0.5-0.5,0.9-0.4c0.4,0.1,0.6,0.4,0.6,0.7c0,0.2-0.1,0.4-0.2,0.6c-0.3,0.5-0.6,1-0.9,1.6
		c0.7,0,1.3,0,2,0c0.4,0,0.7,0.2,0.8,0.6c0.1,0.4-0.1,0.7-0.4,0.8C16.6,39,16.4,39,16.2,39c-0.5,0-1.1,0-1.7,0
		c0.3,0.6,0.6,1.1,0.9,1.6c0.3,0.5,0.2,1-0.2,1.2c-0.4,0.3-0.9,0.1-1.2-0.4c-0.3-0.5-0.6-1-0.9-1.5c-0.4,0.6-0.7,1.2-1,1.7
		c-0.3,0.6-1.1,0.6-1.3,0c-0.1-0.2-0.1-0.6,0-0.9C11,40.1,11.3,39.6,11.7,39z"/>
	<path class="st0" d="M22.9,32.3c0.3,0.6,0.6,1.1,0.9,1.6c0.3,0.5,0.2,0.9-0.2,1.2c-0.4,0.2-0.9,0.1-1.2-0.4
		c-0.1-0.1-0.2-0.3-0.3-0.4c-0.2-0.4-0.4-0.7-0.7-1.1c-0.3,0.6-0.6,1.1-1,1.6c-0.2,0.4-0.5,0.6-1,0.4c-0.5-0.2-0.7-0.7-0.4-1.2
		c0.3-0.5,0.6-1.1,1-1.7c-0.5,0-0.9,0-1.3,0c-0.2,0-0.4,0-0.6,0c-0.5,0-0.8-0.3-0.8-0.8c0-0.4,0.3-0.8,0.8-0.8c0.6,0,1.2,0,1.9,0
		c-0.2-0.4-0.4-0.6-0.5-0.9c-0.1-0.3-0.3-0.5-0.4-0.8c-0.2-0.4-0.1-0.9,0.2-1.1c0.4-0.2,0.9-0.1,1.1,0.3c0.3,0.5,0.6,1.1,1,1.7
		c0.2-0.4,0.4-0.8,0.6-1.1c0.1-0.2,0.2-0.3,0.3-0.5c0.3-0.5,0.7-0.6,1.1-0.4c0.4,0.2,0.5,0.7,0.2,1.2c-0.2,0.4-0.4,0.8-0.7,1.2
		c-0.1,0.1-0.1,0.3-0.2,0.5c0.7,0,1.2,0,1.8,0c0.6,0,0.9,0.3,0.9,0.8c0,0.5-0.4,0.8-0.9,0.8C24.2,32.3,23.6,32.3,22.9,32.3z"/>
	<path class="st0" d="M30,36.6c0.3-0.6,0.6-1.1,0.9-1.6c0.3-0.5,0.8-0.7,1.2-0.4c0.4,0.2,0.5,0.7,0.2,1.3c-0.3,0.5-0.5,1-0.9,1.5
		c0.5,0,1,0,1.4,0c0.2,0,0.4,0,0.6,0c0.5,0,0.8,0.4,0.8,0.8c0,0.4-0.3,0.7-0.8,0.8c-0.6,0-1.2,0-1.9,0c0.2,0.4,0.4,0.7,0.6,1
		c0.1,0.3,0.3,0.5,0.4,0.8c0.2,0.4,0,0.8-0.3,1c-0.4,0.2-0.8,0.1-1-0.3c-0.3-0.4-0.5-0.8-0.7-1.3c-0.1-0.1-0.2-0.3-0.3-0.4
		c-0.2,0.4-0.5,0.8-0.7,1.1c-0.5,0.9-0.9,1.1-1.4,0.8c-0.5-0.3-0.5-0.7,0-1.6c0.2-0.4,0.4-0.7,0.7-1.2c-0.3,0-0.6,0-0.8,0
		c-0.4,0-0.7,0-1.1,0c-0.6,0-0.9-0.3-0.9-0.8c0-0.5,0.3-0.8,0.9-0.8c0.6,0,1.2,0,1.9,0c-0.3-0.5-0.5-0.8-0.7-1.2
		c-0.1-0.2-0.2-0.3-0.3-0.5c-0.2-0.4-0.1-0.9,0.3-1.1c0.4-0.2,0.9-0.1,1.1,0.3C29.4,35.5,29.7,36,30,36.6z"/>
	<path class="st0" d="M20.6,12.5c0.4,0,0.7,0.2,0.8,0.6c0.1,0.4,0,0.7-0.4,0.9c-0.1,0-0.1,0.1-0.2,0.1c-1.3,0.4-2.4,1.1-3.4,2.1
		c-0.4,0.5-0.9,0.5-1.2,0.2c-0.4-0.3-0.3-0.8,0.1-1.3c1.1-1.2,2.4-2,4-2.5C20.3,12.6,20.5,12.6,20.6,12.5z"/>
</g>
</svg>
