<?xml version="1.0" encoding="utf-8"?>
<!-- Generator: Adobe Illustrator 27.3.1, SVG Export Plug-In . SVG Version: 6.00 Build 0)  -->
<svg version="1.1" id="Layer_1" xmlns="http://www.w3.org/2000/svg" xmlns:xlink="http://www.w3.org/1999/xlink" x="0px" y="0px"
	 viewBox="0 0 45.8 45.8" style="enable-background:new 0 0 45.8 45.8;" xml:space="preserve">
<style type="text/css">
	.st0{fill:#55738A;}
</style>
<g>
	<path class="st0" d="M40.5,12.6c0.5,0,1-0.1,1.5,0c1.7,0.3,3.1,1.8,3.4,3.6c0.3,1.9-0.6,3.7-2.3,4.5c-0.4,0.3-0.9,0.2-1-0.3
		c-0.2-0.4,0-0.8,0.4-1c1.2-0.6,1.8-2,1.4-3.4c-0.3-1.3-1.6-2.1-2.9-2c-0.3,0-0.4,0.1-0.7,0.2c-0.8,0.4-1.1,0.1-1.2-0.8
		c-0.2-1.9-1-3.3-2.5-4.4c-2.2-1.5-4.9-1.1-6.8,0.8c-0.1,0.1-0.2,0.3-0.3,0.4c-0.3,0.3-0.7,0.3-0.9,0c-0.3-0.3-0.3-0.6-0.1-0.9
		c0.1-0.1,0.2-0.2,0.3-0.3c2.1-2,4.3-2.8,6.8-2s4.1,2.5,4.8,5.2C40.4,12.2,40.5,12.4,40.5,12.6z"/>
	<path class="st0" d="M19.7,39c-0.6,0-1.2,0-1.8,0c-0.6,0-0.8-0.3-0.8-0.7c0-0.5,0.3-0.7,0.8-0.7s1.1,0,1.7,0
		C19.2,37,19,36.5,18.7,36c-0.2-0.3-0.2-0.6,0.1-0.8c0.2-0.2,0.5-0.3,0.7-0.2c0.2,0,0.4,0.2,0.5,0.4c0.3,0.5,0.6,0.9,0.8,1.4
		c0.4-0.5,0.6-1.1,0.9-1.5c0.2-0.4,0.5-0.5,0.8-0.4c0.4,0.1,0.6,0.4,0.6,0.6c0,0.2-0.1,0.4-0.2,0.5c-0.3,0.5-0.6,0.9-0.8,1.4
		c0.6,0,1.2,0,1.9,0c0.4,0,0.6,0.2,0.7,0.5c0.1,0.4-0.1,0.6-0.4,0.7C24.3,39,24.1,39,23.9,39c-0.5,0-1,0-1.6,0
		c0.3,0.5,0.6,1,0.8,1.4c0.3,0.5,0.2,0.9-0.2,1.1c-0.4,0.3-0.8,0.1-1.1-0.4c-0.3-0.5-0.6-0.9-0.8-1.4c-0.4,0.5-0.6,1.1-0.9,1.5
		c-0.3,0.5-1,0.5-1.2,0c-0.1-0.2-0.1-0.5,0-0.8C19.1,40,19.3,39.5,19.7,39z"/>
	<path class="st0" d="M26.5,30.1c0.3,0.5,0.6,1,0.8,1.4c0.3,0.5,0.2,0.8-0.2,1.1c-0.4,0.2-0.8,0.1-1.1-0.4c-0.1-0.1-0.2-0.3-0.3-0.4
		c-0.2-0.4-0.4-0.6-0.6-1c-0.3,0.5-0.6,1-0.9,1.4c-0.2,0.4-0.5,0.5-0.9,0.4s-0.6-0.6-0.4-1.1s0.6-1,0.9-1.5c-0.5,0-0.8,0-1.2,0
		c-0.2,0-0.4,0-0.6,0c-0.5,0-0.7-0.3-0.7-0.7c0-0.4,0.3-0.7,0.7-0.7c0.6,0,1.1,0,1.8,0c-0.2-0.4-0.4-0.5-0.5-0.8
		c-0.1-0.3-0.3-0.5-0.4-0.7c-0.2-0.4-0.1-0.8,0.2-1c0.4-0.2,0.8-0.1,1,0.3c0.3,0.5,0.6,1,0.9,1.5c0.2-0.4,0.4-0.7,0.6-1
		c0.1-0.2,0.2-0.3,0.3-0.5c0.3-0.5,0.6-0.5,1-0.4c0.4,0.2,0.5,0.6,0.2,1.1c-0.2,0.4-0.4,0.7-0.6,1.1c-0.1,0.1-0.1,0.3-0.2,0.5
		c0.6,0,1.1,0,1.7,0c0.6,0,0.8,0.3,0.8,0.7c0,0.5-0.4,0.7-0.8,0.7C27.7,30.1,27.1,30.1,26.5,30.1z"/>
	<path class="st0" d="M32.3,34.9c0.2-0.4,0.4-0.8,0.7-1.1c0.2-0.4,0.6-0.5,0.9-0.3c0.3,0.1,0.4,0.5,0.1,0.9
		c-0.2,0.4-0.4,0.7-0.7,1.1c0.4,0,0.7,0,1,0c0.1,0,0.3,0,0.4,0c0.4,0,0.6,0.3,0.6,0.6c0,0.3-0.2,0.5-0.6,0.6c-0.4,0-0.9,0-1.4,0
		c0.1,0.3,0.3,0.5,0.4,0.7c0.1,0.2,0.2,0.4,0.3,0.6c0.1,0.3,0,0.6-0.2,0.7c-0.3,0.1-0.6,0.1-0.7-0.2c-0.2-0.3-0.4-0.6-0.5-0.9
		c-0.1-0.1-0.1-0.2-0.2-0.3c-0.1,0.3-0.4,0.6-0.5,0.8c-0.4,0.6-0.7,0.8-1,0.6c-0.4-0.2-0.4-0.5,0-1.1c0.1-0.3,0.3-0.5,0.5-0.8
		c-0.2,0-0.4,0-0.6,0c-0.3,0-0.5,0-0.8,0c-0.4,0-0.7-0.2-0.7-0.6s0.2-0.6,0.7-0.6c0.4,0,0.9,0,1.4,0c-0.2-0.4-0.4-0.6-0.5-0.8
		c-0.1-0.1-0.1-0.2-0.2-0.4c-0.1-0.3-0.1-0.6,0.2-0.8c0.3-0.1,0.7-0.1,0.8,0.2C31.9,34.1,32.1,34.5,32.3,34.9z"/>
	<path class="st0" d="M21.9,21c-1.1-0.9-2.3-1.5-3.7-1.7c-2.3-0.4-4.5,0.8-5.5,2.9c-0.6,1.3-0.8,2.7-0.6,4.1c0.2,2,1.2,3.5,3,4.4
		c0.7,0.4,1.5,0.6,2.3,0.9c0.6,0.2,0.8,0.7,0.7,1.3c-0.1,0.5-0.7,0.8-1.2,0.6c-0.9-0.3-1.8-0.6-2.6-1c-1.3-0.7-2.4-1.6-3.1-2.9
		c-0.7-1.2-1-2.4-1-3.8c0-0.8,0.1-1.6,0.2-2.4c0-0.2,0-0.3-0.1-0.5c-1.6-2.1-2-4.5-1.2-7c1.2-3.7,5-5.6,8.4-5
		c1.9,0.4,3.4,1.2,4.6,2.7c0.1,0.1,0.2,0.1,0.3,0c2.7-1.7,5.6-2.2,8.7-1.3c3.8,1.1,6.2,3.6,7.2,7.4c0,0.2,0.1,0.2,0.3,0.3
		c0.6,0.2,1.2,0.4,1.8,0.7c1.8,0.9,3.1,2.3,3.6,4.2c0.3,1,0.3,2.1,0.1,3.2c-0.4,2.3-1.6,4-3.6,5.1c-0.9,0.5-1.9,0.8-2.9,0.8
		c-0.4,0-0.7-0.2-0.9-0.5c-0.2-0.3-0.2-0.7,0.1-1c0.2-0.3,0.5-0.4,0.9-0.5c0.6-0.1,1.2-0.2,1.8-0.5c2-1.1,3-3.3,2.7-5.5
		c-0.2-1.7-1.2-2.8-2.7-3.6c-0.8-0.4-1.6-0.6-2.5-0.8c-0.4-0.1-0.4-0.1-0.4-0.5c-0.2-1.4-0.6-2.8-1.5-3.9c-1.6-2.1-3.7-3.2-6.3-3.3
		c-2.9-0.1-5.2,0.9-7.1,3.1c-0.2,0.3-0.4,0.6-0.7,0.9c0.1,0.1,0.2,0.1,0.4,0.2c1,0.5,2,1.2,2.8,1.9c0.1,0.1,0.1,0.1,0,0.2
		c-0.4,0.4-0.8,0.9-1.2,1.3C22.4,21.5,22.1,21.2,21.9,21z M12.3,19.4c1.1-1.2,2.5-1.8,4-2c0.8-0.1,1.5-0.1,2.2,0.1
		c0.1,0,0.2,0,0.3-0.1c0.5-0.8,1-1.5,1.6-2.2c-1.7-2.4-5.2-3-7.6-1.3c-2.4,1.7-3,4.8-1.8,7.1C11.5,20.4,11.9,19.8,12.3,19.4z"/>
	<path class="st0" d="M0.4,17.2c0,0.1,0.1,0.1,0.1,0.2c0.1,0.5,0.4,0.7,0.9,0.7c1.1,0.1,2.2,0.1,3.3,0.2c0.5,0,0.9-0.3,1-0.7
		c0.1-0.4-0.2-0.8-0.6-1c-0.1,0-0.2,0-0.4-0.1c-1-0.1-2.1-0.1-3.1-0.2c-0.1,0-0.2,0-0.4,0c-0.3,0-0.5,0.2-0.7,0.5
		c0,0.1-0.1,0.1-0.1,0.2C0.4,17.1,0.4,17.1,0.4,17.2z"/>
	<path class="st0" d="M5.2,7.5c0.1,0.2,0.1,0.4,0.2,0.6C6.2,8.9,7,9.8,7.8,10.6C8,10.9,8.2,11,8.6,11c0.7-0.1,1-0.8,0.6-1.4
		C9,9.4,8.8,9.2,8.6,9C8,8.3,7.5,7.7,6.9,7C6.5,6.6,6.1,6.5,5.7,6.7C5.5,6.9,5.3,7.1,5.2,7.5z"/>
	<path class="st0" d="M16.8,5.7c0-0.6,0.1-1.1,0.1-1.7c0-0.5-0.3-0.9-0.8-0.9c-0.5,0-0.9,0.3-0.9,0.8C15.1,5,15,6.1,15,7.2
		c0,0.7,0.4,1.1,1,1c0.4-0.1,0.7-0.4,0.7-0.9C16.8,6.8,16.8,6.3,16.8,5.7C16.8,5.7,16.8,5.7,16.8,5.7z"/>
	<path class="st0" d="M22.3,10.6c0,0.2,0.1,0.5,0.4,0.6c0.3,0.2,0.6,0.2,0.9,0c0.1-0.1,0.2-0.1,0.3-0.2c0.8-0.7,1.5-1.3,2.3-2
		c0.1-0.1,0.1-0.1,0.2-0.2c0.3-0.4,0.4-0.9,0.1-1.2c-0.3-0.4-0.8-0.4-1.2-0.1c-0.3,0.2-0.5,0.4-0.8,0.7c-0.6,0.5-1.1,1-1.6,1.5
		C22.6,9.9,22.3,10.1,22.3,10.6z"/>
	<path class="st0" d="M7.9,22.8c0-0.3-0.2-0.6-0.5-0.8c-0.3-0.2-0.6-0.1-0.9,0.1c-0.9,0.8-1.8,1.6-2.6,2.4c-0.4,0.4-0.4,0.9,0,1.2
		c0.3,0.4,0.8,0.4,1.2,0c0.8-0.7,1.6-1.5,2.5-2.2C7.7,23.4,7.9,23.2,7.9,22.8z"/>
</g>
</svg>
