<?xml version="1.0" encoding="utf-8"?>
<!-- Generator: Adobe Illustrator 27.3.1, SVG Export Plug-In . SVG Version: 6.00 Build 0)  -->
<svg version="1.1" id="Layer_1" xmlns="http://www.w3.org/2000/svg" xmlns:xlink="http://www.w3.org/1999/xlink" x="0px" y="0px"
	 viewBox="0 0 45.8 45.8" style="enable-background:new 0 0 45.8 45.8;" xml:space="preserve">
<style type="text/css">
	.st0{fill:#55738A;}
</style>
<g id="u7B2FZ_00000090264739840309977990000004819008872494743207_">
	<g>
		<path class="st0" d="M32.9,30.6c-0.2-0.5-0.3-1-0.5-1.6c0.9,0,1.8,0,2.7,0c1,0,2,0,3-0.3c5-1.5,5.4-6.9,3.4-9.6
			c-0.8-1.1-1.9-1.7-3.2-2.2c-0.5-0.2-0.6-0.4-0.5-0.9c0.3-1.6,0.3-3.2-0.2-4.8c-1-2.8-3.9-4.7-6.9-4.4c-0.6,0.1-1.1,0.1-1.6,0.3
			c-0.5,0.1-1,0.4-1.5,0.5c-0.7-0.8-1.3-1.6-2-2.3c-3.8-4-10.2-3.2-13.2-0.3c-2,1.9-2.9,4.2-2.8,6.9c0,0.5,0,1,0.1,1.6
			c-0.4,0.1-0.8,0.3-1.3,0.4c-3.9,1.4-5.3,4.5-5.1,7.9c0.3,3.7,3.1,6.5,6.7,7c1,0.1,2,0.1,3.1,0.1c0.2,0,0.4,0,0.7,0
			c-0.2,0.6-0.4,1.1-0.5,1.6C9.8,31,6.8,30.4,4.3,28c-4.4-4.1-3.9-12.6,3-15.3c0.4-0.1,0.5-0.3,0.5-0.7c0-5.6,3.5-9.8,9-10.7
			c4.4-0.7,8,0.6,10.8,4.1c0.3,0.4,0.6,0.5,1,0.3c3.7-1.1,7.6,0.3,9.6,3.4c1.2,1.9,1.6,4.1,1.3,6.3c0,0.4,0.1,0.5,0.4,0.6
			c2,1,3.4,2.4,4,4.6c1.3,4.8-1.8,9.4-6.7,10C35.8,30.8,34.4,30.6,32.9,30.6z"/>
		<path class="st0" d="M29,29.4c-2,1.4-4,2.8-6,4.2c-1.3-0.9-2.5-1.8-3.8-2.7c-0.6-0.4-1.3-0.9-1.9-1.3C17,29.4,17,29.3,17.1,29
			c0.7-2.1,1.4-4.1,2.1-6.2c0.1-0.3,0.2-0.3,0.5-0.3c2.2,0,4.5,0,6.7,0c0.2,0,0.4,0.1,0.4,0.3c0.7,2.1,1.4,4.3,2.2,6.4
			C28.9,29.2,28.9,29.3,29,29.4z M27,28.7c-0.5-1.5-1-2.9-1.5-4.3c0-0.1-0.3-0.2-0.4-0.2c-1.5,0-2.9,0-4.4,0c-0.3,0-0.4,0.1-0.5,0.3
			c-0.4,1.3-0.9,2.6-1.3,4c0,0.1,0,0.4,0.1,0.4c1.2,0.9,2.4,1.7,3.6,2.5c0.1,0.1,0.3,0.1,0.4,0C24.4,30.5,25.7,29.6,27,28.7z"/>
		<path class="st0" d="M19.1,40.9c-1.9,1.3-3.8,2.7-5.8,4c-0.1,0.1-0.3,0.1-0.4,0C11,43.6,9.2,42.3,7.3,41c-0.1-0.1-0.2-0.3-0.1-0.4
			c0.7-2.1,1.4-4.2,2.1-6.3c0-0.1,0.3-0.3,0.4-0.3c2.2,0,4.5,0,6.7,0c0.1,0,0.4,0.2,0.4,0.3c0.7,2.1,1.5,4.3,2.2,6.4
			C19.1,40.7,19.1,40.8,19.1,40.9z M17.2,40.2c-0.5-1.5-1-2.9-1.5-4.3c0-0.1-0.3-0.3-0.4-0.3c-1.5,0-2.9,0-4.4,0
			c-0.2,0-0.4,0.1-0.4,0.3c-0.4,1.3-0.9,2.7-1.3,4c0,0.1,0,0.4,0.1,0.4c1.2,0.9,2.4,1.7,3.6,2.5c0.1,0.1,0.3,0.1,0.4,0
			C14.6,42,15.9,41.1,17.2,40.2z"/>
		<path class="st0" d="M26.6,40.8c0.6-1.8,1.2-3.6,1.8-5.4c0.1-0.4,0.2-0.8,0.4-1.2c0.1-0.1,0.3-0.3,0.4-0.3c2.3,0,4.5,0,6.8,0
			c0.1,0,0.4,0.2,0.4,0.3c0.7,2.1,1.4,4.2,2.1,6.2c0.1,0.2,0,0.4-0.2,0.5c-1.8,1.3-3.7,2.6-5.5,3.8c-0.1,0.1-0.3,0.1-0.4,0.1
			C30.5,43.6,28.5,42.2,26.6,40.8z M28.5,40.2c1.4,1,2.7,1.9,4.1,2.9c1.3-0.9,2.6-1.8,3.9-2.7c0.1-0.1,0.1-0.2,0.1-0.3
			c-0.5-1.5-1-2.9-1.5-4.4c-1.6,0-3.2,0-4.8,0c-0.1,0-0.3,0.2-0.3,0.3C29.5,37.3,29,38.7,28.5,40.2z"/>
	</g>
</g>
</svg>
