<?xml version="1.0" encoding="utf-8"?>
<!-- Generator: Adobe Illustrator 27.3.1, SVG Export Plug-In . SVG Version: 6.00 Build 0)  -->
<svg version="1.1" id="Layer_1" xmlns="http://www.w3.org/2000/svg" xmlns:xlink="http://www.w3.org/1999/xlink" x="0px" y="0px"
	 viewBox="0 0 45.8 45.8" style="enable-background:new 0 0 45.8 45.8;" xml:space="preserve">
<style type="text/css">
	.st0{fill:#55738A;}
</style>
<g id="Pq2aof.tif">
</g>
<g>
	<path class="st0" d="M45.3,17.3c-0.1,0.6-0.2,1.3-0.4,1.8c-1.2,3.5-4.3,5.7-8.1,5.7c-1.6,0-3.2,0-4.7,0c-0.2,0.5-0.3,0.9-0.5,1.4
		c-0.7,1.7-1.9,3-3.5,3.9c-0.4,0.2-0.5,0.5-0.5,0.9c0,0.9,0,1.8,0,2.7c0,0.2,0,0.3,0,0.5c-0.1,0.5-0.4,0.8-0.9,0.8
		c-0.5,0-0.8-0.3-0.8-0.8c0-0.8,0-1.7,0-2.5c0-0.2,0-0.3,0-0.6c-0.3,0-0.6,0.1-0.9,0.1c-0.7,0-1.3,0.1-2,0.1c-3.2,0-6.4,0-9.6,0
		c-0.2,0-0.3,0-0.6,0c0,0.8,0,1.6,0,2.4c0,0.2,0,0.4,0,0.5c-0.1,0.4-0.4,0.7-0.8,0.8c-0.5,0-0.8-0.2-0.9-0.7
		c-0.1-0.3-0.1-0.6-0.1-0.9c0-0.7,0-1.4,0-2C10,31.2,9.2,31,8.4,30.8C3.2,29,0,23.8,0.9,18.5c0.8-4.8,4.6-8.5,9.4-9.2
		c1.3-0.2,2.6-0.2,3.9,0.1c0.3,0.1,0.4,0,0.6-0.3c1.6-3.4,4.3-5.6,8.1-6.3c4-0.7,7.4,0.5,10.1,3.4c0.6,0.6,1,1.3,1.5,2
		c0.2,0.2,0.3,0.3,0.6,0.2c4.1-1.1,8.4,1.4,9.8,5.4c0.2,0.6,0.3,1.2,0.5,1.8C45.3,16.2,45.3,16.7,45.3,17.3z M17.7,29.5
		C17.7,29.5,17.7,29.5,17.7,29.5c2.1,0,4.2,0,6.3,0c4-0.1,6.9-3.8,6.2-7.7c-0.7-3.9-4.7-6.2-8.5-5c-0.9,0.3-1.2,0.2-1.6-0.6
		c-2.4-4.8-7.8-6.7-12.6-4.3c-4,2-6.1,7-4.5,11.2c1.4,3.9,4.8,6.3,9,6.3C13.9,29.5,15.8,29.5,17.7,29.5z M32.3,23c0,0,0.1,0,0.1,0
		c1.6,0,3.1,0,4.7,0c3.4-0.1,6-2.5,6.4-5.9c0.4-3.6-2.5-7-6.1-7.2c-0.9,0-1.8,0.1-2.6,0.4c-0.7,0.2-1.1,0.1-1.4-0.6
		c0-0.1-0.1-0.2-0.1-0.2c-3-6-11.1-7-15.4-1.9c-0.6,0.7-1.1,1.5-1.4,2.4c0.1,0,0.1,0.1,0.2,0.1c2.1,1,3.8,2.5,4.9,4.6
		c0.2,0.3,0.3,0.2,0.5,0.2c1.1-0.2,2.2-0.2,3.3-0.1c3,0.4,5.9,3,6.6,6C32.1,21.5,32.1,22.2,32.3,23z"/>
	<path class="st0" d="M34.1,44.3c-1.5,0-2.8-1.2-2.8-2.8c0-1.5,1.3-2.8,2.8-2.8c1.5,0,2.8,1.3,2.8,2.8
		C36.8,43.1,35.6,44.4,34.1,44.3z M34.1,42.5c0.5,0,1-0.4,1-1c0-0.5-0.4-0.9-0.9-1c-0.5,0-1,0.4-1,1C33.1,42.1,33.5,42.5,34.1,42.5z
		"/>
	<path class="st0" d="M9.1,38.8c0-1.5,1.3-2.8,2.8-2.8c1.5,0,2.8,1.3,2.8,2.8c0,1.5-1.3,2.8-2.8,2.8C10.3,41.6,9.1,40.3,9.1,38.8z
		 M11.8,39.7c0.5,0,1-0.4,1-1c0-0.5-0.5-0.9-1-0.9c-0.5,0-1,0.4-1,1C10.9,39.3,11.3,39.7,11.8,39.7z"/>
	<path class="st0" d="M26.6,41.6c-1.5,0-2.7-1.2-2.7-2.8c0-1.5,1.3-2.8,2.7-2.8c1.5,0,2.8,1.3,2.8,2.8
		C29.4,40.3,28.2,41.6,26.6,41.6z M26.7,39.7c0.5,0,0.9-0.4,0.9-0.9c0-0.5-0.4-1-0.9-1c-0.5,0-0.9,0.5-0.9,1
		C25.8,39.3,26.2,39.7,26.7,39.7z"/>
	<path class="st0" d="M22,41.6c0,1.5-1.2,2.8-2.7,2.8c-1.5,0-2.8-1.3-2.8-2.8c0-1.5,1.3-2.8,2.8-2.8C20.8,38.8,22,40,22,41.6z
		 M20.2,41.5c0-0.5-0.4-0.9-0.9-0.9c-0.5,0-0.9,0.4-0.9,1c0,0.5,0.4,1,1,0.9C19.8,42.5,20.2,42.1,20.2,41.5z"/>
	<path class="st0" d="M20.1,35.1c0,0.6,0,1.2,0,1.7c0,0.6-0.4,1-0.9,1c-0.5,0-0.9-0.4-0.9-1c0-1.2,0-2.3,0-3.5c0-0.6,0.4-1,0.9-1
		c0.5,0,0.9,0.4,0.9,1C20.2,33.9,20.1,34.5,20.1,35.1z"/>
	<path class="st0" d="M33.2,35c0-0.6,0-1.1,0-1.7c0-0.6,0.4-1,0.9-1c0.5,0,0.9,0.4,0.9,1c0,1.1,0,2.3,0,3.4c0,0.7-0.4,1-0.9,1
		c-0.5,0-0.9-0.4-0.9-1C33.2,36.2,33.2,35.6,33.2,35z"/>
</g>
</svg>
