<?xml version="1.0" encoding="utf-8"?>
<!-- Generator: Adobe Illustrator 27.3.1, SVG Export Plug-In . SVG Version: 6.00 Build 0)  -->
<svg version="1.1" id="Layer_1" xmlns="http://www.w3.org/2000/svg" xmlns:xlink="http://www.w3.org/1999/xlink" x="0px" y="0px"
	 viewBox="0 0 45.8 45.8" style="enable-background:new 0 0 45.8 45.8;" xml:space="preserve">
<style type="text/css">
	.st0{fill:#55738A;}
</style>
<g>
	<g id="gQAngi.tif">
		<g>
			<path class="st0" d="M12.2,41.2c-1.7,0-3.1-1.4-3.1-3.1c0-1.7,1.4-3.1,3.1-3.1c1.7,0,3.1,1.4,3.1,3.1
				C15.3,39.9,13.9,41.2,12.2,41.2z M10.5,38.1c0,1,0.8,1.8,1.8,1.8c1,0,1.8-0.8,1.8-1.8c0-1-0.8-1.8-1.8-1.8
				C11.3,36.4,10.5,37.2,10.5,38.1z"/>
			<path class="st0" d="M19,37.4c-0.6,0-0.9-0.5-0.7-0.9c0.1-0.1,0.2-0.3,0.3-0.4c2.2-2.8,4.4-5.5,6.6-8.3c0.1-0.1,0.2-0.3,0.3-0.4
				c0.3-0.2,0.6-0.3,0.8,0c0.3,0.2,0.3,0.5,0.2,0.8c0,0.1-0.1,0.2-0.2,0.2c-2.2,2.8-4.5,5.7-6.8,8.5C19.4,37.2,19.2,37.3,19,37.4z"
				/>
			<path class="st0" d="M3.4,37.4c-1.4,0-2.5-1.2-2.5-2.6c0-1.4,1.2-2.6,2.5-2.6c1.4,0,2.5,1.2,2.5,2.6C5.9,36.2,4.8,37.4,3.4,37.4z
				 M2.1,34.8c0,0.7,0.5,1.2,1.2,1.2c0.7,0,1.2-0.5,1.2-1.2c0-0.7-0.5-1.3-1.2-1.3C2.7,33.6,2.1,34.1,2.1,34.8z"/>
			<path class="st0" d="M30.1,40.7c-1.4,0-2.5-1.2-2.5-2.6c0-1.4,1.2-2.5,2.6-2.5c1.4,0,2.5,1.2,2.5,2.6
				C32.7,39.6,31.5,40.7,30.1,40.7z M31.4,38.2c0-0.7-0.5-1.2-1.2-1.3c-0.7,0-1.3,0.6-1.3,1.3c0,0.7,0.6,1.2,1.2,1.2
				C30.8,39.4,31.4,38.8,31.4,38.2z"/>
			<path class="st0" d="M29,32.5c-0.1,0.2-0.2,0.4-0.3,0.6c-2.2,2.8-4.4,5.5-6.6,8.3c-0.3,0.4-0.7,0.4-1,0.2c-0.3-0.2-0.3-0.6,0-1
				c2.2-2.8,4.4-5.5,6.6-8.3c0.2-0.3,0.5-0.4,0.8-0.3C28.7,32.1,28.8,32.3,29,32.5z"/>
			<path class="st0" d="M30.6,31.1c-1.1,0-2-0.9-2-2c0-1.1,0.9-2.1,2-2.1c1.1,0,2,0.9,2,2C32.6,30.1,31.7,31,30.6,31.1z M31.3,29
				c0-0.4-0.3-0.7-0.7-0.7c-0.4,0-0.7,0.3-0.7,0.7c0,0.4,0.3,0.7,0.7,0.7C31,29.8,31.3,29.4,31.3,29z"/>
			<path class="st0" d="M15.5,34.2c-0.2-0.2-0.5-0.3-0.5-0.5c-0.1-0.2,0-0.6,0.1-0.7c0.7-0.9,1.4-1.8,2.2-2.8c0.5-0.6,1-1.2,1.5-1.9
				c0.3-0.4,0.7-0.5,1-0.2c0.3,0.3,0.3,0.6,0,1c-1.2,1.5-2.4,3-3.6,4.5C15.9,33.9,15.7,34,15.5,34.2z"/>
			<path class="st0" d="M9.4,34.2C9.2,34,9,33.9,8.9,33.8c-0.1-0.2-0.1-0.5,0-0.7c0.9-1.2,1.9-2.4,2.8-3.6c0.2-0.3,0.6-0.3,0.9-0.1
				c0.3,0.2,0.3,0.6,0.1,0.9c-0.9,1.2-1.9,2.4-2.8,3.6C9.8,34,9.6,34,9.4,34.2z"/>
			<path class="st0" d="M33.6,34.2c-0.2-0.2-0.5-0.3-0.5-0.4c-0.1-0.2,0-0.6,0.1-0.7c0.5-0.7,1.1-1.4,1.7-2.2
				c0.3-0.4,0.6-0.7,0.8-1.1c0.3-0.4,0.7-0.4,1-0.2c0.3,0.2,0.3,0.6,0,1c-0.8,1.1-1.7,2.1-2.5,3.2C34.1,33.9,33.8,34,33.6,34.2z"/>
			<path class="st0" d="M5.7,31.1c-0.2-0.2-0.5-0.3-0.5-0.4c-0.1-0.2,0-0.5,0.1-0.7c0.4-0.6,0.9-1.1,1.3-1.7
				c0.2-0.3,0.4-0.6,0.7-0.9c0.3-0.3,0.6-0.3,0.9-0.1c0.3,0.2,0.3,0.6,0.1,0.9c-0.7,0.9-1.3,1.7-2,2.5C6.1,31,6,31,5.7,31.1z"/>
		</g>
	</g>
	<path class="st0" d="M45.3,19.6c-0.1,0.5-0.2,0.9-0.3,1.4c-0.9,3.1-3.6,5.2-6.8,5.2c-10.1,0-20.3,0-30.4,0c-2.8,0-5.1-2-5.5-4.7
		C1.8,18.6,3.3,16,6,15.1c0.3-0.1,0.3-0.2,0.3-0.5c0.1-3.5,2.3-6.1,5.7-6.7c1.6-0.3,3.2,0,4.6,0.8c0.1,0.1,0.2,0.1,0.2,0.1
		c0.8-0.7,1.6-1.5,2.4-2.1c1.6-1.2,3.4-1.8,5.3-1.9c0.1,0,0.2,0,0.3-0.1c0.3,0,0.6,0,0.8,0c0.1,0,0.2,0.1,0.4,0.1
		c3.8,0.3,6.7,2.2,8.6,5.5c0.3,0.5,0.5,1.1,0.8,1.7c0.1,0,0.3-0.1,0.4-0.1c3.6-1.1,7.3,0.7,8.7,4.2c0.3,0.6,0.4,1.3,0.6,2
		C45.3,18.6,45.3,19.1,45.3,19.6z M22.9,24.8c5,0,10,0,14.9,0c3.4,0,6-2.5,6.1-5.8c0.1-4.1-4-7.1-7.8-5.8c-0.3,0.1-0.3,0.2-0.3,0.5
		c0.1,0.4,0.1,0.8,0.1,1.3c-0.1,1-0.2,2-0.4,2.9c-0.1,0.4-0.4,0.6-0.8,0.5c-0.3-0.1-0.5-0.4-0.5-0.8c0-0.1,0-0.2,0.1-0.2
		c0.3-1.4,0.5-2.9,0-4.3c-1.1-3.8-3.6-6.2-7.5-6.8c-3.7-0.6-6.8,0.7-9.1,3.7c-0.5,0.7-0.7,0.7-1.4,0.2c-1.9-1.3-3.9-1.4-6-0.3
		c-2,1.1-2.9,2.9-2.9,5.3c0,0.9,0,1-0.9,1.2c-2.3,0.5-3.7,2.9-3.2,5.2C4,23.5,5.8,24.8,8,24.8C13,24.8,18,24.8,22.9,24.8z"/>
</g>
</svg>
