<?xml version="1.0" encoding="utf-8"?>
<!-- Generator: Adobe Illustrator 27.3.1, SVG Export Plug-In . SVG Version: 6.00 Build 0)  -->
<svg version="1.1" id="Layer_1" xmlns="http://www.w3.org/2000/svg" xmlns:xlink="http://www.w3.org/1999/xlink" x="0px" y="0px"
	 viewBox="0 0 45.8 45.8" style="enable-background:new 0 0 45.8 45.8;" xml:space="preserve">
<style type="text/css">
	.st0{fill:#55738A;}
</style>
<g>
	<g id="_x31_1NA0e.tif">
		<g>
			<path class="st0" d="M36.5,40.1c0.2,0,0.4-0.1,0.5-0.2c0.3-0.2,0.3-0.5,0.2-0.7c-0.5-1.8-1-3.6-1.4-5.4c-0.2-0.5-0.3-1-0.5-1.5
				c-0.1-0.3-0.5-0.6-0.9-0.5s-0.6,0.4-0.5,0.8s0.2,0.8,0.4,1.1c0.5,1.9,1.1,3.8,1.6,5.7C35.8,40,35.9,40.1,36.5,40.1z"/>
			<path class="st0" d="M14.6,40.4c0,0,0.1,0,0.1-0.1c-0.1,0-0.2,0-0.3-0.1c-0.3-0.1-0.4-0.3-0.5-0.5c-0.1-0.4-0.3-0.9-0.4-1.3
				c-0.6-2-1.2-4-1.7-5.9c-0.1-0.4,0.1-0.9,0.7-0.9c0.4-0.1,0.8,0.2,0.9,0.5c0.1,0.3,0.2,0.7,0.3,1c0.5,1.6,0.9,3.2,1.4,4.7
				c0.1,0.5,0.3,1,0.4,1.6c0.1,0.4-0.2,0.8-0.7,0.9c0,0,0,0,0.1,0.1C14.9,40.4,14.8,40.4,14.6,40.4z"/>
			<path class="st0" d="M22,41.2C22,41.2,22.1,41.2,22,41.2c-0.2-0.1-0.4-0.2-0.4-0.3c-0.1-0.1-0.2-0.2-0.2-0.3
				c-0.6-2.2-1.2-4.3-1.8-6.5c-0.1-0.2-0.1-0.3-0.1-0.6c0.1-0.3,0.4-0.5,0.7-0.5s0.6,0.2,0.7,0.5c0.1,0.4,0.3,0.8,0.4,1.2
				c0.5,1.8,1,3.7,1.5,5.5c0.1,0.3,0.1,0.6-0.2,0.7c-0.1,0.1-0.3,0.2-0.4,0.2c0,0,0.1,0,0.1,0.1C22.2,41.2,22.1,41.2,22,41.2z"/>
			<path class="st0" d="M29.7,40.4L29.7,40.4c-0.2-0.1-0.3-0.2-0.4-0.3c-0.1-0.1-0.1-0.2-0.2-0.3c-0.5-1.7-0.9-3.5-1.5-5.3
				c-0.1-0.4-0.3-0.9-0.3-1.3c-0.2-0.5,0.3-0.9,0.7-0.9c0.3,0,0.6,0.2,0.7,0.5c0.2,0.6,0.3,1.1,0.4,1.7c0.4,1.7,0.9,3.3,1.4,5
				c0.1,0.3-0.1,0.6-0.3,0.8c-0.1,0-0.2,0-0.3,0.1h0.1C29.9,40.4,29.8,40.4,29.7,40.4z"/>
		</g>
	</g>
	<path class="st0" d="M44.9,15.8c-1.2-2.4-3.2-3.7-6-3.8c-0.4,0-0.7,0.1-1.1,0.1c-0.1,0-0.2,0-0.2-0.1c-0.1-0.1-0.1-0.3-0.2-0.4
		c-0.9-1.8-2.3-3.3-4.1-4.2c-1.2-0.7-2.6-1-4-1c-0.6,0-1.3,0-1.9,0.2c-2.4,0.6-4.2,1.9-5.5,3.9c-0.1,0.1-0.5,0.7-0.4,0.7
		c-0.4,0-1.4-0.6-1.6-0.7c-0.6-0.2-1.3-0.4-2-0.5c-0.8-0.1-1.6,0-2.4,0.1c-1.3,0.2-2.4,0.6-3.5,1.3c-1.1,0.7-2,1.6-2.7,2.7
		c0,0.1-0.1,0.1-0.1,0.1c-0.7-0.1-1.3-0.1-2,0c-1.4,0.2-2.6,0.7-3.7,1.5c-2.3,1.8-3.4,4.7-2.7,7.6C1.5,26.6,4.5,29,8,29h3.1v-1.7
		H8.2c-0.8,0-1.6-0.1-2.3-0.4c-2.1-0.8-3.4-2.3-3.7-4.5c-0.5-2.9,1.4-5.7,4.3-6.4c0.7-0.2,1.4-0.2,2.2-0.1c0.2,0,0.4,0.1,0.6,0.1
		c0.4,0.1,0.7-0.1,0.9-0.4c0.2-0.4,0.4-0.8,0.7-1.1c1.2-1.6,2.7-2.5,4.6-2.8c2.5-0.4,4.7,0.4,6.5,2.3c0.8,0.8,1.3,1.8,1.6,2.8
		c0.2,0.5,0.6,0.8,1.2,0.6c0.9-0.3,1.8-0.2,2.7,0c1.8,0.5,3,1.7,3.5,3.4c0.5,1.6,0.2,3.1-0.8,4.5c-0.6,0.8-1.4,1.3-2.3,1.7
		c-0.5,0.2-1.1,0.3-1.7,0.3h-5.5V29H27c1.3-0.2,2.5-0.7,3.6-1.6c0.6-0.5,1.1-1.1,1.5-1.8c0-0.1,0.1-0.1,0.2-0.1h3.4
		c0.9,0,1.8,0,2.7-0.3c0.5,0,1,0,1.5-0.1c1.8-0.3,3.2-1.2,4.3-2.6c0.9-1.1,1.4-2.3,1.3-3.7v-1.1C45.4,17.1,45.2,16.4,44.9,15.8z
		 M42.5,22.1c-0.7,0.8-1.6,1.3-2.6,1.6c-0.4,0.1-0.8,0.1-1.2,0.1h-5.9c0.1-0.4,0.1-0.7,0.1-1c0.1-0.7,0-1.4-0.2-2.1
		c-0.7-2.3-2.2-3.9-4.5-4.7c-1-0.3-2.1-0.4-3.1-0.2c-0.1,0-0.2,0-0.2-0.1c-0.5-1.1-1.1-2.1-2-3l-0.3-0.3c0.5-0.9,1-1.7,1.8-2.4
		c1-0.9,2.2-1.5,3.5-1.7c1-0.2,2-0.1,3,0.1c1.6,0.3,2.9,1.2,3.9,2.5c0.5,0.7,0.9,1.5,1.2,2.4c0.1,0.1,0.1,0.1,0.1,0.2
		c0.2,0.4,0.6,0.6,1.1,0.5c0.5-0.1,1.1-0.2,1.6-0.2c2.6,0.1,4.4,1.9,4.8,4C43.9,19.4,43.6,20.9,42.5,22.1z"/>
</g>
<path class="st0" d="M17.3,27.5c0.3,0.5,0.6,1,0.8,1.4c0.3,0.5,0.2,0.8-0.2,1.1c-0.4,0.2-0.8,0.1-1.1-0.4c-0.1-0.1-0.2-0.3-0.3-0.4
	c-0.2-0.4-0.4-0.6-0.6-1c-0.3,0.5-0.6,1-0.9,1.4c-0.2,0.4-0.5,0.5-0.9,0.4c-0.5-0.2-0.6-0.6-0.4-1.1c0.3-0.5,0.6-1,0.9-1.5
	c-0.5,0-0.8,0-1.2,0c-0.2,0-0.4,0-0.6,0c-0.5,0-0.7-0.3-0.7-0.7c0-0.4,0.3-0.7,0.7-0.7c0.6,0,1.1,0,1.8,0c-0.2-0.4-0.4-0.5-0.5-0.8
	c-0.1-0.3-0.3-0.5-0.4-0.7c-0.2-0.4-0.1-0.8,0.2-1c0.4-0.2,0.8-0.1,1,0.3c0.3,0.5,0.6,1,0.9,1.5c0.2-0.4,0.4-0.7,0.6-1
	c0.1-0.2,0.2-0.3,0.3-0.5c0.3-0.5,0.6-0.5,1-0.4c0.4,0.2,0.5,0.6,0.2,1.1c-0.2,0.4-0.4,0.7-0.6,1.1c-0.1,0.1-0.1,0.3-0.2,0.5
	c0.6,0,1.1,0,1.7,0c0.6,0,0.8,0.3,0.8,0.7c0,0.5-0.4,0.7-0.8,0.7C18.5,27.5,17.9,27.5,17.3,27.5z"/>
<path class="st0" d="M8.2,33.3c0.2,0.3,0.4,0.6,0.5,0.9s0.1,0.5-0.1,0.7c-0.2,0.1-0.5,0.1-0.7-0.2c-0.1-0.1-0.1-0.2-0.2-0.2
	c-0.1-0.2-0.2-0.4-0.4-0.6c-0.2,0.3-0.4,0.6-0.6,0.9c-0.1,0.2-0.3,0.3-0.6,0.2c-0.3-0.1-0.4-0.4-0.2-0.7c0.2-0.3,0.4-0.6,0.6-1
	c-0.3,0-0.5,0-0.8,0c-0.1,0-0.2,0-0.4,0c-0.3,0-0.5-0.2-0.5-0.5c0-0.2,0.2-0.5,0.5-0.5c0.4,0,0.7,0,1.1,0c-0.1-0.2-0.2-0.3-0.3-0.5
	C6.2,31.7,6,31.6,6,31.4c-0.1-0.2-0.1-0.5,0.1-0.6c0.2-0.1,0.5-0.1,0.6,0.2c0.2,0.3,0.4,0.6,0.6,1c0.1-0.2,0.2-0.5,0.4-0.6
	c0.1-0.1,0.1-0.2,0.2-0.3c0.2-0.3,0.4-0.3,0.6-0.2c0.2,0.1,0.3,0.4,0.1,0.7c-0.1,0.2-0.2,0.5-0.4,0.7c-0.1,0.1-0.1,0.2-0.1,0.3
	c0.4,0,0.7,0,1.1,0c0.4,0,0.5,0.2,0.5,0.5c0,0.3-0.2,0.5-0.5,0.5C9,33.3,8.6,33.3,8.2,33.3z"/>
<path class="st0" d="M24.1,31.9c0.1,0.2,0.2,0.4,0.3,0.6c0.1,0.2,0.1,0.3-0.1,0.4c-0.1,0.1-0.3,0-0.4-0.1c0,0-0.1-0.1-0.1-0.1
	c-0.1-0.1-0.1-0.3-0.3-0.4c-0.1,0.2-0.2,0.4-0.4,0.6c-0.1,0.1-0.2,0.2-0.4,0.1c-0.2-0.1-0.3-0.3-0.1-0.4c0.1-0.2,0.2-0.4,0.4-0.6
	c-0.2,0-0.3,0-0.5,0c-0.1,0-0.1,0-0.2,0c-0.2,0-0.3-0.1-0.3-0.3c0-0.1,0.1-0.3,0.3-0.3c0.2,0,0.4,0,0.7,0c-0.1-0.1-0.1-0.2-0.2-0.3
	c0-0.1-0.1-0.2-0.1-0.3c-0.1-0.1,0-0.3,0.1-0.4c0.1-0.1,0.3,0,0.4,0.1c0.1,0.2,0.2,0.4,0.4,0.6c0.1-0.1,0.1-0.3,0.2-0.4
	c0-0.1,0.1-0.1,0.1-0.2c0.1-0.2,0.3-0.2,0.4-0.1c0.1,0.1,0.2,0.3,0.1,0.4c-0.1,0.1-0.1,0.3-0.3,0.4c0,0,0,0.1-0.1,0.2
	c0.3,0,0.4,0,0.7,0s0.3,0.1,0.3,0.3s-0.1,0.3-0.3,0.3C24.6,31.9,24.3,31.9,24.1,31.9z"/>
<path class="st0" d="M34.5,29.3c0.2,0.3,0.4,0.6,0.5,0.9s0.1,0.5-0.1,0.7c-0.2,0.1-0.5,0.1-0.7-0.2c-0.1-0.1-0.1-0.2-0.2-0.2
	c-0.1-0.2-0.2-0.4-0.4-0.6c-0.2,0.3-0.4,0.6-0.6,0.9c-0.1,0.2-0.3,0.3-0.6,0.2c-0.3-0.1-0.4-0.4-0.2-0.7c0.2-0.3,0.4-0.6,0.6-1
	c-0.3,0-0.5,0-0.8,0c-0.1,0-0.2,0-0.4,0c-0.3,0-0.5-0.2-0.5-0.5c0-0.2,0.2-0.5,0.5-0.5c0.4,0,0.7,0,1.1,0c-0.1-0.2-0.2-0.3-0.3-0.5
	c-0.1-0.2-0.2-0.3-0.2-0.5c-0.1-0.2-0.1-0.5,0.1-0.6c0.2-0.1,0.5-0.1,0.6,0.2c0.2,0.3,0.4,0.6,0.6,1c0.1-0.2,0.2-0.5,0.4-0.6
	c0.1-0.1,0.1-0.2,0.2-0.3c0.2-0.3,0.4-0.3,0.6-0.2c0.2,0.1,0.3,0.4,0.1,0.7c-0.1,0.2-0.2,0.5-0.4,0.7c-0.1,0.1-0.1,0.2-0.1,0.3
	c0.4,0,0.7,0,1.1,0s0.5,0.2,0.5,0.5s-0.2,0.5-0.5,0.5C35.2,29.3,34.9,29.3,34.5,29.3z"/>
</svg>
