<?xml version="1.0" encoding="utf-8"?>
<!-- Generator: Adobe Illustrator 27.3.1, SVG Export Plug-In . SVG Version: 6.00 Build 0)  -->
<svg version="1.1" id="Layer_1" xmlns="http://www.w3.org/2000/svg" xmlns:xlink="http://www.w3.org/1999/xlink" x="0px" y="0px"
	 viewBox="0 0 45.8 45.8" style="enable-background:new 0 0 45.8 45.8;" xml:space="preserve">
<style type="text/css">
	.st0{fill:#55738A;}
</style>
<g id="oD8Nc1_00000183962005563695639310000008322308089336998278_">
	<g>
		<path class="st0" d="M9.2,16.7c-0.1,0-0.1,0-0.1,0c-2.5,0.2-4.3,2.2-4.2,4.5C5,23.7,7,25.5,9.5,25.5c2.1,0,4.1,0,6.2,0
			c0.9,0,1.7,0,2.6,0c0.5,0,0.8-0.3,0.8-0.7c0-0.4-0.3-0.7-0.7-0.7c-0.1,0-0.2,0-0.4,0c-2.8,0-5.6,0-8.5,0c-1.3,0-2.3-0.6-2.8-1.8
			c-0.5-1.1-0.3-2.2,0.5-3.1c0.9-1,2-1.2,3.2-0.8c0.4,0.1,0.7,0.1,0.9-0.2c0.3-0.3,0.2-0.7,0-1c-1.4-2-1.9-4.3-1.5-6.7
			c0.7-3.7,2.9-6.3,6.5-7.3c3.6-1.1,6.8-0.1,9.5,2.6C27.1,7.3,27.8,9,28,11c0,0.3,0.1,0.6,0.3,0.8c0.3,0.3,0.6,0.3,1.2-0.1
			c2.1-1.4,4.3-1.6,6.6-0.4c2.2,1.3,3.3,3.3,3.1,5.8c0,0.6,0.2,0.9,0.8,1c1.8,0.1,2.9,1.4,2.9,3.1c-0.1,1.6-1.4,2.8-3.1,2.8
			c-1,0-1.9,0-2.9,0c-0.5,0-0.8,0.3-0.8,0.7c0,0.4,0.3,0.7,0.8,0.7c1.1,0,2.2,0,3.2,0c2.2-0.1,3.9-1.7,4.2-3.8
			c0.3-2.3-1-4.2-3.2-4.8c-0.3-0.1-0.4-0.2-0.4-0.5c-0.2-5.4-6-8.8-10.8-6.5c-0.1,0.1-0.3,0.1-0.5,0.2c-1.3-6.5-7.8-10.1-13.7-8.2
			C9.7,3.7,6.3,10.5,9.2,16.7z M23.6,31.1c-2,0-4,0-6,0c-0.9,0-1.8,0-2.7,0c-0.5,0-0.8,0.3-0.8,0.7c0,0.4,0.3,0.7,0.8,0.7
			c0.1,0,0.2,0,0.2,0c5.5,0,10.9,0,16.4,0c1.6,0,2.9,0.6,4,1.8c1.7,1.8,1.5,4.6-0.2,6.2c-1.4,1.3-3.5,1.2-4.7-0.2
			c-0.9-1-0.9-2.6,0.1-3.5c0.7-0.7,1.8-0.7,2.5-0.1c0.7,0.5,0.7,1.2,0.1,2.1c-0.2,0.3-0.2,0.7,0.1,1c0.3,0.2,0.7,0.2,1-0.1
			c0.3-0.3,0.5-0.7,0.6-1.1c0.3-1.1,0.2-2.1-0.6-2.9c-0.9-0.9-2-1.2-3.3-0.9c-2.4,0.7-3.4,3.7-2,5.8c1.4,2.1,4.4,2.7,6.5,1.3
			c2-1.3,2.9-4,2.3-6.4c-0.9-3-3.8-4.5-5.8-4.6C29.3,31.1,26.4,31.1,23.6,31.1z M18.4,28.9C18.4,28.9,18.4,28.9,18.4,28.9
			c2.7,0,5.3,0,8,0c0.9,0,1.7-0.2,2.6-0.5c2.9-1.2,4.5-4,3.9-6.9c-0.6-2.9-3.2-4.7-5.9-4.2c-2.5,0.5-4,2.8-3.5,5.1
			c0.6,2.8,3.7,3.8,5.7,2c1.1-1,1.2-2.9,0.2-3.9c-0.3-0.3-0.6-0.4-0.9-0.2c-0.3,0.2-0.4,0.4-0.4,0.8c0,0.2,0.2,0.3,0.3,0.5
			c0.5,0.6,0.3,1.5-0.3,2c-0.8,0.6-1.9,0.5-2.6-0.2c-0.9-1-0.9-2.5,0-3.4c1.6-1.7,4.3-1.4,5.5,0.8c1.9,3.4-0.8,6.8-4.3,6.9
			c-3.9,0.1-7.8,0-11.6,0c-1.7,0-3.5,0-5.2,0c-0.6,0-0.9,0.3-0.9,0.8c0,0.4,0.4,0.7,0.9,0.7C12.6,28.9,15.5,28.9,18.4,28.9z
			 M7.2,31.1c-1.8,0-3.5,0-5.3,0c-0.5,0-0.8,0.3-0.8,0.7c0,0.4,0.3,0.7,0.7,0.7c3.5,0,7,0,10.5,0c0.5,0,0.8-0.3,0.8-0.8
			c0-0.4-0.3-0.7-0.8-0.7C10.7,31.1,9,31.1,7.2,31.1z M4.6,27.4C4.6,27.4,4.6,27.4,4.6,27.4c-0.9,0-1.8,0-2.7,0
			c-0.5,0-0.8,0.3-0.8,0.7c0,0.4,0.3,0.7,0.8,0.7c1.7,0,3.5,0,5.2,0c0.5,0,0.9-0.3,0.8-0.7c0-0.4-0.3-0.7-0.9-0.7
			C6.4,27.4,5.5,27.4,4.6,27.4z"/>
		<path class="st0" d="M9.2,16.7c-2.9-6.1,0.5-13,6.4-14.9c6-1.9,12.4,1.8,13.7,8.2c0.2-0.1,0.3-0.1,0.5-0.2
			c4.9-2.3,10.6,1.2,10.8,6.5c0,0.3,0.1,0.4,0.4,0.5c2.2,0.6,3.5,2.6,3.2,4.8c-0.2,2.1-2,3.7-4.2,3.8c-1.1,0.1-2.2,0-3.2,0
			c-0.5,0-0.8-0.3-0.8-0.7c0-0.4,0.3-0.7,0.8-0.7c1,0,1.9,0,2.9,0c1.7,0,3-1.2,3.1-2.8c0.1-1.7-1.1-3-2.9-3.1c-0.6,0-0.8-0.3-0.8-1
			c0.1-2.6-0.9-4.6-3.1-5.8c-2.2-1.2-4.5-1.1-6.6,0.4c-0.6,0.4-0.9,0.5-1.2,0.1C28.1,11.6,28,11.3,28,11c-0.2-2-1-3.8-2.3-5.2
			c-2.6-2.8-5.8-3.7-9.5-2.6c-3.6,1.1-5.8,3.6-6.5,7.3c-0.4,2.4,0.1,4.6,1.5,6.7c0.2,0.3,0.3,0.7,0,1c-0.3,0.3-0.6,0.3-0.9,0.2
			c-1.2-0.4-2.3-0.2-3.2,0.8c-0.8,0.9-1,2-0.5,3.1C7.1,23.5,8.1,24,9.4,24c2.8,0,5.6,0,8.5,0c0.1,0,0.3,0,0.4,0
			c0.5,0,0.8,0.3,0.7,0.7c0,0.4-0.3,0.7-0.8,0.7c-0.9,0-1.7,0-2.6,0c-2.1,0-4.1,0-6.2,0c-2.5,0-4.5-1.8-4.6-4.2
			c-0.1-2.4,1.7-4.3,4.2-4.5C9.1,16.7,9.2,16.7,9.2,16.7z"/>
		<path class="st0" d="M23.6,31.1c2.9,0,5.7,0,8.6,0c2,0,4.9,1.6,5.8,4.6c0.7,2.4-0.3,5.1-2.3,6.4c-2.2,1.4-5.2,0.8-6.5-1.3
			c-1.4-2.2-0.4-5.2,2-5.8c1.2-0.3,2.4-0.1,3.3,0.9c0.8,0.8,1,1.8,0.6,2.9c-0.1,0.4-0.4,0.7-0.6,1.1c-0.2,0.3-0.7,0.3-1,0.1
			c-0.3-0.2-0.3-0.6-0.1-1c0.6-0.9,0.6-1.6-0.1-2.1c-0.7-0.6-1.8-0.5-2.5,0.1c-1,0.9-1,2.5-0.1,3.5c1.2,1.4,3.4,1.5,4.7,0.2
			c1.8-1.6,1.9-4.5,0.2-6.2c-1.1-1.1-2.4-1.8-4-1.8c-5.5,0-10.9,0-16.4,0c-0.1,0-0.2,0-0.2,0c-0.5,0-0.8-0.3-0.8-0.7
			c0-0.4,0.3-0.7,0.8-0.7c0.9,0,1.8,0,2.7,0C19.6,31.1,21.6,31.1,23.6,31.1z"/>
		<path class="st0" d="M18.4,28.9c-2.9,0-5.7,0-8.6,0c-0.5,0-0.8-0.2-0.9-0.7c0-0.4,0.3-0.8,0.9-0.8c1.7,0,3.5,0,5.2,0
			c3.9,0,7.8,0.1,11.6,0c3.4-0.1,6.2-3.5,4.3-6.9c-1.2-2.2-3.9-2.5-5.5-0.8c-0.9,1-0.9,2.5,0,3.4c0.7,0.7,1.8,0.8,2.6,0.2
			c0.6-0.5,0.8-1.3,0.3-2c-0.1-0.2-0.2-0.3-0.3-0.5c-0.1-0.3,0.1-0.6,0.4-0.8c0.4-0.2,0.7-0.1,0.9,0.2c1,1.1,0.9,2.9-0.2,3.9
			c-2,1.9-5.1,0.8-5.7-2c-0.5-2.3,1.1-4.6,3.5-5.1c2.7-0.5,5.3,1.3,5.9,4.2c0.6,2.9-1,5.7-3.9,6.9c-0.8,0.3-1.7,0.5-2.6,0.5
			C23.7,28.9,21.1,28.9,18.4,28.9C18.4,28.9,18.4,28.9,18.4,28.9z"/>
		<path class="st0" d="M7.2,31.1c1.7,0,3.4,0,5.1,0c0.5,0,0.8,0.2,0.8,0.7c0,0.5-0.3,0.8-0.8,0.8c-3.5,0-7,0-10.5,0
			c-0.5,0-0.8-0.3-0.7-0.7c0-0.4,0.3-0.7,0.8-0.7C3.7,31.1,5.5,31.1,7.2,31.1z"/>
		<path class="st0" d="M4.6,27.4c0.9,0,1.7,0,2.6,0c0.5,0,0.8,0.3,0.9,0.7c0,0.4-0.3,0.7-0.8,0.7c-1.7,0-3.5,0-5.2,0
			c-0.5,0-0.8-0.3-0.8-0.7c0-0.4,0.3-0.7,0.8-0.7C2.9,27.4,3.8,27.4,4.6,27.4C4.6,27.4,4.6,27.4,4.6,27.4z"/>
	</g>
</g>
</svg>
