<?xml version="1.0" encoding="utf-8"?>
<!-- Generator: Adobe Illustrator 27.3.1, SVG Export Plug-In . SVG Version: 6.00 Build 0)  -->
<svg version="1.1" id="Layer_1" xmlns="http://www.w3.org/2000/svg" xmlns:xlink="http://www.w3.org/1999/xlink" x="0px" y="0px"
	 viewBox="0 0 45.8 45.8" style="enable-background:new 0 0 45.8 45.8;" xml:space="preserve">
<style type="text/css">
	.st0{fill:#55738A;}
</style>
<g id="CpzgJF_00000176759538570505721440000014983497123065148070_">
	<g>
		<path class="st0" d="M22.5,2.3c11.8,0.1,20.9,9.4,20.9,20.9c0,11.7-9.5,20.8-21.1,20.7C10.6,43.9,1.4,34.4,1.6,22.8
			C1.8,11.4,11,2.4,22.5,2.3z M42.4,23.6c0.3-11-8.6-19.8-18.9-20.3C12,2.8,2.8,11.9,2.5,22.7c-0.2,11,8.7,20,19.5,20.3
			C32.9,43.3,42.2,34.6,42.4,23.6z"/>
		<path class="st0" d="M38.5,27c-0.3,2.5-1,4.7-3,6.4c-0.5,0.4-1,0.6-1.6,0.7c-0.8,0.1-1.6-0.4-2-1.2c-0.3-0.8-0.4-1.6-0.3-2.5
			c0.2-1.8,0.9-3.4,2-4.9c0.4-0.6,1-1.1,1.7-1.4c1.4-0.6,2.6-0.1,3,1.3C38.4,26,38.4,26.5,38.5,27z M37.5,26.9
			c-0.1-0.3-0.1-0.8-0.3-1.2c-0.3-1-1.1-1.1-1.8-0.6c-0.5,0.3-0.9,0.7-1.3,1.2c-1,1.3-1.6,2.8-1.7,4.5c0,0.7,0,1.4,0.4,2
			c0.2,0.3,0.5,0.5,1,0.4c0.5-0.1,0.9-0.3,1.2-0.7C36.7,31,37.3,29.1,37.5,26.9z"/>
		<path class="st0" d="M10.7,15.9c0-2,1.5-4,3.3-4.4c0.6-0.1,1.2-0.1,1.8,0.1c0.9,0.4,1.3,1.2,1.4,2.1c0.3,2.1-0.9,4.1-2.9,4.9
			c-2,0.8-3.4-0.5-3.6-2.3C10.7,16.2,10.7,16.1,10.7,15.9z M16.3,14.3c0-1.6-1.1-2.3-2.4-1.8c-1.4,0.5-2.4,2.4-2.2,3.9
			c0.1,0.6,0.3,1,0.9,1.3c0.5,0.2,1,0.2,1.4,0C15.3,17.3,16.3,15.8,16.3,14.3z"/>
		<path class="st0" d="M23.1,19.8c2,0.1,3.3,1.3,3.3,3.3c0.1,1.8-1.4,3.3-3.3,3.3c-1.9,0-3.4-1.6-3.4-3.4
			C19.8,21.3,21.2,19.9,23.1,19.8z M20.8,23.2c-0.1,1.2,1,2.4,2.4,2.4c1.2,0,2.3-1.1,2.3-2.3c0-1.3-1-2.4-2.4-2.4
			C21.8,20.8,20.7,21.8,20.8,23.2z"/>
		<path class="st0" d="M28.9,9.4c1.4-0.1,2.6,1.1,2.6,2.7c0,1.5-1.2,2.6-2.7,2.5c-1.4,0-2.6-1.2-2.6-2.7
			C26.3,10.7,27.4,9.3,28.9,9.4z M30.5,12c0-0.9-0.7-1.6-1.6-1.6c-1,0-1.7,0.7-1.7,1.6c0,0.7,0.5,1.7,1.7,1.6
			C29.8,13.6,30.5,12.9,30.5,12z"/>
		<path class="st0" d="M4,22.9c0.1-2,0.3-3.7,0.9-5.4c0-0.1,0.1-0.2,0.2-0.3C5.2,17,5.3,16.9,5.5,17c0.2,0.1,0.4,0.3,0.3,0.5
			c-0.1,0.5-0.3,1-0.4,1.5c-0.5,1.8-0.5,3.6-0.3,5.5c0.2,1.6,0.6,3.2,1.4,4.7c0,0.1,0.1,0.2,0.1,0.3c0.1,0.2,0,0.4-0.2,0.6
			c-0.2,0.1-0.5,0.1-0.6-0.1c-0.2-0.4-0.4-0.7-0.5-1.1c-0.6-1.5-1-3-1.1-4.6C4.1,23.8,4,23.3,4,22.9z"/>
		<path class="st0" d="M39,17.5c0,0.2,0,0.4-0.3,0.5c-0.2,0.1-0.4,0-0.6-0.2c-0.1-0.1-0.1-0.3-0.2-0.4c-0.9-3.7-3-6.4-6.2-8.5
			c0,0-0.1-0.1-0.1-0.1c-0.3-0.2-0.4-0.5-0.2-0.7c0.1-0.2,0.4-0.3,0.7-0.1c0.8,0.4,1.5,1,2.2,1.6c1.4,1.2,2.5,2.7,3.3,4.3
			c0.6,1.1,1,2.3,1.3,3.5C39,17.4,39,17.4,39,17.5z"/>
		<path class="st0" d="M11.6,31.8c0-1.3,1.1-2.4,2.4-2.4c1.5,0,2.5,1.1,2.5,2.4c0,1.4-1.1,2.4-2.4,2.4
			C12.7,34.3,11.6,33.2,11.6,31.8z M14,33.2c0.7,0.1,1.5-0.6,1.5-1.4c0-0.7-0.7-1.4-1.4-1.4c-0.8,0-1.5,0.7-1.5,1.5
			C12.6,32.6,13.2,33.2,14,33.2z"/>
		<path class="st0" d="M24.5,7.3c0,0.7-0.5,1.2-1.2,1.2c-0.6,0-1.2-0.6-1.1-1.2c0-0.6,0.6-1.2,1.2-1.2C24,6.1,24.5,6.6,24.5,7.3z"/>
		<path class="st0" d="M10.4,35c-0.1,0.2-0.2,0.3-0.4,0.4c-0.2,0.1-0.4,0.1-0.6-0.1c-0.9-0.6-1.5-1.3-2.1-2.2
			c-0.1-0.2-0.2-0.3-0.2-0.5c-0.1-0.2-0.1-0.4,0.2-0.6C7.6,32,7.8,32,8,32.3c0.3,0.4,0.5,0.8,0.8,1.2c0.4,0.4,0.8,0.7,1.2,1.1
			C10.1,34.7,10.2,34.9,10.4,35z"/>
		<path class="st0" d="M38.2,20.8c0-0.4,0-0.8,0-1.2c0-0.3,0.2-0.5,0.5-0.5c0.3,0,0.5,0.2,0.5,0.4c0,0.9,0,1.7,0,2.6
			c0,0.4-0.2,0.5-0.5,0.5c-0.3,0-0.4-0.2-0.4-0.6C38.2,21.7,38.2,21.2,38.2,20.8C38.2,20.8,38.2,20.8,38.2,20.8z"/>
		<path class="st0" d="M14,22.7c0,0.5-0.5,1-1,1c-0.5,0-1-0.5-1-1c0-0.5,0.5-1,1-1C13.5,21.8,14,22.2,14,22.7z"/>
		<path class="st0" d="M25.8,34.1c0.4,0,0.9,0.5,0.9,0.9c0,0.5-0.4,0.9-0.9,0.9c-0.5,0-0.9-0.4-0.9-0.9
			C24.9,34.5,25.3,34.1,25.8,34.1z"/>
		<path class="st0" d="M22.5,11.4c-0.5,0-0.8-0.3-0.8-0.8c0-0.4,0.4-0.8,0.8-0.8c0.4,0,0.8,0.3,0.8,0.8
			C23.3,11.1,22.9,11.4,22.5,11.4z"/>
		<path class="st0" d="M23.1,35.3c-0.3,0-0.6-0.2-0.6-0.6c0-0.3,0.2-0.6,0.6-0.6c0.3,0,0.6,0.3,0.6,0.6
			C23.7,35.1,23.4,35.3,23.1,35.3z"/>
		<path class="st0" d="M11.5,23.7c0,0.2-0.3,0.5-0.5,0.5c-0.2,0-0.5-0.3-0.5-0.5c0-0.2,0.2-0.5,0.5-0.5
			C11.3,23.2,11.5,23.4,11.5,23.7z"/>
		<path class="st0" d="M33.2,17.8c0-0.3,0.2-0.5,0.5-0.5c0.3,0,0.5,0.2,0.5,0.5c0,0.2-0.2,0.4-0.5,0.4C33.4,18.2,33.2,18,33.2,17.8z
			"/>
		<path class="st0" d="M20.8,8.8c-0.2,0-0.5-0.3-0.5-0.5c0-0.2,0.2-0.4,0.5-0.4c0.2,0,0.5,0.2,0.5,0.4C21.2,8.5,21,8.8,20.8,8.8z"/>
		<path class="st0" d="M13.1,25.4c0,0.2-0.3,0.4-0.5,0.4c-0.3,0-0.5-0.2-0.5-0.4c0-0.3,0.2-0.5,0.5-0.5
			C12.8,24.9,13.1,25.2,13.1,25.4z"/>
		<path class="st0" d="M24.9,36.9c-0.2,0.2-0.3,0.3-0.5,0.4c-0.1,0.1-0.4-0.2-0.4-0.4c0-0.2,0.2-0.4,0.4-0.4
			C24.6,36.6,24.7,36.7,24.9,36.9z"/>
	</g>
</g>
</svg>
