<?xml version="1.0" encoding="utf-8"?>
<!-- Generator: Adobe Illustrator 27.3.1, SVG Export Plug-In . SVG Version: 6.00 Build 0)  -->
<svg version="1.1" id="Layer_1" xmlns="http://www.w3.org/2000/svg" xmlns:xlink="http://www.w3.org/1999/xlink" x="0px" y="0px"
	 viewBox="0 0 45.8 45.8" style="enable-background:new 0 0 45.8 45.8;" xml:space="preserve">
<style type="text/css">
	.st0{fill:#55738A;}
</style>
<g id="wDIjeX_00000162316343061588156160000005855320032270546317_">
	<g>
		<g>
			<g>
				<path class="st0" d="M25.4,33.7L25.4,33.7L25.4,33.7z"/>
				<path class="st0" d="M18.7,5C9.2,5,1.4,12.7,1.4,22.3c0,9.5,7.7,17.3,17.3,17.3c1.5,0,2.9-0.2,4.3-0.6c-0.3-0.4-0.6-0.7-0.9-1.1
					c-0.2-0.2-0.3-0.5-0.5-0.8c0.1,0.2,0.2,0.5,0.4,0.7c-1.1,0.2-2.2,0.4-3.3,0.4C10,38.1,2.9,31,2.9,22.3S10,6.5,18.7,6.5
					c8,0,14.7,6,15.7,13.8c0.2,0,0.4,0.1,0.6,0.1c0.3,0,0.6,0.1,0.9,0.1C35,11.8,27.6,5,18.7,5z"/>
			</g>
		</g>
	</g>
</g>
<path class="st0" d="M20.3,25.2c0.3-2.8,2.4-5.1,5.2-5.8c2.8-0.6,5.7,0.5,7.2,3c0.1,0.2,0.3,0.3,0.5,0.2c2.9-0.7,5.8,0.9,6.7,3.7
	c0.1,0.4,0.2,0.8,0.3,1.1c0.5,0.1,0.9,0.2,1.3,0.4c3.3,1.4,3.3,5.3,1.5,7.3c-0.6,0.7-1.4,1-2.3,1c-6.8,0-13.6,0-20.3,0
	c-3.7,0-6.3-4-4.6-7.4c0.9-1.9,2.5-2.9,4.6-3C20.3,25.5,20.3,25.3,20.3,25.2z M40.6,34.5c0.6,0,1-0.2,1.3-0.6c1.1-1.4,1-3.8-1.2-4.6
	c-0.3-0.1-0.7-0.1-1-0.1c-0.9,0-1.1-0.2-1.1-1.1c0-2-1.3-3.6-3.3-4c-0.8-0.1-1.5,0-2.2,0.3s-1,0.2-1.4-0.5c-1.1-2.3-3.5-3.4-5.9-2.8
	c-2.3,0.6-3.9,2.7-3.8,5.2c0,0.9-0.3,1.2-1.2,1.1c-2-0.2-3.8,1.3-3.9,3.3c-0.1,2.1,1.5,3.8,3.6,3.8c3.3,0,6.7,0,10,0
	C33.8,34.4,37.2,34.4,40.6,34.5z"/>
<path class="st0" d="M22.3,11.5c0,1.8-1.5,3.4-3.3,3.4c-1.9,0-3.4-1.4-3.5-3.4c0-1.8,1.5-3.4,3.3-3.4C20.8,8.1,22.3,9.6,22.3,11.5z
	 M21.2,11.6c0.1-1.2-1-2.3-2.2-2.4c-1.3-0.1-2.4,0.9-2.4,2.1c-0.1,1.3,0.9,2.4,2.2,2.5C20.1,13.9,21.2,12.9,21.2,11.6z"/>
<path class="st0" d="M11.7,14.3c0,1.1-0.9,2-2,2s-2-0.9-2-2s0.9-2,2-2S11.7,13.2,11.7,14.3z M10.6,14.3c0-0.5-0.4-0.9-0.9-0.9
	s-0.9,0.4-0.9,0.9s0.4,0.9,0.9,0.9S10.6,14.8,10.6,14.3z"/>
<path class="st0" d="M6.2,23.4c0-1,0.8-1.9,1.9-1.9c1,0,1.9,0.8,1.9,1.8s-0.8,1.9-1.9,1.9C7,25.2,6.2,24.4,6.2,23.4z M7.3,23.4
	c0,0.4,0.4,0.8,0.8,0.8c0.4,0,0.8-0.4,0.8-0.8s-0.4-0.8-0.8-0.8C7.6,22.6,7.3,22.9,7.3,23.4z"/>
<path class="st0" d="M15.1,20.6c0-0.9,0.7-1.6,1.6-1.6c0.9,0,1.6,0.7,1.6,1.6s-0.7,1.6-1.6,1.6C15.8,22.2,15.1,21.5,15.1,20.6z
	 M17.2,20.6c0-0.3-0.2-0.5-0.5-0.5c-0.3,0-0.5,0.2-0.5,0.5s0.2,0.5,0.5,0.5C17,21.1,17.2,20.9,17.2,20.6z"/>
</svg>
