<?xml version="1.0" encoding="utf-8"?>
<!-- Generator: Adobe Illustrator 27.3.1, SVG Export Plug-In . SVG Version: 6.00 Build 0)  -->
<svg version="1.1" id="Layer_1" xmlns="http://www.w3.org/2000/svg" xmlns:xlink="http://www.w3.org/1999/xlink" x="0px" y="0px"
	 viewBox="0 0 45.8 45.8" style="enable-background:new 0 0 45.8 45.8;" xml:space="preserve">
<style type="text/css">
	.st0{fill:#55738A;}
</style>
<g id="wDIjeX_00000162316343061588156160000005855320032270546317_">
	<g>
		<g>
			<g>
				<polygon class="st0" points="24.8,30.7 24.8,30.7 24.8,30.7 				"/>
				<path class="st0" d="M18.1,2C8.6,2,0.8,9.7,0.8,19.3c0,9.5,7.7,17.3,17.3,17.3c1.5,0,2.9-0.2,4.3-0.6c-0.3-0.4-0.6-0.7-0.9-1.1
					c-0.2-0.2-0.3-0.5-0.5-0.8c0.1,0.2,0.2,0.5,0.4,0.7c-1.1,0.2-2.2,0.4-3.3,0.4C9.4,35.1,2.3,28,2.3,19.3
					c0-8.7,7.1-15.8,15.8-15.8c8,0,14.7,6,15.7,13.8c0.2,0,0.4,0.1,0.6,0.1c0.3,0,0.6,0.1,0.9,0.1C34.4,8.8,27,2,18.1,2z"/>
			</g>
		</g>
	</g>
</g>
<path class="st0" d="M19.7,22.2c0.3-2.8,2.4-5.1,5.2-5.8c2.8-0.6,5.7,0.5,7.2,3c0.1,0.2,0.3,0.3,0.5,0.2c2.9-0.7,5.8,0.9,6.7,3.7
	c0.1,0.4,0.2,0.8,0.3,1.1c0.5,0.1,0.9,0.2,1.3,0.4c3.3,1.4,3.3,5.3,1.5,7.3c-0.6,0.7-1.4,1-2.3,1c-6.8,0-13.6,0-20.3,0
	c-3.7,0-6.3-4-4.6-7.4c0.9-1.9,2.5-2.9,4.6-3C19.7,22.5,19.7,22.3,19.7,22.2z M40,31.5c0.6,0,1-0.2,1.3-0.6c1.1-1.4,1-3.8-1.2-4.6
	c-0.3-0.1-0.7-0.1-1-0.1c-0.9,0-1.1-0.2-1.1-1.1c0-2-1.3-3.6-3.3-4c-0.8-0.1-1.5,0-2.2,0.3c-0.7,0.3-1,0.2-1.4-0.5
	c-1.1-2.3-3.5-3.4-5.9-2.8c-2.3,0.6-3.9,2.7-3.8,5.2c0,0.9-0.3,1.2-1.2,1.1c-2-0.2-3.8,1.3-3.9,3.3c-0.1,2.1,1.5,3.8,3.6,3.8
	c3.3,0,6.7,0,10,0C33.2,31.4,36.6,31.4,40,31.5z"/>
<path class="st0" d="M36.6,43.2c0-0.1,0-0.2-0.1-0.3c-0.9-2.7-1.8-5.5-2.6-8.2c-0.1-0.4-0.6-0.7-1-0.5c-0.4,0.1-0.6,0.5-0.5,1
	c0.9,2.8,1.8,5.6,2.7,8.3c0.1,0.4,0.5,0.6,0.9,0.6C36.4,44,36.6,43.7,36.6,43.2z"/>
<path class="st0" d="M41.2,42.1c0-0.2-0.1-0.3-0.1-0.4c-0.7-2.1-1.4-4.3-2.1-6.4c-0.2-0.5-0.5-0.8-0.9-0.7c-0.5,0.1-0.8,0.5-0.6,1.1
	c0.3,1.1,0.7,2.2,1,3.2c0.4,1.1,0.7,2.2,1.1,3.3c0.1,0.3,0.3,0.6,0.7,0.6c0.2,0,0.5-0.2,0.7-0.3C41.1,42.4,41.2,42.2,41.2,42.1z"/>
<path class="st0" d="M28.1,35.1c0,0.1,0,0.2,0.1,0.3c0.7,2.2,1.4,4.3,2.1,6.5c0.2,0.5,0.5,0.8,1,0.7c0.5-0.1,0.7-0.6,0.5-1.1
	c-0.5-1.4-0.9-2.8-1.4-4.3c-0.3-0.8-0.5-1.6-0.8-2.3c-0.1-0.4-0.5-0.6-0.9-0.5C28.4,34.4,28.1,34.7,28.1,35.1z"/>
<path class="st0" d="M24.2,35c0,0.1,0,0.2,0.1,0.3c0.5,1.7,1.1,3.3,1.6,5c0.1,0.3,0.2,0.6,0.6,0.6c0.2,0,0.5,0,0.7-0.2
	c0.3-0.2,0.3-0.5,0.2-0.8c-0.3-1-0.6-2-1-2.9c-0.3-0.8-0.5-1.6-0.8-2.3c-0.1-0.4-0.5-0.6-0.9-0.5C24.5,34.2,24.2,34.5,24.2,35z"/>
<path class="st0" d="M42.7,34.6c-0.6,0-1,0.5-0.8,1c0.5,1.5,1,3.1,1.5,4.6c0.1,0.2,0.1,0.5,0.2,0.7c0.2,0.4,0.6,0.6,1,0.5
	c0.4-0.1,0.6-0.5,0.5-1c-0.6-1.8-1.2-3.6-1.7-5.4C43.2,34.8,42.9,34.6,42.7,34.6z"/>
<path class="st0" d="M21.7,8.5c0,1.8-1.5,3.4-3.3,3.4c-1.9,0-3.4-1.4-3.5-3.4c0-1.8,1.5-3.4,3.3-3.4C20.2,5.1,21.7,6.6,21.7,8.5z
	 M20.6,8.6c0.1-1.2-1-2.3-2.2-2.4c-1.3-0.1-2.4,0.9-2.4,2.1c-0.1,1.3,0.9,2.4,2.2,2.5C19.5,10.9,20.6,9.9,20.6,8.6z"/>
<path class="st0" d="M11.1,11.3c0,1.1-0.9,2-2,2c-1.1,0-2-0.9-2-2c0-1.1,0.9-2,2-2C10.2,9.3,11.1,10.2,11.1,11.3z M10,11.3
	c0-0.5-0.4-0.9-0.9-0.9c-0.5,0-0.9,0.4-0.9,0.9c0,0.5,0.4,0.9,0.9,0.9C9.6,12.2,10,11.8,10,11.3z"/>
<path class="st0" d="M5.6,20.4c0-1,0.8-1.9,1.9-1.9c1,0,1.9,0.8,1.9,1.8c0,1-0.8,1.9-1.9,1.9C6.4,22.2,5.6,21.4,5.6,20.4z M6.7,20.4
	c0,0.4,0.4,0.8,0.8,0.8c0.4,0,0.8-0.4,0.8-0.8c0-0.4-0.4-0.8-0.8-0.8C7,19.6,6.7,19.9,6.7,20.4z"/>
<path class="st0" d="M14.5,17.6c0-0.9,0.7-1.6,1.6-1.6c0.9,0,1.6,0.7,1.6,1.6c0,0.9-0.7,1.6-1.6,1.6C15.2,19.2,14.5,18.5,14.5,17.6z
	 M16.6,17.6c0-0.3-0.2-0.5-0.5-0.5c-0.3,0-0.5,0.2-0.5,0.5c0,0.3,0.2,0.5,0.5,0.5C16.4,18.1,16.6,17.9,16.6,17.6z"/>
</svg>
