<?xml version="1.0" encoding="utf-8"?>
<!-- Generator: Adobe Illustrator 27.3.1, SVG Export Plug-In . SVG Version: 6.00 Build 0)  -->
<svg version="1.1" id="Layer_1" xmlns="http://www.w3.org/2000/svg" xmlns:xlink="http://www.w3.org/1999/xlink" x="0px" y="0px"
	 viewBox="0 0 45.8 45.8" style="enable-background:new 0 0 45.8 45.8;" xml:space="preserve">
<style type="text/css">
	.st0{fill:#55738A;}
</style>
<g id="wDIjeX_00000162316343061588156160000005855320032270546317_">
	<g>
		<path class="st0" d="M30.1,16.5c0,1.6-1.3,3-2.9,3c-1.7,0-3.1-1.3-3.1-3c0-1.6,1.3-3,2.9-3C28.7,13.4,30,14.7,30.1,16.5z
			 M29.1,16.5c0.1-1.1-0.9-2.1-1.9-2.1c-1.1-0.1-2.1,0.8-2.2,1.9c-0.1,1.2,0.8,2.2,2,2.2C28.1,18.6,29,17.7,29.1,16.5z"/>
		<path class="st0" d="M21.7,17.8c0,1-0.8,1.8-1.8,1.8c-1,0-1.8-0.8-1.8-1.8c0-1,0.8-1.8,1.7-1.8C20.9,16,21.7,16.8,21.7,17.8z
			 M20.7,17.8c0-0.4-0.4-0.8-0.8-0.8c-0.4,0-0.8,0.4-0.8,0.8c0,0.4,0.4,0.8,0.8,0.8C20.3,18.6,20.7,18.2,20.7,17.8z"/>
		<path class="st0" d="M16.9,27.1c0-0.9,0.7-1.7,1.7-1.7c0.9,0,1.7,0.7,1.7,1.6c0,0.9-0.7,1.7-1.7,1.7C17.7,28.7,16.9,28,16.9,27.1z
			 M17.9,27.1c0,0.4,0.3,0.7,0.7,0.7c0.4,0,0.7-0.3,0.7-0.7c0-0.4-0.3-0.7-0.7-0.7C18.2,26.4,17.9,26.7,17.9,27.1z"/>
		<path class="st0" d="M30.7,23.4c0-0.8,0.6-1.4,1.4-1.4c0.8,0,1.4,0.6,1.5,1.4c0,0.8-0.6,1.4-1.4,1.4
			C31.4,24.9,30.7,24.2,30.7,23.4z M32.6,23.4c0-0.3-0.2-0.5-0.5-0.5c-0.3,0-0.5,0.2-0.5,0.5c0,0.3,0.2,0.5,0.5,0.5
			C32.4,23.9,32.6,23.7,32.6,23.4z"/>
		<path class="st0" d="M21.4,22.7c0.7,0,1.3,0.6,1.3,1.3c0,0.7-0.6,1.3-1.3,1.3c-0.7,0-1.3-0.6-1.3-1.3
			C20.1,23.3,20.7,22.7,21.4,22.7z M21.1,24c0,0.2,0.2,0.3,0.3,0.3c0.2,0,0.3-0.2,0.3-0.3c0-0.2-0.1-0.3-0.3-0.3
			C21.2,23.7,21.1,23.8,21.1,24z"/>
		<path class="st0" d="M43.6,30.4c-0.2,0-0.4,0-0.6-0.1c-0.1-0.8-0.4-1.5-1.2-1.9c-0.7-0.4-1.5-0.4-2.2,0c-0.6-1.4-1.5-2.4-2.9-3
			c0-0.1,0-0.1,0.1-0.2c0.3-1.8,0.3-3.6-0.2-5.4c-0.9-3.4-2.9-6-6-7.8c-2.7-1.6-5.7-2-8.7-1.4c-3.2,0.7-5.8,2.4-7.7,5.1
			c-0.8,1.1-1.3,2.2-1.7,3.5c0,0,0,0.1-0.1,0.1c-0.3,0.1-0.6,0.3-0.9,0.4c-0.8-1.5-2-2.3-3.7-2.1c-1.7,0.1-2.8,1.1-3.4,2.6
			c-0.2,0-0.5-0.1-0.7-0.1c-1.4,0-2.5,1.1-2.5,2.4c-0.1,1.4,0.9,2.6,2.3,2.7c0.4,0,0.8,0,1.1,0c2.5,0,4.9,0,7.4,0
			c0.1,0,0.2,0,0.2,0.2c0.1,0.3,0.1,0.7,0.2,1c0.8,2.7,2.3,5,4.6,6.6c2.6,1.9,5.4,2.6,8.6,2.4c0.1,0,0.3,0,0.4-0.1
			c0.1-0.1,0.2,0,0.3,0c0.6,0.4,1.2,0.5,1.9,0.5c1.1,0,2.2,0,3.3,0v-1c-1.1,0-2.3,0-3.4,0c-1.1,0-2.1-0.9-2.4-2
			c-0.2-1,0.1-1.9,0.9-2.6c0.8-0.6,1.9-0.7,2.8-0.3c0.1,0.1,0.3,0.1,0.4,0.1c0.2,0,0.4-0.2,0.4-0.4c0.1-0.6,0.3-1.2,0.7-1.7
			c1-1.5,2.7-2.3,4.4-1.9c1.8,0.4,3,1.5,3.5,3.3c0,0.2,0.1,0.3,0.2,0.4c0.2,0.1,0.5,0.1,0.6-0.1c0.3-0.4,0.7-0.6,1.2-0.5
			c0.5,0.1,0.8,0.4,1,0.8c0.1,0.2,0.1,0.5,0,0.8c-0.1,0.4,0.2,0.7,0.6,0.6c0.4-0.1,0.9-0.1,1.3,0.1c0.8,0.4,1.2,1.2,1,2
			C44.7,34.4,44,35,43.1,35c-1.1,0-2.3,0-3.4,0v1c1.1,0,2.3,0,3.4,0c0.1,0,0.3,0,0.4,0c1.3-0.2,2.4-1.3,2.4-2.7
			C45.9,31.8,44.9,30.6,43.6,30.4z M8.6,24.4L8.6,24.4c-1.6,0-3.2,0-4.8,0c-0.9,0-1.6-0.7-1.6-1.6c0-0.9,0.7-1.6,1.6-1.6
			c0.3,0,0.5,0.1,0.8,0.2c0.4,0.2,0.7,0,0.8-0.4c0.3-1.8,2.1-2.8,3.8-2.2c0.9,0.4,1.5,1,1.8,2c0,0.2,0.2,0.3,0.4,0.4
			c0.2,0.1,0.4,0,0.5-0.2c0.6-0.7,1.3-0.9,2.2-0.7c0.8,0.2,1.3,0.7,1.5,1.6c0.3,1.3-0.7,2.5-2,2.5C11.8,24.4,10.2,24.4,8.6,24.4z
			 M35.8,25.2c-1.4-0.3-2.7-0.1-4,0.6c-1.2,0.7-2,1.8-2.4,3.2c-1.7-0.4-3.1-0.1-4.1,1.3c-0.7,0.9-1,2.6,0,4.1
			c-2.6,0.2-5-0.4-7.2-1.8c-3-2-4.6-5-5-7.3c1,0,1.8-0.3,2.5-1c0.5-0.5,0.7-1.2,0.7-1.9c0.1-1.4-1-3-2.9-3.1c1.5-3.8,4.1-6.3,8-7.4
			c4.2-1.2,8.7,0.2,11.6,3.4C36,18.5,36.4,22.5,35.8,25.2z"/>
	</g>
</g>
<path class="st0" d="M37.1,41.5c0,0,0-0.1-0.1-0.2c-0.7-2.1-1.3-4.1-2-6.2c-0.1-0.3-0.4-0.5-0.7-0.4C34,34.7,33.9,35,34,35.4
	c0.7,2.1,1.3,4.2,2,6.3c0.1,0.3,0.4,0.5,0.7,0.4C36.9,42,37.1,41.8,37.1,41.5z"/>
<path class="st0" d="M9.9,33.1c0,0,0-0.1-0.1-0.2c-0.7-2.1-1.3-4.1-2-6.2c-0.1-0.3-0.4-0.5-0.7-0.4c-0.3,0.1-0.5,0.4-0.4,0.7
	c0.7,2.1,1.3,4.2,2,6.3c0.1,0.3,0.4,0.5,0.7,0.4C9.7,33.6,9.9,33.4,9.9,33.1z"/>
<path class="st0" d="M40.5,42.3c0-0.1-0.1-0.2-0.1-0.3c-0.5-1.6-1-3.2-1.6-4.8c-0.1-0.4-0.4-0.6-0.7-0.5c-0.4,0.1-0.6,0.4-0.5,0.9
	c0.3,0.8,0.5,1.6,0.8,2.4c0.3,0.8,0.5,1.7,0.8,2.5c0.1,0.2,0.2,0.5,0.5,0.4c0.2,0,0.4-0.1,0.5-0.3C40.5,42.5,40.5,42.4,40.5,42.3z"
	/>
<path class="st0" d="M31.3,37.4c0,0,0,0.1,0.1,0.2c0.5,1.6,1,3.2,1.6,4.9c0.1,0.4,0.4,0.6,0.7,0.5c0.4-0.1,0.5-0.4,0.4-0.8
	c-0.3-1.1-0.7-2.1-1-3.2c-0.2-0.6-0.4-1.2-0.6-1.7c-0.1-0.3-0.4-0.4-0.7-0.4C31.5,36.9,31.3,37.1,31.3,37.4z"/>
<path class="st0" d="M3.9,27c0,0,0,0.1,0.1,0.2c0.4,1.3,0.8,2.5,1.2,3.8c0.1,0.2,0.2,0.5,0.4,0.5c0.2,0,0.4,0,0.6-0.1
	c0.2-0.1,0.2-0.4,0.1-0.6c-0.2-0.7-0.5-1.5-0.7-2.2c-0.2-0.6-0.4-1.2-0.6-1.7c-0.1-0.3-0.4-0.4-0.7-0.4C4.1,26.4,3.9,26.7,3.9,27z"
	/>
<path class="st0" d="M41.6,37.6c-0.5,0-0.7,0.4-0.6,0.8c0.4,1.2,0.8,2.3,1.1,3.5c0.1,0.2,0.1,0.3,0.2,0.5c0.1,0.3,0.4,0.5,0.7,0.4
	c0.3-0.1,0.5-0.4,0.4-0.7c-0.4-1.3-0.9-2.7-1.3-4C42,37.7,41.8,37.6,41.6,37.6z"/>
<path class="st0" d="M10.4,26.3c-0.5,0-0.7,0.4-0.6,0.8c0.4,1.2,0.8,2.3,1.1,3.5c0.1,0.2,0.1,0.3,0.2,0.5c0.1,0.3,0.4,0.5,0.7,0.4
	c0.3-0.1,0.5-0.4,0.4-0.7c-0.4-1.3-0.9-2.7-1.3-4C10.8,26.4,10.6,26.3,10.4,26.3z"/>
</svg>
