<?xml version="1.0" encoding="utf-8"?>
<!-- Generator: Adobe Illustrator 27.3.1, SVG Export Plug-In . SVG Version: 6.00 Build 0)  -->
<svg version="1.1" id="Layer_1" xmlns="http://www.w3.org/2000/svg" xmlns:xlink="http://www.w3.org/1999/xlink" x="0px" y="0px"
	 viewBox="0 0 45.8 45.8" style="enable-background:new 0 0 45.8 45.8;" xml:space="preserve">
<style type="text/css">
	.st0{fill:#55738A;}
</style>
<g id="wDIjeX_00000162316343061588156160000005855320032270546317_">
	<g>
		<path class="st0" d="M29,15.7c0,1.6-1.3,3-2.9,3c-1.7,0-3.1-1.3-3.1-3c0-1.6,1.3-3,2.9-3C27.6,12.6,29,13.9,29,15.7z M28.1,15.7
			c0.1-1.1-0.9-2.1-1.9-2.1c-1.1-0.1-2.1,0.8-2.2,1.9c-0.1,1.2,0.8,2.2,2,2.2C27,17.8,28,16.9,28.1,15.7z"/>
		<path class="st0" d="M20.6,17c0,1-0.8,1.8-1.8,1.8c-1,0-1.8-0.8-1.8-1.8c0-1,0.8-1.8,1.7-1.8C19.8,15.2,20.6,16,20.6,17z M19.7,17
			c0-0.4-0.4-0.8-0.8-0.8c-0.4,0-0.8,0.4-0.8,0.8c0,0.4,0.4,0.8,0.8,0.8C19.3,17.8,19.7,17.4,19.7,17z"/>
		<path class="st0" d="M15.9,26.3c0-0.9,0.7-1.7,1.7-1.7c0.9,0,1.7,0.7,1.7,1.6c0,0.9-0.7,1.7-1.7,1.7
			C16.7,27.9,15.9,27.2,15.9,26.3z M16.9,26.3c0,0.4,0.3,0.7,0.7,0.7c0.4,0,0.7-0.3,0.7-0.7c0-0.4-0.3-0.7-0.7-0.7
			C17.2,25.6,16.9,25.9,16.9,26.3z"/>
		<path class="st0" d="M29.7,22.6c0-0.8,0.6-1.4,1.4-1.4c0.8,0,1.4,0.6,1.5,1.4c0,0.8-0.6,1.4-1.4,1.4
			C30.4,24.1,29.7,23.4,29.7,22.6z M31.6,22.6c0-0.3-0.2-0.5-0.5-0.5c-0.3,0-0.5,0.2-0.5,0.5c0,0.3,0.2,0.5,0.5,0.5
			C31.4,23.1,31.6,22.9,31.6,22.6z"/>
		<path class="st0" d="M20.4,21.9c0.7,0,1.3,0.6,1.3,1.3c0,0.7-0.6,1.3-1.3,1.3c-0.7,0-1.3-0.6-1.3-1.3
			C19.1,22.5,19.7,21.9,20.4,21.9z M20.1,23.2c0,0.2,0.2,0.3,0.3,0.3c0.2,0,0.3-0.2,0.3-0.3c0-0.2-0.1-0.3-0.3-0.3
			C20.2,22.9,20.1,23,20.1,23.2z"/>
		<path class="st0" d="M42.6,29.6c-0.2,0-0.4,0-0.6-0.1c-0.1-0.8-0.4-1.5-1.2-1.9c-0.7-0.4-1.5-0.4-2.2,0c-0.6-1.4-1.5-2.4-2.9-3
			c0-0.1,0-0.1,0.1-0.2c0.3-1.8,0.3-3.6-0.2-5.4c-0.9-3.4-2.9-6-6-7.8c-2.7-1.6-5.7-2-8.7-1.4c-3.2,0.7-5.8,2.4-7.7,5.1
			c-0.8,1.1-1.3,2.2-1.7,3.5c0,0,0,0.1-0.1,0.1c-0.3,0.1-0.6,0.3-0.9,0.4c-0.8-1.5-2-2.3-3.7-2.1c-1.7,0.1-2.8,1.1-3.4,2.6
			c-0.2,0-0.5-0.1-0.7-0.1c-1.4,0-2.5,1.1-2.5,2.4c-0.1,1.4,0.9,2.6,2.3,2.7c0.4,0,0.8,0,1.1,0c2.5,0,4.9,0,7.4,0
			c0.1,0,0.2,0,0.2,0.2c0.1,0.3,0.1,0.7,0.2,1c0.8,2.7,2.3,5,4.6,6.6c2.6,1.9,5.4,2.6,8.6,2.4c0.1,0,0.3,0,0.4-0.1
			c0.1-0.1,0.2,0,0.3,0c0.6,0.4,1.2,0.5,1.9,0.5c1.1,0,2.2,0,3.3,0v-1c-1.1,0-2.3,0-3.4,0c-1.1,0-2.1-0.9-2.4-2
			c-0.2-1,0.1-1.9,0.9-2.6c0.8-0.6,1.9-0.7,2.8-0.3c0.1,0.1,0.3,0.1,0.4,0.1c0.2,0,0.4-0.2,0.4-0.4c0.1-0.6,0.3-1.2,0.7-1.7
			c1-1.5,2.7-2.3,4.4-1.9c1.8,0.4,3,1.5,3.5,3.3c0,0.2,0.1,0.3,0.2,0.4c0.2,0.1,0.5,0.1,0.6-0.1c0.3-0.4,0.7-0.6,1.2-0.5
			c0.5,0.1,0.8,0.4,1,0.8c0.1,0.2,0.1,0.5,0,0.8c-0.1,0.4,0.2,0.7,0.6,0.6c0.4-0.1,0.9-0.1,1.3,0.1c0.8,0.4,1.2,1.2,1,2
			c-0.2,0.8-0.9,1.4-1.8,1.4c-1.1,0-2.3,0-3.4,0v1c1.1,0,2.3,0,3.4,0c0.1,0,0.3,0,0.4,0c1.3-0.2,2.4-1.3,2.4-2.7
			C44.9,31,43.9,29.8,42.6,29.6z M7.6,23.6L7.6,23.6c-1.6,0-3.2,0-4.8,0c-0.9,0-1.6-0.7-1.6-1.6c0-0.9,0.7-1.6,1.6-1.6
			c0.3,0,0.5,0.1,0.8,0.2c0.4,0.2,0.7,0,0.8-0.4c0.3-1.8,2.1-2.8,3.8-2.2c0.9,0.4,1.5,1,1.8,2c0,0.2,0.2,0.3,0.4,0.4
			c0.2,0.1,0.4,0,0.5-0.2c0.6-0.7,1.3-0.9,2.2-0.7c0.8,0.2,1.3,0.7,1.5,1.6c0.3,1.3-0.7,2.5-2,2.5C10.8,23.6,9.2,23.6,7.6,23.6z
			 M34.8,24.4c-1.4-0.3-2.7-0.1-4,0.6c-1.2,0.7-2,1.8-2.4,3.2c-1.7-0.4-3.1-0.1-4.1,1.3c-0.7,0.9-1,2.6,0,4.1
			c-2.6,0.2-5-0.4-7.2-1.8c-3-2-4.6-5-5-7.3c1,0,1.8-0.3,2.5-1c0.5-0.5,0.7-1.2,0.7-1.9c0.1-1.4-1-3-2.9-3.1c1.5-3.8,4.1-6.3,8-7.4
			c4.2-1.2,8.7,0.2,11.6,3.4C35,17.7,35.4,21.7,34.8,24.4z"/>
	</g>
</g>
<path class="st0" d="M36.9,33c-0.5,1-1,2-1.5,3.1c0.8,0,1.6,0,2.4,0c0,0,0,0.1,0,0.1c-2,2.7-4,5.4-6,8c0,0,0,0,0,0
	c0.4-1.7,0.8-3.5,1.1-5.2c-0.7,0-1.3,0-2,0c0.2-0.7,0.4-1.3,0.5-1.9c0.4-1.3,0.7-2.6,1.1-3.9c0-0.2,0.1-0.2,0.3-0.2
	c1.3,0,2.6,0,3.8,0C36.8,33,36.8,33,36.9,33z M34.1,38c-0.2,1-0.5,2.1-0.7,3.1c0,0,0,0,0.1,0c0.8-1.3,1.6-2.6,2.4-4
	c-0.5,0-1,0-1.5,0c0.3-1,0.7-2,1-2.9c-0.6,0-1.1,0-1.7,0c-0.2,0-0.3,0.1-0.3,0.3c-0.3,1.1-0.7,2.2-1,3.3c0,0.1,0,0.2-0.1,0.3
	C32.9,38,33.5,38,34.1,38z"/>
</svg>
