<?xml version="1.0" encoding="utf-8"?>
<!-- Generator: Adobe Illustrator 27.3.1, SVG Export Plug-In . SVG Version: 6.00 Build 0)  -->
<svg version="1.1" id="Layer_1" xmlns="http://www.w3.org/2000/svg" xmlns:xlink="http://www.w3.org/1999/xlink" x="0px" y="0px"
	 viewBox="0 0 45.8 45.8" style="enable-background:new 0 0 45.8 45.8;" xml:space="preserve">
<style type="text/css">
	.st0{fill:#55738A;}
</style>
<g id="pLLwGH_00000083070272104823205730000009978781712851381942_">
	<g>
		<path class="st0" d="M34.6,35.4c0,0.8,0.1,1.5,0.1,2.3c0,0.7-0.3,1.1-1,1.1c-0.6,0-1-0.3-1-1c0-0.7-0.1-1.5-0.1-2.3
			c-0.5,0.3-0.8,0.6-1.3,0.9c-0.2,0.2-0.5,0.3-0.8,0.6c-0.5,0.3-1.1,0.2-1.4-0.2c-0.3-0.5-0.2-1,0.2-1.4c0.6-0.5,1.3-0.9,1.8-1.4
			c0.1-0.1,0.2-0.1,0.3-0.2c-0.8-0.5-1.6-0.8-2.3-1.3c-0.5-0.2-0.6-0.6-0.6-1c0.1-0.5,0.3-0.7,0.8-0.8c0.2,0,0.6,0,0.9,0.1
			c0.7,0.3,1.3,0.7,1.9,1c0-0.8-0.1-1.6-0.1-2.3c0-0.5,0.1-0.8,0.6-0.9c0.3-0.1,0.8-0.1,1,0c0.2,0.1,0.5,0.6,0.5,0.9
			c0.1,0.7,0.1,1.5,0.1,2.3c0.7-0.5,1.3-0.9,1.8-1.4c0.2-0.1,0.6-0.2,0.8-0.2c0.5,0,0.7,0.3,0.8,0.7c0.1,0.5,0,0.8-0.3,1.1
			c-0.7,0.6-1.4,1-2.2,1.6c0.8,0.5,1.5,0.8,2.2,1.3c0.2,0.1,0.6,0.5,0.7,0.7c0.2,0.3,0,0.8-0.3,1C37.5,37,37,37,36.7,36.8
			c-0.6-0.2-1-0.6-1.6-0.9C35,35.5,34.9,35.5,34.6,35.4z"/>
		<path class="st0" d="M22.2,37.8c0,0.4-0.1,0.9-0.1,1.3s-0.3,0.7-0.7,0.5c-0.3,0-0.5-0.3-0.5-0.7c0-0.4,0.1-0.8,0.1-1.3
			c-0.3,0.1-0.5,0.2-0.8,0.4c-0.1,0.1-0.3,0.2-0.4,0.2c-0.3,0.1-0.7,0-0.8-0.2c-0.1-0.3,0-0.7,0.2-0.8c0.3-0.2,0.8-0.4,1.2-0.5
			c0.1,0,0.1-0.1,0.2-0.1c-0.4-0.3-0.8-0.7-1.2-1c-0.2-0.2-0.2-0.4-0.2-0.7c0.1-0.2,0.2-0.4,0.5-0.3c0.1,0,0.3,0.1,0.4,0.2
			c0.3,0.2,0.7,0.5,1,0.8c0-0.4,0.1-0.9,0.1-1.3c0-0.2,0.1-0.4,0.4-0.5c0.2,0,0.4,0,0.5,0.1c0.1,0.1,0.2,0.3,0.2,0.5
			c0,0.4-0.1,0.9-0.1,1.3c0.4-0.2,0.8-0.4,1.2-0.5c0.1-0.1,0.3-0.1,0.5-0.1s0.3,0.2,0.4,0.4c0,0.2-0.1,0.4-0.3,0.5
			c-0.4,0.2-0.9,0.4-1.4,0.7c0.4,0.3,0.8,0.5,1.1,0.9c0.1,0.1,0.2,0.3,0.3,0.4c0.1,0.2,0,0.4-0.2,0.5c-0.2,0.1-0.4,0.1-0.7,0
			c-0.3-0.2-0.5-0.4-0.9-0.7C22.4,37.9,22.4,37.9,22.2,37.8z"/>
		<g id="VR6lMS_00000130632105423438558200000009002682521712259247_">
			<g>
				<path class="st0" d="M23,42.9c-4.2,0-8.4-0.1-12.6-0.1c-2.7,0-4.9-1.1-6.8-3c-1.8-1.9-2.7-4.1-2.8-6.7c0-3.7,2.4-7.4,5.8-8.8
					c0.4-0.2,0.8-0.2,1.1-0.5C8,23.5,8,23.1,8.2,22.7c0.1-0.3,0.3-0.7,0.4-1c0.1-0.2,0.1-0.3-0.1-0.4c-0.8-0.8-1.6-1.7-2.2-2.6
					c-1.3-2.1-1.8-4.4-1.5-6.8c0.5-4.1,2.7-7.1,6.5-8.8c6.3-3,13.3,0.4,15.5,6.6c0.4,1,0.5,2.1,0.5,3.1c0,0.4,0,0.4,0.4,0.4
					c5.3-0.1,10,3.4,11.8,8c0.4,1,0.7,2.1,0.8,3.2c0,0.2,0.2,0.4,0.3,0.5c0.6,0.6,1.3,1.1,1.9,1.7c1.6,1.8,2.5,3.9,2.6,6.3
					c0.1,4.2-2.7,8.1-6.7,9.4c-0.8,0.3-1.7,0.5-2.6,0.5c-2.1,0-4.3,0-6.4,0.1C27.3,42.9,25.2,42.8,23,42.9C23,42.9,23,42.9,23,42.9z
					 M17.5,20.9c-0.1-0.1-0.2-0.1-0.3-0.2c-1-0.7-2.1-0.9-3.3-0.9c-2.4,0.1-4.6,2.1-4.8,4.5c0,0.6-0.1,0.6-0.6,0.8
					c-0.1,0-0.1,0-0.2,0.1c-3.7,1.1-6.8,4.5-5.9,9.6c0.5,2.8,2.1,4.8,4.7,6c1,0.5,2.1,0.7,3.3,0.7c5,0,9.9,0,14.9,0
					c3.5,0,7,0,10.5,0c0.6,0,1.2,0,1.7-0.2c5-1.2,7.7-6.4,5.7-11.4c-0.7-1.8-2-3.1-3.8-4c-0.2-0.1-0.3-0.2-0.3-0.5
					c-0.1-1.3-0.3-2.5-0.8-3.7c-1.8-4.1-4.9-6.4-9.2-6.9c-4.5-0.5-8.2,1.2-10.8,4.9C18,20.1,17.8,20.5,17.5,20.9z M6.1,13
					c0,0.2,0,0.5,0,0.7c0,0.2,0,0.4,0.1,0.6c0.3,2.1,1.2,3.9,2.7,5.5c0.7,0.7,0.5,0.7,1.2,0.1c1.9-1.5,4-1.8,6.3-1.1
					c0.6,0.2,0.6,0.2,1-0.3c2.1-2.6,4.8-4.4,8.1-5c0.4-0.1,0.4-0.1,0.4-0.5c0-2.5-0.9-4.7-2.6-6.4c-2.6-2.8-5.9-3.6-9.6-2.8
					C9.3,4.6,6.1,8.5,6.1,13z"/>
			</g>
		</g>
	</g>
</g>
</svg>
