<svg id="Group_132" data-name="Group 132" xmlns="http://www.w3.org/2000/svg" xmlns:xlink="http://www.w3.org/1999/xlink" width="227.661" height="212.338" viewBox="0 0 227.661 212.338">
  <defs>
    <clipPath id="clip-path">
      <rect id="Rectangle_83" data-name="Rectangle 83" width="227.661" height="212.338" fill="none"/>
    </clipPath>
  </defs>
  <g id="Group_121" data-name="Group 121">
    <g id="Group_120" data-name="Group 120" clip-path="url(#clip-path)">
      <path id="Path_125" data-name="Path 125" d="M216.542,131.618c0,38.484-34.653,69.718-77.321,69.718-42.727,0-77.321-31.235-77.321-69.718S96.494,61.9,139.221,61.9s77.321,31.235,77.321,69.718" transform="translate(-25.42 -25.42)" fill="#ecebea"/>
      <path id="Path_126" data-name="Path 126" d="M113.8,212.4C51.037,212.4,0,164.778,0,106.2S51.037,0,113.8,0s113.86,47.618,113.86,106.2-51.1,106.2-113.86,106.2" fill="#56632c"/>
      <path id="Path_127" data-name="Path 127" d="M215.238,134.37c0,36.362-32.708,65.77-73.019,65.77S69.2,170.673,69.2,134.37c0-36.362,32.708-65.77,73.019-65.77s73.019,29.408,73.019,65.77" transform="translate(-28.418 -28.172)" fill="#e8e4eb"/>
      <path id="Path_128" data-name="Path 128" d="M210.487,139.743l-.118-1.12H175.127l22.984-12.081a7.056,7.056,0,0,0,3.713-5.068,6.9,6.9,0,0,0-1.532-5.893l-.589-.707-32.885,17.268L180.9,109.982a7.266,7.266,0,0,0,.825-6.129,7.175,7.175,0,0,0-4.125-4.538l-.884-.354-19.271,30.41V99.433a4.743,4.743,0,0,0-4.656-4.833c-1.179,0-2.357.059-3.595.118h-.059c-.354,0-.707.059-1.061.059v34.594L129.335,99.786l-.589-.766-.884.354a6.966,6.966,0,0,0-4.066,4.538,7.266,7.266,0,0,0,.825,6.129l14.085,22.218L106.587,115.4l-.884-.354-.589.707a7.223,7.223,0,0,0,2.239,10.9L130.4,138.741h-35.3l-.118,1q-.177,2.033-.177,3.713a4.692,4.692,0,0,0,4.656,4.774h38.307c.648-6.188,7.072-11.08,14.969-11.08s14.321,4.891,14.969,11.08h38.307a4.744,4.744,0,0,0,4.656-4.833c0-1.12-.059-2.3-.177-3.654" transform="translate(-38.931 -38.849)" fill="#cfa156"/>
      <path id="Path_129" data-name="Path 129" d="M201.771,201.4h-91.76c-7.131,0-10.313,6.483-4.774,9.665a15.687,15.687,0,0,0,14.969,0l13.673-7.013,13.673,7.013a15.687,15.687,0,0,0,14.969,0l14.616-6.836,14.616,6.836a15.687,15.687,0,0,0,14.969,0c5.363-3.241,2.181-9.665-4.95-9.665" transform="translate(-42.061 -82.708)" fill="#4c748c"/>
      <path id="Path_130" data-name="Path 130" d="M197.087,257.389l-7.249-3.536a18.952,18.952,0,0,0-14.792,0l-7.9,3.831a1.964,1.964,0,0,0-.648.53,59.1,59.1,0,0,0,15.617,2.063,59.782,59.782,0,0,0,15.794-2.122,2.1,2.1,0,0,0-.825-.766" transform="translate(-68.375 -103.631)" fill="#4c748c"/>
      <path id="Path_131" data-name="Path 131" d="M202.3,231.7h-79.8c-3.89,0-5.658,2.888-2.593,4.3l9.488,4.42a21.033,21.033,0,0,0,16.678,0l16.325-6.07,16.325,6.07a21.033,21.033,0,0,0,16.678,0L204.9,236c3.065-1.414,1.3-4.3-2.593-4.3" transform="translate(-48.605 -95.151)" fill="#3ba7c4"/>
    </g>
  </g>
  <path id="Path_132" data-name="Path 132" d="M50.443,109.335,41.426,104.8l7.544,7.485-1.65,3.241L36.77,113.814l9.076,4.6-2.063,4.066L27.4,114.168l2.593-5.127,12.73,2.063-9.194-9.135L36.122,96.9l16.442,8.31Z" transform="translate(-11.252 -39.793)" fill="#e8e4eb"/>
  <g id="Group_123" data-name="Group 123">
    <g id="Group_122" data-name="Group 122" clip-path="url(#clip-path)">
      <path id="Path_133" data-name="Path 133" d="M71.248,80.154a3.345,3.345,0,0,0,1.061-3.065,6.906,6.906,0,0,0-2.181-3.536c-2.593-2.534-4.774-2.829-6.6-1a3.205,3.205,0,0,0-1.061,3.065,6.906,6.906,0,0,0,2.181,3.536,7.1,7.1,0,0,0,3.595,2.122,3.384,3.384,0,0,0,3.006-1.12m3.065,3.006a9.183,9.183,0,0,1-4.243,2.652,7.474,7.474,0,0,1-4.538-.118,10.827,10.827,0,0,1-4.42-2.829c-2.181-2.122-3.359-4.361-3.418-6.718a8.681,8.681,0,0,1,2.829-6.6,9.183,9.183,0,0,1,4.243-2.652,7.474,7.474,0,0,1,4.538.118,10.827,10.827,0,0,1,4.42,2.829c2.181,2.122,3.359,4.361,3.418,6.718a9.124,9.124,0,0,1-2.829,6.6" transform="translate(-23.688 -27.349)" fill="#e8e4eb"/>
    </g>
  </g>
  <path id="Path_134" data-name="Path 134" d="M105.553,56.134l-11.08-5.658,5.363,9.076-4.007,2.357L86.4,46.115l3.713-2.239,11.08,5.717-5.363-9.076L99.837,38.1l9.429,15.853Z" transform="translate(-35.481 -15.646)" fill="#e8e4eb"/>
  <g id="Group_125" data-name="Group 125">
    <g id="Group_124" data-name="Group 124" clip-path="url(#clip-path)">
      <path id="Path_135" data-name="Path 135" d="M173.807,31.533l-2.947.236-.354-4.007,7.485-.648.707,8.369a11.458,11.458,0,0,1-3.418,2.239,14.092,14.092,0,0,1-4.184,1.061,9.019,9.019,0,0,1-6.9-1.886,9.734,9.734,0,0,1-2.947-6.836,11.95,11.95,0,0,1,.589-5.363,7.719,7.719,0,0,1,2.77-3.595,9.7,9.7,0,0,1,4.656-1.532,8.183,8.183,0,0,1,5.363,1.12,6.807,6.807,0,0,1,2.888,4.184l-4.891.943a3.169,3.169,0,0,0-1.12-1.65,2.827,2.827,0,0,0-1.945-.413,3.193,3.193,0,0,0-2.711,1.591,7.776,7.776,0,0,0-.589,4.184,6.913,6.913,0,0,0,1.414,4.125,3.785,3.785,0,0,0,3.418,1,6.445,6.445,0,0,0,2.829-.943Z" transform="translate(-66.194 -8.018)" fill="#e8e4eb"/>
      <path id="Path_136" data-name="Path 136" d="M210.448,35.993a3.368,3.368,0,0,0,3.123-.884,6.419,6.419,0,0,0,1.591-3.831c.589-3.595-.413-5.54-3.006-5.952a3.368,3.368,0,0,0-3.123.884,6.257,6.257,0,0,0-1.591,3.831,6.75,6.75,0,0,0,.354,4.184,3.287,3.287,0,0,0,2.652,1.768m-.707,4.184a9.606,9.606,0,0,1-4.6-1.886,7.562,7.562,0,0,1-2.534-3.772,11.787,11.787,0,0,1-.236-5.245,10.1,10.1,0,0,1,3.536-6.718,8.752,8.752,0,0,1,7.013-1.473,9.607,9.607,0,0,1,4.6,1.886,7.562,7.562,0,0,1,2.534,3.772,11.786,11.786,0,0,1,.236,5.245,10.1,10.1,0,0,1-3.536,6.718,8.8,8.8,0,0,1-7.013,1.473" transform="translate(-83.034 -8.589)" fill="#e8e4eb"/>
    </g>
  </g>
  <path id="Path_137" data-name="Path 137" d="M251.437,51.707l4.125-9.253-7.131,7.9-3.3-1.473L246.31,38.27l-4.125,9.253L238,45.7l7.544-16.8,5.245,2.3L249.315,44.1l8.663-9.665,5.245,2.357-7.544,16.8Z" transform="translate(-97.738 -11.868)" fill="#e8e4eb"/>
  <path id="Path_138" data-name="Path 138" d="M276.9,67.162,288.569,52.9l10.2,8.31-2.593,3.182-6.483-5.3-1.827,2.3,6.07,4.95-2.593,3.182-6.07-4.95-2.063,2.475,6.9,5.658-2.888,2.888Z" transform="translate(-113.713 -21.724)" fill="#e8e4eb"/>
  <g id="Group_127" data-name="Group 127">
    <g id="Group_126" data-name="Group 126" clip-path="url(#clip-path)">
      <path id="Path_139" data-name="Path 139" d="M314.135,90.949a3.287,3.287,0,0,0,1.65,1.355,2.383,2.383,0,0,0,1.768-.471,1.849,1.849,0,0,0,.884-1.532,3.586,3.586,0,0,0-.884-2.063L316.2,86.411,312.662,89Zm-6.247,8.722,3.3-6.188L309.6,91.3l-5.127,3.772L301.7,91.3l14.792-10.9,4.3,5.834a8.8,8.8,0,0,1,2.063,5.3A5.145,5.145,0,0,1,320.5,95.6a6.87,6.87,0,0,1-2.947,1.3,4.9,4.9,0,0,1-2.888-.413l-3.654,7.367Z" transform="translate(-123.897 -33.017)" fill="#e8e4eb"/>
    </g>
  </g>
  <path id="Path_140" data-name="Path 140" d="M322.9,123.812l6.6-2.652,8.192-9.96,1.945,5.009-5.245,5.658,7.779.53,1.886,4.833-12.73-1.473-6.6,2.652Z" transform="translate(-132.603 -45.666)" fill="#e8e4eb"/>
  <g id="Group_129" data-name="Group 129">
    <g id="Group_128" data-name="Group 128" clip-path="url(#clip-path)">
      <path id="Path_141" data-name="Path 141" d="M125.347,27.99a2.227,2.227,0,0,0-1.414,2.77l.589,2,.236-.059,2.77-.884,2-.589,4.243,13.614,4.656-1.473-4.243-13.614,2.947-.884a2.227,2.227,0,0,0,1.414-2.77l-.589-2Z" transform="translate(-50.855 -9.897)" fill="#e8e4eb"/>
    </g>
  </g>
  <path id="Path_142" data-name="Path 142" d="M37.368,244.177l8.9-8.192L34.716,239.58,32.3,235.337,45.855,221.9l2.593,4.6L39.2,234.512l11.61-3.654,2.239,3.949L44.028,243l11.61-4.007,2.534,4.42L39.785,248.42Z" transform="translate(-13.264 -91.126)" fill="#e8e4eb"/>
  <path id="Path_143" data-name="Path 143" d="M69.992,285.239l4.833-5.481-4.479-3.948-4.833,5.422L61.8,277.99,74.058,264.2l3.713,3.3-4.479,4.951,4.479,4.008,4.42-5.009,3.713,3.3L73.7,288.481Z" transform="translate(-25.379 -108.497)" fill="#e8e4eb"/>
  <rect id="Rectangle_88" data-name="Rectangle 88" width="18.388" height="4.951" transform="translate(56.899 185.486) rotate(-59.982)" fill="#e8e4eb"/>
  <path id="Path_144" data-name="Path 144" d="M160.2,325.969l2-18.269,13.083,1.414-.413,4.066-8.31-.943-.295,2.947,7.779.825-.471,4.066-7.779-.825-.354,3.182,8.84,1-.884,4.007Z" transform="translate(-65.788 -126.361)" fill="#e8e4eb"/>
  <path id="Path_145" data-name="Path 145" d="M211.739,324.484l-4.42-11.256-.825,12.023-4.833.766L194,308.572l5.245-.825L203.37,319.3l.766-12.14,4.538-.707,4.361,11.374.471-12.258,5.009-.766-1.886,18.918Z" transform="translate(-79.669 -125.17)" fill="#e8e4eb"/>
  <path id="Path_146" data-name="Path 146" d="M251.461,300.963l.766,6.6,3.477-1.473Zm9.253,11.08-2.357-2.829-5.717,2.475.471,3.654-4.6,1.945L247.1,297.839l5.186-2.239,13.142,14.38Z" transform="translate(-101.475 -121.392)" fill="#e8e4eb"/>
  <path id="Path_147" data-name="Path 147" d="M310.585,272.482l-14.085-11.9,8.545-10.078,3.123,2.652-5.422,6.365,2.239,1.945,5.068-6.011,3.124,2.652-5.068,5.952,2.475,2.122L316.3,259.4l2.888,2.947Z" transform="translate(-121.762 -102.871)" fill="#e8e4eb"/>
  <g id="Group_131" data-name="Group 131">
    <g id="Group_130" data-name="Group 130" clip-path="url(#clip-path)">
      <path id="Path_148" data-name="Path 148" d="M327.231,230.87a2.945,2.945,0,0,0,.354-2.122,2.012,2.012,0,0,0-1.3-1.3,1.887,1.887,0,0,0-1.768-.059,3.858,3.858,0,0,0-1.414,1.709l-.943,2.063,4.007,1.886Zm10.608,1.3-7.013.059-1.12,2.416,5.776,2.652-2,4.3L316.8,233.816l3.065-6.6a8.679,8.679,0,0,1,3.654-4.361,5.321,5.321,0,0,1,4.715.118,6.615,6.615,0,0,1,2.534,1.945,5.688,5.688,0,0,1,1.061,2.77l8.251-.295Z" transform="translate(-130.098 -91.315)" fill="#e8e4eb"/>
      <path id="Path_149" data-name="Path 149" d="M130.018,298.013a2.18,2.18,0,0,0-2.77,1.414l-.648,1.945.177.059,2.77.943,1.945.648-4.656,13.5,4.6,1.591,4.656-13.5,2.888,1a2.18,2.18,0,0,0,2.77-1.414l.648-1.945Z" transform="translate(-51.99 -122.332)" fill="#e8e4eb"/>
      <path id="Path_150" data-name="Path 150" d="M270.685,282.061a2.226,2.226,0,0,0-.471,3.065l1.238,1.709.177-.118,2.357-1.709,1.709-1.238,8.369,11.551,3.949-2.829-8.369-11.551,2.475-1.768a2.226,2.226,0,0,0,.471-3.065l-1.238-1.709Z" transform="translate(-110.798 -112.686)" fill="#e8e4eb"/>
    </g>
  </g>
</svg>
