<svg id="MW_CompleteLogo_Color_Web" xmlns="http://www.w3.org/2000/svg" width="205.804" height="172.725" viewBox="0 0 205.804 172.725">
  <path id="Path_27" data-name="Path 27" d="M110.3,373.9l-4.788,13.925-4.544-13.681-.1-.244H95.4v20.277h4.349V382.744l3.86,11.189.049.244h3.665l3.909-11.434v11.434h4.4V373.9Z" transform="translate(-95.4 -254.385)" fill="#332e20"/>
  <g id="Group_22" data-name="Group 22" transform="translate(23.502 118.977)">
    <path id="Path_28" data-name="Path 28" d="M157.963,383.452a8.044,8.044,0,0,1-1.222,4.837,4.751,4.751,0,0,1-7.134,0,8.4,8.4,0,0,1-1.222-4.837,8.044,8.044,0,0,1,1.222-4.837,4.751,4.751,0,0,1,7.134,0,8.246,8.246,0,0,1,1.222,4.837m2.394,7.769a8.708,8.708,0,0,0,1.857-3.371,13.654,13.654,0,0,0,.635-4.4,13.861,13.861,0,0,0-.635-4.4,9.478,9.478,0,0,0-1.906-3.371,8.368,8.368,0,0,0-3.029-2.15,11.451,11.451,0,0,0-8.062,0,8.55,8.55,0,0,0-3.078,2.15,9.569,9.569,0,0,0-1.954,3.371,13.618,13.618,0,0,0-.684,4.4,13.837,13.837,0,0,0,.684,4.4,9.478,9.478,0,0,0,1.906,3.371,8.368,8.368,0,0,0,3.029,2.15,11.587,11.587,0,0,0,8.111,0,7.96,7.96,0,0,0,3.127-2.15" transform="translate(-143.5 -372.8)" fill="#332e20"/>
  </g>
  <path id="Path_29" data-name="Path 29" d="M201.627,385.92l-7.476-11.873-.1-.147H189.9v20.277h4.642V382.206l7.525,11.873.049.1h4.153V373.9h-4.642Z" transform="translate(-143.726 -254.385)" fill="#332e20"/>
  <g id="Group_23" data-name="Group 23" transform="translate(65.572 118.977)">
    <path id="Path_30" data-name="Path 30" d="M229.6,376.148V378.1h5.912v16.027H240.3V378.1h3.665a2.273,2.273,0,0,0,2.248-2.248V373.9H231.9a2.253,2.253,0,0,0-2.3,2.248" transform="translate(-229.6 -373.363)" fill="#332e20"/>
    <path id="Path_31" data-name="Path 31" d="M276.226,386.388h3.713v2.736a6.336,6.336,0,0,1-1.564.684,8.985,8.985,0,0,1-2.15.244,4.077,4.077,0,0,1-3.616-1.612,10.973,10.973,0,0,1,0-9.675,3.616,3.616,0,0,1,3.274-1.661,4.877,4.877,0,0,1,1.564.2,2.117,2.117,0,0,1,.977.537,2.556,2.556,0,0,1,.586.831,6.539,6.539,0,0,1,.391,1.27l.049.293,4.691-.586-.049-.342a8.019,8.019,0,0,0-.831-2.443,6.341,6.341,0,0,0-1.564-2,7.146,7.146,0,0,0-2.394-1.368,11.114,11.114,0,0,0-7.231.244,8.191,8.191,0,0,0-2.981,2.15,10.2,10.2,0,0,0-1.857,3.371,13.654,13.654,0,0,0-.635,4.4,14.758,14.758,0,0,0,.586,4.3,8.625,8.625,0,0,0,1.808,3.371,7.614,7.614,0,0,0,3.029,2.15,11.109,11.109,0,0,0,4.2.782,12.275,12.275,0,0,0,4.4-.782,10.96,10.96,0,0,0,3.713-2.248l.1-.1v-8.746h-8.16v4.007Z" transform="translate(-248.521 -372.902)" fill="#332e20"/>
    <path id="Path_32" data-name="Path 32" d="M314.684,383.452a8.044,8.044,0,0,1,1.222-4.837,4.751,4.751,0,0,1,7.134,0,8.4,8.4,0,0,1,1.222,4.837,8.044,8.044,0,0,1-1.222,4.837,4.751,4.751,0,0,1-7.134,0,7.945,7.945,0,0,1-1.222-4.837m-2.3,7.769a8.368,8.368,0,0,0,3.029,2.15,11.587,11.587,0,0,0,8.111,0,8.368,8.368,0,0,0,3.029-2.15,8.708,8.708,0,0,0,1.857-3.371,13.654,13.654,0,0,0,.635-4.4,13.861,13.861,0,0,0-.635-4.4,9.478,9.478,0,0,0-1.906-3.371,8.368,8.368,0,0,0-3.029-2.15,11.451,11.451,0,0,0-8.062,0,8.55,8.55,0,0,0-3.078,2.15,10.372,10.372,0,0,0-1.954,3.371,13.617,13.617,0,0,0-.684,4.4,13.837,13.837,0,0,0,.684,4.4,9.664,9.664,0,0,0,2,3.371" transform="translate(-270.562 -372.8)" fill="#332e20"/>
  </g>
  <path id="Path_33" data-name="Path 33" d="M361.249,382.744l3.86,11.189.049.244h3.665l3.909-11.434v11.434h4.4V373.9H371.8l-4.788,13.925-4.593-13.681-.049-.244H356.9v20.277h4.349Z" transform="translate(-229.128 -254.385)" fill="#332e20"/>
  <path id="Path_34" data-name="Path 34" d="M422.41,390.024h-9.87v-4.2h8.7v-4.153h-8.7v-3.616h9.235V373.9H407.8v20.277h14.121Z" transform="translate(-255.157 -254.385)" fill="#332e20"/>
  <g id="Group_24" data-name="Group 24" transform="translate(170.624 119.612)">
    <path id="Path_35" data-name="Path 35" d="M455.105,380.354a3.811,3.811,0,0,1-.147,1.075,1.417,1.417,0,0,1-.44.733,1.89,1.89,0,0,1-.88.489,4.259,4.259,0,0,1-1.466.2H449.34v-4.788h2.492a5.334,5.334,0,0,1,1.661.2,2.621,2.621,0,0,1,.977.489,1.5,1.5,0,0,1,.489.733,2.557,2.557,0,0,1,.147.88m1.906,5.424a5.664,5.664,0,0,0,2.15-2.15,6.955,6.955,0,0,0,.733-3.323,6.8,6.8,0,0,0-.342-2.15,4.815,4.815,0,0,0-1.27-2.052,6.13,6.13,0,0,0-2.492-1.466,11.264,11.264,0,0,0-3.909-.537H444.6v20.229h4.691V387h3.323l3.274,7.329h5.13Z" transform="translate(-444.6 -374.1)" fill="#332e20"/>
  </g>
  <path id="Path_36" data-name="Path 36" d="M492.035,373.9l-4.153,7.574-3.958-7.378-.1-.2H478.5l7.036,12.02v8.258h4.74V385.92l6.841-12.02Z" transform="translate(-291.312 -254.385)" fill="#332e20"/>
  <path id="Path_37" data-name="Path 37" d="M129.892,441.3l-2.736,12.508L124.127,441.5l-.049-.1H119.24l-2.932,12.411L113.426,441.4v-.1H108.1l5.766,19.984.049.244h4.4l3.274-13.437,3.42,13.437h4.446l5.521-20.229Z" transform="translate(-101.895 -288.853)" fill="#332e20"/>
  <path id="Path_38" data-name="Path 38" d="M180.673,441.3v7.573H173.54V441.3H168.8v20.229h4.74V453.32h7.134v8.209h4.74V441.3Z" transform="translate(-132.936 -288.853)" fill="#332e20"/>
  <rect id="Rectangle_17" data-name="Rectangle 17" width="4.74" height="20.229" transform="translate(56.875 152.447)" fill="#332e20"/>
  <g id="Group_25" data-name="Group 25" transform="translate(64.839 152.447)">
    <path id="Path_39" data-name="Path 39" d="M228.1,443.548V445.5h5.912v16.026H238.8V445.5h3.665a2.273,2.273,0,0,0,2.248-2.248V441.3H230.4a2.284,2.284,0,0,0-2.3,2.248" transform="translate(-228.1 -441.3)" fill="#332e20"/>
  </g>
  <path id="Path_40" data-name="Path 40" d="M268.2,441.3v20.229h14.17l.489-4.1H272.94v-4.2h8.746v-4.153H272.94v-3.616h9.284V441.3Z" transform="translate(-183.768 -288.853)" fill="#332e20"/>
  <path id="Path_41" data-name="Path 41" d="M325.092,441.3l-2.736,12.508L319.326,441.5l-.049-.1H314.44l-2.932,12.411L308.626,441.4l-.049-.1H303.3l5.766,19.984.049.244h4.4l3.274-13.437,3.371,13.437h4.5l5.521-20.229Z" transform="translate(-201.717 -288.853)" fill="#332e20"/>
  <path id="Path_42" data-name="Path 42" d="M365.223,447.31l1.906,5.668h-3.811Zm-2.1-6.01L355.6,461.333l-.1.2h4.935L362,456.984h6.45l1.564,4.544h5.082L367.569,441.5l-.1-.2Z" transform="translate(-228.412 -288.853)" fill="#332e20"/>
  <g id="Group_26" data-name="Group 26" transform="translate(145.509 152.447)">
    <path id="Path_43" data-name="Path 43" d="M393.2,443.548V445.5h5.912v16.026H403.9V445.5h3.665a2.273,2.273,0,0,0,2.248-2.248V441.3H395.5a2.284,2.284,0,0,0-2.3,2.248" transform="translate(-393.2 -441.3)" fill="#332e20"/>
  </g>
  <path id="Path_44" data-name="Path 44" d="M433.3,441.3v20.229h14.121l.489-4.1h-9.87v-4.2h8.746v-4.153H438.04v-3.616h9.284V441.3Z" transform="translate(-268.198 -288.853)" fill="#332e20"/>
  <g id="Group_27" data-name="Group 27" transform="translate(47.395 0)">
    <path id="Path_45" data-name="Path 45" d="M480.705,447.7a3.811,3.811,0,0,1-.147,1.075,1.417,1.417,0,0,1-.44.733,1.889,1.889,0,0,1-.879.489,4.258,4.258,0,0,1-1.466.2H474.94v-4.788h2.492a5.336,5.336,0,0,1,1.661.2,2.621,2.621,0,0,1,.977.489,1.5,1.5,0,0,1,.489.733,2.367,2.367,0,0,1,.147.879m4.055,3.225a7.492,7.492,0,0,0,.391-5.472,4.815,4.815,0,0,0-1.27-2.052,6.13,6.13,0,0,0-2.492-1.466,11.264,11.264,0,0,0-3.909-.537H470.2v20.229h4.691V454.3h3.323l3.274,7.329h5.13l-4.055-8.5a5.909,5.909,0,0,0,2.2-2.2" transform="translate(-334.463 -288.904)" fill="#332e20"/>
    <path id="Path_46" data-name="Path 46" d="M296.3,252.4H208.5c-6.841,0-9.87,6.205-4.544,9.284h0a15.068,15.068,0,0,0,14.268,0l13.046-6.694,13.046,6.694a15.068,15.068,0,0,0,14.267,0l13.925-6.547,13.925,6.547a15.068,15.068,0,0,0,14.268,0h0c5.472-3.078,2.443-9.284-4.4-9.284" transform="translate(-196.921 -192.252)" fill="#4c748c"/>
    <path id="Path_47" data-name="Path 47" d="M304.519,316.076l-6.938-3.371a18.154,18.154,0,0,0-14.121,0l-7.525,3.665a1.764,1.764,0,0,0-.635.537,57.241,57.241,0,0,0,14.952,2,56.335,56.335,0,0,0,15.1-2.052,1.629,1.629,0,0,0-.831-.782" transform="translate(-234.794 -222.36)" fill="#4c748c"/>
    <path id="Path_48" data-name="Path 48" d="M300.048,287.4H223.825c-3.762,0-5.424,2.736-2.492,4.1l9.039,4.251a20.476,20.476,0,0,0,15.929,0l15.636-5.766,15.636,5.766a20.476,20.476,0,0,0,15.929,0l9.039-4.251c2.932-1.368,1.27-4.1-2.492-4.1" transform="translate(-206.43 -210.15)" fill="#3ba7c4"/>
    <path id="Path_49" data-name="Path 49" d="M303.071,172.445l-.1-1.075H269.259l21.988-11.531a6.89,6.89,0,0,0,2.052-10.456l-.586-.684-31.418,16.515,13.437-21.206a6.923,6.923,0,0,0,.782-5.863,6.628,6.628,0,0,0-3.958-4.349l-.831-.342L252.3,162.526V133.893a4.536,4.536,0,0,0-4.5-4.593h0c-1.124,0-2.3.049-3.42.1h-.049c-.342,0-.684.049-1.026.049v33.03L225.43,134.235l-.537-.782-.831.342a6.846,6.846,0,0,0-3.909,4.3,7.236,7.236,0,0,0,.782,5.863l13.437,21.206L203.687,149.04l-.831-.342-.586.684a6.663,6.663,0,0,0-1.368,5.57,6.8,6.8,0,0,0,3.518,4.837l21.988,11.58H192.693l-.1,1.075c-.1,1.319-.2,2.443-.2,3.567a4.516,4.516,0,0,0,4.446,4.544h36.6c.635-5.912,6.743-10.6,14.316-10.6s13.681,4.691,14.316,10.6h36.6a4.527,4.527,0,0,0,4.446-4.593,14.281,14.281,0,0,0-.049-3.518" transform="translate(-192.4 -129.3)" fill="#cc9f53"/>
  </g>
</svg>
