<svg xmlns="http://www.w3.org/2000/svg" xmlns:xlink="http://www.w3.org/1999/xlink" width="105" height="69" viewBox="0 0 105 69">
  <defs>
    <clipPath id="clip-path">
      <rect id="Rectangle_37" data-name="Rectangle 37" width="105" height="17" fill="none" stroke="#4c748c" stroke-width="1"/>
    </clipPath>
  </defs>
  <g id="Group_136" data-name="Group 136" transform="translate(-69 -143)">
    <g id="Group_32" data-name="Group 32" transform="translate(69 195)" clip-path="url(#clip-path)">
      <path id="Path_62" data-name="Path 62" d="M0,4.5c10.5,0,10.5,8,21,8s10.5-8,21-8,10.5,8,21,8,10.5-8,21-8,10.5,8,21,8" fill="none" stroke="#4c748c" stroke-width="1"/>
      <path id="Path_63" data-name="Path 63" d="M0,4.5c10.5,0,10.5,8,21,8s10.5-8,21-8,10.5,8,21,8,10.5-8,21-8,10.5,8,21,8" fill="none" stroke="#4c748c" stroke-miterlimit="10" stroke-width="9"/>
    </g>
    <g id="Group_32-2" data-name="Group 32" transform="translate(69 169)" clip-path="url(#clip-path)">
      <path id="Path_62-2" data-name="Path 62" d="M0,4.5c10.5,0,10.5,8,21,8s10.5-8,21-8,10.5,8,21,8,10.5-8,21-8,10.5,8,21,8" fill="none" stroke="#4c748c" stroke-width="1"/>
      <path id="Path_63-2" data-name="Path 63" d="M0,4.5c10.5,0,10.5,8,21,8s10.5-8,21-8,10.5,8,21,8,10.5-8,21-8,10.5,8,21,8" fill="none" stroke="#4c748c" stroke-miterlimit="10" stroke-width="9"/>
    </g>
    <g id="Group_32-3" data-name="Group 32" transform="translate(69 143)" clip-path="url(#clip-path)">
      <path id="Path_62-3" data-name="Path 62" d="M0,4.5c10.5,0,10.5,8,21,8s10.5-8,21-8,10.5,8,21,8,10.5-8,21-8,10.5,8,21,8" fill="none" stroke="#4c748c" stroke-width="1"/>
      <path id="Path_63-3" data-name="Path 63" d="M0,4.5c10.5,0,10.5,8,21,8s10.5-8,21-8,10.5,8,21,8,10.5-8,21-8,10.5,8,21,8" fill="none" stroke="#4c748c" stroke-miterlimit="10" stroke-width="9"/>
    </g>
  </g>
</svg>
