<?xml version="1.0" encoding="UTF-8"?><svg id="Layer_1" xmlns="http://www.w3.org/2000/svg" xmlns:xlink="http://www.w3.org/1999/xlink" viewBox="0 0 105 69"><defs><style>.cls-1,.cls-2,.cls-3,.cls-4{fill:none;}.cls-5{clip-path:url(#clippath);}.cls-6{clip-path:url(#clippath-1);}.cls-7{clip-path:url(#clippath-2);}.cls-2{stroke:#4c748c;}.cls-3,.cls-4{stroke:#2a9cbc;}.cls-4{stroke-miterlimit:10;stroke-width:9px;}</style><clipPath id="clippath"><rect class="cls-1" y="52" width="105" height="17"/></clipPath><clipPath id="clippath-1"><rect class="cls-1" y="26" width="105" height="17"/></clipPath><clipPath id="clippath-2"><rect class="cls-1" width="105" height="17"/></clipPath></defs><g id="Group_136"><g class="cls-5"><g id="Group_32"><path id="Path_62" class="cls-2" d="m0,56.5c10.5,0,10.5,8,21,8s10.5-8,21-8,10.5,8,21,8,10.5-8,21-8,10.5,8,21,8"/><path id="Path_63" class="cls-4" d="m0,56.5c10.5,0,10.5,8,21,8s10.5-8,21-8,10.5,8,21,8,10.5-8,21-8,10.5,8,21,8"/></g></g><g class="cls-6"><g id="Group_32-2"><path id="Path_62-2" class="cls-2" d="m0,30.5c10.5,0,10.5,8,21,8s10.5-8,21-8,10.5,8,21,8,10.5-8,21-8,10.5,8,21,8"/><path id="Path_63-2" class="cls-4" d="m0,30.5c10.5,0,10.5,8,21,8s10.5-8,21-8,10.5,8,21,8,10.5-8,21-8,10.5,8,21,8"/></g></g><g class="cls-7"><g id="Group_32-3"><path id="Path_62-3" class="cls-3" d="m0,4.5c10.5,0,10.5,8,21,8s10.5-8,21-8,10.5,8,21,8,10.5-8,21-8,10.5,8,21,8"/><path id="Path_63-3" class="cls-4" d="m0,4.5c10.5,0,10.5,8,21,8s10.5-8,21-8,10.5,8,21,8,10.5-8,21-8,10.5,8,21,8"/></g></g></g></svg>