<svg xmlns="http://www.w3.org/2000/svg" width="1437.722" height="1253.781" viewBox="0 0 1437.722 1253.781">
  <g id="MW_IconOnly_White_Web" opacity="0.543">
    <path id="Path_54" data-name="Path 54" d="M1539.423,698.535l-1.127-13.8H1100.839l285.347-150.138c23.944-12.676,40.563-35.493,45.915-62.534a87.848,87.848,0,0,0-18.873-73.238l-7.324-8.732L997.742,604.452l174.363-275.206a93.336,93.336,0,0,0,10.422-76.337,87.29,87.29,0,0,0-51.267-56.337l-10.986-4.507L881.125,569.524V197.7c0-32.957-25.915-60-58.027-60h0c-14.929,0-29.577.563-44.225,1.127h-.563c-4.507.282-8.732.563-13.239.845V568.678L532.68,201.924l-7.324-9.859-10.7,4.225c-24.225,9.859-42.535,30.14-50.422,56.055a92.054,92.054,0,0,0,10.141,76.337L649.016,604.171l-398.3-209.292-10.7-4.507-7.324,9.014a87.473,87.473,0,0,0-18.028,72.393,88.481,88.481,0,0,0,45.915,62.534L546.2,684.451H108.18l-1.127,13.8c-1.409,16.9-2.253,32.112-2.253,46.478,0,32.675,25.915,59.154,57.745,59.154h475.2c8.169-77.182,87.6-137.744,185.912-137.744,98.026,0,177.743,60.844,185.912,137.744h475.2c31.83,0,57.746-26.478,57.746-59.717C1541.677,730.648,1541.113,716,1539.423,698.535Z" transform="translate(-104.8 -137.7)" fill="rgba(255,255,255,0.12)"/>
    <path id="Path_55" data-name="Path 55" d="M1357.246,415.2H218.393c-88.731,0-127.885,80.28-58.872,120.279h0c54.084,31.267,131.265,31.267,185.349,0l169.293-86.759L683.455,535.48c54.083,31.267,131.265,31.267,185.349,0l181.124-85.069,181.123,85.069c54.084,31.267,131.266,31.267,185.349,0h0C1485.413,495.481,1445.977,415.2,1357.246,415.2Z" transform="translate(-69.381 366.476)" fill="rgba(255,255,255,0.12)"/>
    <path id="Path_56" data-name="Path 56" d="M670.312,609.916l-90.139-43.661c-50.422-24.507-133.237-24.507-183.659,0l-97.745,47.323a21.937,21.937,0,0,0-8.169,6.761,738.883,738.883,0,0,0,194.081,25.915,730.652,730.652,0,0,0,196.053-26.478A21,21,0,0,0,670.312,609.916Z" transform="translate(232.771 607.527)" fill="rgba(255,255,255,0.12)"/>
    <path id="Path_57" data-name="Path 57" d="M1207.077,494H217.516c-48.732,0-70.14,35.493-32.394,53.239l117.463,54.929c60.281,28.168,146.195,28.168,206.475,0l202.814-75.21,202.813,75.21c60.281,28.168,146.195,28.168,206.475,0l117.745-54.929C1277.216,529.493,1255.527,494,1207.077,494Z" transform="translate(6.142 509.645)" fill="rgba(255,255,255,0.12)"/>
  </g>
</svg>
