<?xml version="1.0" encoding="utf-8"?>
<!-- Generator: Adobe Illustrator 27.1.1, SVG Export Plug-In . SVG Version: 6.00 Build 0)  -->
<svg version="1.1" id="Layer_1" xmlns="http://www.w3.org/2000/svg" xmlns:xlink="http://www.w3.org/1999/xlink" x="0px" y="0px"
	 viewBox="0 0 1423.5 1425" style="enable-background:new 0 0 1423.5 1425;" xml:space="preserve">
<style type="text/css">
	.st0{clip-path:url(#SVGID_00000129901308983382137850000016382578778725471638_);}
	.st1{opacity:0.133;}
	.st2{fill:#3CA7C5;}
</style>
<g>
	<defs>
		<rect id="SVGID_1_" x="-107.1" y="-198.7" width="1709.5" height="1648.7"/>
	</defs>
	<clipPath id="SVGID_00000157283443492863381720000007867391940531399598_">
		<use xlink:href="#SVGID_1_"  style="overflow:visible;"/>
	</clipPath>
	<g style="clip-path:url(#SVGID_00000157283443492863381720000007867391940531399598_);">
		<g id="Group_134" transform="matrix(1, 0.017, -0.017, 1, 33.534, 0.005)" class="st1">
			<path id="Path_74" class="st2" d="M1907.5,1094.3c-6.3,1.4-11.5,5.5-17,8.8c-26.7,16.2-53.3,32.6-79.8,49
				c-29.8,18.4-60.1,35.7-91.6,50.4c-20.1,9.3-40.7,17.3-61.8,24.1c-28.8,9.3-58.2,16.4-88.1,21.1c-17.2,2.8-34.6,4.8-52,6.3
				c-39,3.4-78.1,4.1-117.2,1.9c-42.3-2.3-84.2-8.1-125.5-18.7c-42.3-11-82.9-27-122.2-47.2c-28.4-14.6-56-30.9-83.8-46.9
				c-28.9-16.7-57.9-33.2-88.1-47.2c-45.2-20.9-91.9-36-140.4-44.5c-63.7-11.1-127.8-12.8-192-7.8c-25.8,2-51.6,5.4-77,10.2
				c-51.8,10-102,27.1-149,51c-29.9,15.1-58.6,32.6-87.2,50.4c-27,16.8-53.8,33.8-81.5,49.2c-40,22.2-81.6,40.2-125.2,52.5
				c-35.2,9.8-71.2,16.6-107.6,20.3c-33.9,3.5-68,4.9-102.1,4.2c-44.2-0.8-88.1-5-131.5-14.5c-43-9.3-84.8-23.6-124.5-42.6
				c-32.4-15.5-63.7-33.4-94.9-51.6c-27.9-16.3-55.9-32.4-84.8-46.6c-49.4-24.1-100.7-41.3-154.3-50.6c-51.9-9-104-11.4-156.4-9.6
				c-37.5,1.2-74.9,5.4-111.8,12.4c-51.5,10-101.4,27.2-148.2,50.9c-29.9,15.1-58.6,32.6-87.2,50.4c-26.1,16.2-51.9,32.9-78.7,47.5
				c-2.6,1.4-5.3,2.5-7.9,3.8l-0.1-8.6c2.9,1.5,5.1-0.3,7.4-1.6c10.9-6.3,21.9-12.5,32.7-19.1c29.6-18.1,59-36.6,88.8-54.5
				c38.6-23.2,78.9-42.3,121.2-56.4c27.2-9,55.1-15.9,83.3-20.6c56.8-9.8,114-12.6,171.5-10c42.3,1.9,84.3,7.3,125.7,17.4
				c32.1,8,63.4,18.8,93.6,32.3c34.3,15.1,67.1,33.7,99.7,52.6c27.7,16.1,55.3,32.3,83.8,46.9c36.9,18.8,75,34,114.7,44.7
				c43.3,11.7,87.2,17.9,131.6,20.3c31.7,1.6,63.4,1.5,95.1-0.5c39.9-2.3,79.5-7.7,118.4-17.3c46.6-11.6,91.6-28.9,134-51.6
				c31.5-16.8,61.8-35.9,92.2-54.9c28.1-17.6,56.3-34.8,85.7-49.8c52.6-27,109.2-45.7,167.5-55.2c55.1-8.9,111-12.1,166.8-9.4
				c36.5,1.5,72.8,6,108.6,13.3c47,9.8,91.9,26.1,135.5,47.5c31.8,15.6,62.5,33.6,93.2,51.5c28.4,16.6,57,32.6,86.6,46.6
				c30.1,14.3,61.5,25.9,93.7,34.7c43.7,12,88.2,18.2,133.2,20.6c31.7,1.6,63.4,1.4,95.1-0.5c39.6-2.3,78.9-7.6,117.6-17.2
				c46.9-11.6,92.1-29,134.7-51.9c31.2-16.7,61.3-35.7,91.5-54.4c18.5-11.5,37.3-22.6,56-33.8c3.2-1.9,6.7-3.3,10-4.9L1907.5,1094.3
				z"/>
			<path id="Path_75" class="st2" d="M-1281.6,4.5c7.2-2.1,13.5-6.4,19.9-10.3c29.6-18,59.2-36.4,88.8-54.5
				c34.7-21.2,70.2-40.7,107.6-55.9c19.2-7.8,38.9-14.5,58.9-20.1c34.2-9.4,69.2-16,104.5-19.6c45-4.7,90.2-5.7,135.4-3.1
				c33.6,1.8,67,6.3,99.8,13.4c42.7,9.4,84.2,23.6,123.7,42.4c32.4,15.5,63.7,33.4,94.9,51.6c28.2,16.4,56.3,32.7,85.5,46.9
				c49.4,24,100.7,41.2,154.3,50.4c52.4,9,105.1,11.4,158,9.4c36.5-1.3,72.8-5.4,108.7-12.2c51.8-10,101.9-27.2,149-51.1
				c32.6-16.4,63.7-35.6,94.7-55.1c30.8-19.3,61.7-38.5,93.9-55.1c29.4-15.2,60-27.9,91.6-37.8c39.2-12.2,79.1-19.9,119.7-24.2
				c44.7-4.7,89.7-5.8,134.6-3.2c40.7,2.1,81.2,8.1,120.8,18.1c39.3,10.1,77.4,24.4,113.7,42.4c32,15.8,62.9,34,93.9,51.9
				c24.9,14.5,49.9,28.7,75.7,41.3c45.2,22.1,92.1,38.7,141,48.3c31.2,6.1,62.7,10,94.4,11.6c31.4,1.6,62.9,1.5,94.3-0.3
				c39.6-2.1,79-7.8,117.7-16.8c50.9-12,99.1-31.6,145.5-57c31.1-17,61-36.4,91.2-55c17.6-10.9,35.6-21.2,53.4-31.7
				c1.4-0.7,2.9-1.4,4.4-1.9l0.1,6.9c-2.7,1.1-5.3,2.3-7.9,3.7c-21.2,12.8-42.4,25.4-63.5,38.5c-31.1,19.3-62.1,38.7-94.6,55.3
				c-40,20.4-81.5,36.3-124.7,46.6c-29.6,7-59.7,11.9-90,14.9c-33.4,3.3-67,4.6-100.5,3.8c-43.4-0.9-86.5-5.3-129.2-14.3
				c-50.6-10.7-98.9-29-145.4-52.9c-30.6-15.7-60.3-33.2-90-50.6c-29.6-17.2-59.5-33.5-90.6-47.4c-25.3-11.3-51.5-20.7-78.2-28.1
				c-30.4-8.5-61.4-14.5-92.8-18c-35.8-4-71.7-5.1-107.7-4.3c-30.4,0.6-60.7,3.1-90.8,7.3c-50.8,7.1-100.4,21-147.6,41.3
				c-32.2,13.9-62.9,30.9-93,49.2c-26.9,16.4-53.5,33.2-80.4,49.6c-36.6,22.3-74.6,41.4-114.5,56c-32.2,11.7-65.4,20.4-99.1,26.1
				c-48.9,8.4-98.2,11.6-147.7,10.6c-43.9-0.8-87.6-5.1-130.8-14.1C-281.8,37-330,18.9-376.6-4.9c-31.3-16-61.7-34-92.2-51.7
				c-33.3-19.4-67.1-37.7-102.4-52.4c-28.8-12-58.5-21.6-88.8-28.7c-57.2-13.4-115-17.5-173.3-16.3c-31.7,0.5-63.4,3-94.8,7.4
				c-64.1,9.3-125.4,28.3-183.8,58.6c-31.4,16.3-61.6,35-91.8,53.7C-1225.2-21-1246.9-8-1268.6,5c-4.1,2.5-8.6,4.3-12.9,6.4
				L-1281.6,4.5"/>
			<path id="Path_76" class="st2" d="M1902,755.5c-4.1,0.4-7.3,3-10.7,5.1c-29.9,18.2-59.7,36.5-89.5,54.8
				c-29.9,18.3-60.1,35.6-91.9,50c-28.9,13.1-58.8,23.6-89.5,31.7c-39.9,10.4-80.4,16.2-121.3,19.2c-34.3,2.4-68.7,2.8-103,1
				c-39.9-2-79.5-7.1-118.6-16.7c-40.7-10-80.2-24.4-117.8-42.9c-31.5-15.5-62.1-33.2-92.6-50.9c-32.4-18.8-64.8-37.4-98.9-52.6
				c-40.2-18-81.6-31.5-124.5-39.8C791.7,704.3,739,701.3,686,702.6c-34.1,0.8-68.1,3.8-101.8,9.2c-56.6,9-111.4,26.5-162.7,52
				c-29.8,14.8-58.4,31.9-86.8,49.5c-26.8,16.6-53.3,33.6-80.7,49.1c-36.6,20.7-74.4,38.1-114,50.7c-29.6,9.4-59.8,16.5-90.5,21.1
				c-41.8,6.3-84.1,9.2-126.4,8.8c-36.8-0.3-73.4-2.7-109.8-8.6c-52.9-8.4-104.4-24.3-152.8-47.1c-32.5-15.3-63.9-33.1-95-51.3
				c-30.9-18.1-61.9-36.1-94.1-51.3c-44-20.9-89.5-36.5-136.8-45.6c-23.9-4.5-48.1-7.7-72.3-9.7c-40.4-3.5-80.8-3.1-121.2-0.5
				c-46,3-91.4,10.2-136,23.1c-35.8,10.4-70.3,24.6-103.7,41.7c-28.9,14.8-56.5,32.1-84.3,49.1c-24.5,15.1-49.2,29.9-73.9,44.7
				c-3.1,1.9-6.2,4.7-10.3,3.4l-0.1-6.8c2.9,1.5,5.1-0.3,7.4-1.7c10-5.8,20.1-11.4,30-17.5c25.9-15.9,51.7-32,77.7-47.9
				c32.2-19.7,65.3-37.3,99.9-51.5c26.3-10.8,53.4-19.6,81.1-26.1c50.8-12,102.2-17.4,154.1-18.3c40.2-0.9,80.4,1.3,120.2,6.6
				c59.4,8.1,117.2,25.6,171.2,51.8c29.5,14.2,58,30.4,86.4,47c30.7,17.9,61.5,35.7,93.3,51.2c34.1,16.6,69.7,29.8,106.4,39.4
				c42.8,11.2,86.3,17,130.2,19c39.1,1.8,78.2,0.9,117.2-2.6c58.7-5.4,116-18.3,171.2-40.9c31.4-12.8,61.6-28.5,90.9-46.2
				c23.5-14.1,46.7-28.8,70.1-43.2c29.1-17.9,58.5-35.2,89.3-49.7c35.1-16.7,71.9-29.6,109.7-38.7c35.1-8.2,70.7-13.5,106.6-16
				c36.1-2.7,72.4-3.1,108.5-1.1c50.3,2.7,100,10.3,148.5,25.3c34.7,10.9,68.4,24.8,100.6,41.7c31.2,16.2,61.6,34.2,92.1,51.9
				c33.4,19.3,67.2,37.5,102.6,52c23.7,9.7,47.9,17.8,72.7,24.2c43.1,11.3,86.8,17,131,18.9c38.8,1.7,77.7,0.8,116.4-2.7
				c36.2-3.2,72-9.6,107-19.1c47.4-13.1,92.9-32.2,135.5-56.9c24.2-14,47.9-28.9,71.8-43.4c21-12.6,41.9-25.3,62.9-37.8
				c2.1-1.1,4.3-2,6.5-2.8L1902,755.5z"/>
			<path id="Path_77" class="st2" d="M1904.2,890.7c-5.7,3-11.5,5.8-16.9,9.1c-26.4,16.1-52.7,32.4-79.1,48.6
				c-29.8,18.3-60,36-91.6,50.5c-27.6,12.8-56.1,23.3-85.3,31.4c-34,9.2-68.7,15.6-103.7,19.2c-44.4,4.6-89.2,5.6-133.8,3.1
				c-39.9-2.2-79.5-7.7-118.4-17.5c-36.5-9.2-71.9-22.1-105.9-38.3c-35.4-16.8-69.3-36.6-103.3-56.4c-32.3-18.9-64.9-37.2-99-52.2
				c-33.6-14.9-68.6-26.6-104.4-34.7c-37.6-8.4-75.6-12.9-114-14.7c-27.8-1.3-55.5-1.1-83.2,0.3c-42,2.2-83.7,7.5-124.8,17.5
				c-42.7,10.5-84.1,25.9-123.3,45.9c-32.5,16.5-63.7,35.7-94.7,55.2c-30.5,19.2-61.2,38.2-93.2,54.6c-34.8,18-71.4,32.4-109.2,42.9
				c-33.5,9-67.7,15.3-102.2,18.8c-43.9,4.6-88.1,5.7-132.2,3.3c-35.4-1.7-70.7-6.4-105.3-13.9c-45.6-10.2-89.7-26-131.5-46.9
				c-31.7-15.8-62.4-33.6-93.1-51.6c-32.1-18.7-64.5-36.9-98.3-51.9c-26.6-11.8-54-21.6-82-29.2c-38.1-10.3-76.7-16.3-115.8-19.2
				c-35.6-2.6-71.3-2.9-106.9-0.8c-40.1,2.2-80,7.4-119.3,16.7c-47.7,11.5-93.8,29-137,52.2c-31.3,16.6-61.3,35.6-91.5,54.4
				c-20.8,12.9-42,25.2-63,37.7c-2.4,1.2-4.8,2.3-7.3,3.2l-0.1-6.8c3.9-1.8,7.9-3.2,11.6-5.4c27.2-16.4,54.3-32.9,81.3-49.6
				c28.7-17.6,57.5-34.9,87.6-49.5c31.6-15.4,64.6-27.9,98.5-37.2c34.3-9.1,69.3-15.4,104.6-18.8c41-4.1,82.3-5.1,123.5-3.1
				c36.2,1.6,72.3,6.1,107.7,13.7c38,8.3,75,20.5,110.5,36.5c30.8,13.7,60.5,30.1,89.9,47.1c30.5,17.7,60.9,35.7,92.2,51.7
				c31.2,16,63.6,29.3,97,39.7c39,12.2,78.8,19.4,119.2,23.2c43.4,3.9,87.1,4.4,130.7,1.4c37.5-2.3,74.8-7.8,111.3-16.5
				c43.5-10.6,85.6-26.2,125.5-46.7c32.3-16.4,63.2-35.5,93.9-54.9s61.7-38.5,93.9-54.9c35.1-18.1,72-32.4,110-42.9
				c34-9.1,68.7-15.3,103.8-18.7c40.2-4.1,80.7-5.2,121.1-3.3c49.2,2.2,97.9,8.9,145.6,22.6c33.9,9.8,66.8,22.6,98.3,38.3
				c31.5,15.6,62,33.3,92.5,51.1c28.8,16.9,57.9,33.3,88,47.3c24.9,11.6,50.6,21.5,76.8,29.6c41.9,12.9,84.6,20.2,127.9,23.7
				c39.8,3.1,79.8,3.3,119.6,0.7c38-2.2,75.8-7.8,112.9-16.6c43.5-10.6,85.6-26.3,125.5-46.7c32.3-16.4,63.1-35.7,94-54.8
				c21.7-13.5,43.7-26.5,65.6-39.7c2.8-1.7,5.7-2.9,8.6-4.4L1904.2,890.7z"/>
			<path id="Path_78" class="st2" d="M1909.7,1229.5c-4.5,2.3-9.1,4.5-13.4,7.1c-24.1,14.7-48.2,29.4-72.3,44.3
				c-27.9,17.3-56,34.2-85.3,48.8c-24.1,12.1-49,22.5-74.5,31c-36.3,12-73.6,20.5-111.4,25.3c-46.3,6.1-92.7,7.5-139.2,6
				c-33.9-1.1-67.6-4.8-100.8-11.1c-32.1-6.1-63.7-15.1-94.2-26.7c-36.5-13.8-71.3-31.8-105.5-51.2c-24.1-13.7-48-27.7-72.1-41.4
				c-32.1-18.2-65-34.5-99.3-47.4c-35.6-13.4-72.4-23.1-110-29c-55.1-8.8-110.5-10.1-166-7.1c-27.2,1.5-54.3,4.6-81.1,9.3
				c-50.6,8.8-99.8,24.4-146.2,46.4c-30.5,14.4-59.7,31.6-88.6,49.4c-27.1,16.6-54,33.5-81.3,49.7c-41.3,24.4-84.6,43.9-130.1,57.6
				c-31,9.2-62.7,15.9-94.7,20c-46.5,6.2-93.2,7.7-140,6c-33.6-1.1-67-4.8-100.1-11c-41.1-7.8-81.2-20.1-119.5-36.8
				c-31-13.4-60.7-29.5-90.1-46.4c-30.6-17.6-60.8-35.7-92-52c-30.1-15.8-61.4-29.1-93.6-39.8c-40.6-13.4-82.1-21.4-124.4-25.7
				c-41.9-4.3-83.9-4.5-125.9-2.3c-37.8,1.9-75.4,6.9-112.3,15.2c-40.2,9.1-79.4,22.7-116.7,40.3c-33.9,15.9-66.2,35.3-98.2,55.3
				c-27,16.8-53.7,34-81.5,49.3c-2.8,1.5-5.8,2.6-8.7,3.9l-0.1-6.8c2.7-1.1,5.5-1.9,8-3.4c23.5-14.1,47.1-28.1,70.5-42.5
				c27.7-17.1,55.4-34.4,84.1-49.4c33-17.5,67.7-31.7,103.4-42.5c39.1-11.6,78.8-18.8,119.2-22.7c40.3-3.9,80.7-4.9,121.1-3
				c39.9,1.9,79.5,6.8,118.6,16c41.2,9.7,80.9,24.3,119.4,43c32.1,15.6,63.1,33.6,94,51.6c31.9,18.6,63.9,36.8,97.4,51.9
				c25.5,11.6,51.8,21.3,78.7,29.1c38.2,11,77,17.5,116.3,20.9c42.5,3.6,85,3.3,127.5,0.5c39.1-2.5,77.9-8.6,115.9-18.3
				c37.9-9.8,74.7-23.6,109.8-40.9c32.9-16.3,64.4-35.4,95.6-55c30.3-19.1,60.7-38.1,92.3-54.7c41-21.5,83.5-38.4,127.9-49.4
				c38.9-9.6,78.4-15.3,118.3-18c30.8-2,61.8-2.5,92.7-1.3c43.1,1.7,85.9,6.9,128,17.2c40.4,10,79.6,24.3,116.9,42.8
				c31.6,15.5,62.1,33.1,92.5,50.9c35.4,20.7,71,40.8,108.4,56.8c34.5,14.8,70.4,26.2,107.1,34c53.7,11.2,107.9,14.7,162.5,13.3
				c20.6-0.5,41.2-1.4,61.7-3.5c51.2-5.2,101.4-15.5,150.1-33.6c33.4-12.3,65.6-27.7,96.2-45.8c30.2-18,60.1-36.8,90.3-55.1
				c13.3-8.1,26.8-15.9,40.3-23.7c1.4-0.7,2.9-1.4,4.3-2L1909.7,1229.5z"/>
			<path id="Path_79" class="st2" d="M1913,1433.1c-1.7,0.5-3.4,1.2-5.1,2c-23.7,14.3-47.5,28.4-71.1,43
				c-28.1,17.5-56.3,34.8-85.6,50.1c-33.6,17.6-68.8,31.8-105.2,42.4c-32.3,9.3-65.4,16-98.8,19.9c-41,4.7-82.2,6.4-123.4,5.1
				c-25.9-0.7-51.7-2.8-77.4-6.4c-42.4-5.8-84-16.3-124-31.4c-37-14-72.3-32.2-107-51.9c-30.2-17.2-60.1-34.8-90.5-51.5
				c-48.3-26.4-98.8-46.7-151.9-58.5c-24.6-5.5-49.4-9.5-74.4-12.1c-52.8-5.5-105.6-5-158.3-0.2c-47.6,4.2-94.5,14-139.7,29.3
				c-31.5,10.8-61.9,24.6-91.4,40.6c-28.1,15.1-55.2,32.3-82.4,49.3c-27.6,17.3-55.4,34.3-84.1,49.3c-34,17.9-69.7,32.3-106.6,43.1
				c-32.6,9.4-65.9,16-99.6,20c-32,3.7-64.3,5.5-96.5,5.3c-35.4,0.2-70.8-2.2-105.9-7.1c-55.3-8-108.8-23.4-160.1-47.4
				c-29.4-13.8-57.9-29.4-86.1-45.8c-31-18-61.8-36.3-93.7-52.2c-41.9-20.9-85.2-37.3-130.5-47.5c-36.2-8.1-73-13.1-110-15
				c-39.9-2.1-79.8-1.3-119.6,2.2c-54.7,4.9-108.3,16-160.1,35.7c-29,11.1-57.1,24.4-84.1,39.7c-30.7,17.2-60.3,36.5-90.4,54.9
				c-16,9.9-32.3,19.2-48.6,28.8c-2.4,1.2-4.8,2.3-7.3,3.3l-0.1-6.8c2.9-1.3,5.9-2.5,8.7-4c24-13.2,47.1-28.1,70.4-42.6
				c27.2-16.9,54.4-33.9,82.7-48.7c41.7-21.8,84.9-39,130.2-50c36.5-8.8,73.7-14.5,111.2-17.2c42.2-3.2,84.5-3.1,126.7,0.1
				c50.8,4,100.7,13.3,149.2,30.2c32.9,11.5,64.7,25.8,95.1,42.7c30.3,16.8,60.3,34.3,90.5,51.5c30.9,17.6,62.3,33.9,95.1,47
				c30.9,12.3,62.8,21.9,95.3,28.7c57.9,12.2,116.4,14.8,175.2,12.8c31.2-1,62.3-4.1,93.1-9.2c50.7-8.3,100-23.5,146.6-45
				c31.8-14.8,62.3-32.4,92.3-51c27-16.7,53.9-33.6,81.2-49.7c33.6-20,69-36.7,105.7-49.9c24.5-8.7,49.6-15.6,75.1-20.7
				c62.9-12.8,126.3-16.2,190.1-13.5c46.9,1.8,93.4,8.8,138.7,20.8c30.6,8.2,60.2,19.5,89.2,32.8c33.2,15.2,64.9,33.4,96.5,51.9
				c31.2,18.1,62.4,36.2,94.8,51.8c35.6,17.1,72.8,30.5,111.2,39.9c47.6,11.7,95.9,17.1,144.6,17.9c32,0.7,64-0.5,95.8-3.4
				c42.5-4,84.5-12.2,125.3-24.7c47-14.5,91.3-35.5,133.9-61c26.8-16,53.1-32.8,79.8-49c12.9-7.9,25.9-15.4,38.9-23
				c1.9-1,3.8-1.8,5.8-2.5L1913,1433.1z"/>
			<path id="Path_80" class="st2" d="M1896.6,416.8c-1.8,0.5-3.5,1.1-5.1,1.9c-24.2,14.6-48.4,29-72.5,43.9
				c-30.9,19.1-61.9,38.1-94.2,54.3c-25.5,12.7-52,23.6-79.1,32.4c-36,11.7-72.7,19.3-110.1,24c-48.5,6-97.5,7.7-146.4,5.1
				c-36.5-1.7-72.8-6.6-108.4-14.6c-42.1-9.6-83-23.9-121.9-42.8c-32.1-15.5-63.2-33.3-94.1-51.4c-28.1-16.5-56.4-32.6-85.6-46.7
				c-50.5-24.4-102.9-41.5-157.6-50.4c-45.1-7.3-90.4-9.7-135.9-8.7c-26.4,0.4-52.8,2.1-79.1,5.2c-42.6,5.2-84.5,14.1-125.3,28.4
				c-37.9,13.3-74.3,30.4-108.7,51c-26.8,16-53.2,32.6-79.8,48.9c-32.4,19.9-65.1,39-99.5,54.4c-32.3,14.5-65.9,25.9-100.3,34.1
				c-21.9,5.1-44.1,9.1-66.4,11.9c-48.6,6.3-97.5,7.6-146.4,5.2c-43.6-2.2-86.8-8.2-129.3-19.6c-38.7-10.4-76.2-24.8-111.9-42.8
				c-31.7-15.9-62.3-33.9-93-51.8c-28.6-16.7-57.5-32.8-87.4-46.6c-46.9-21.7-96.5-37-147.5-45.3c-44.8-7.2-89.9-9.5-135.1-8.6
				c-26.7,0.6-53.3,2.1-79.9,5.3c-62.9,7.6-123.5,24.2-181.5,51.9c-30.2,14.4-59.2,31.5-87.8,49c-27.1,16.6-54.2,33.1-81.2,49.7
				c-3.9,2.4-7.9,4.6-11.9,6.8c-1.9,1-3.8,2.1-6,1l-0.1-5.1c7.8-4.2,15.8-8,23.3-12.6c24.1-14.7,48.1-29.6,72.2-44.4
				c28.4-17.5,57.1-34.5,87-48.9c41.5-20.1,85.2-35,130.4-44.3c60.7-12.4,122-16.3,183.8-14.1c28.3,0.9,56.5,3.5,84.5,7.8
				c35.4,5.5,70.3,14.4,104,26.5c37.5,13.5,73.3,31.1,108.2,50.8c27.6,15.6,55,31.8,82.7,47.3c31.7,17.8,64.1,33.8,98,46.2
				c26.7,9.9,54.1,17.7,81.9,23.5c52.2,10.7,104.8,14.1,157.8,13.1c35.4-0.6,70.8-3.6,105.8-9c48.1-7.6,95-21.2,139.6-40.7
				c32.1-14,62.8-31.2,92.9-49.5c26.9-16.4,53.5-33.2,80.4-49.5c32.4-19.9,66.5-36.9,101.9-50.8c28.5-11.1,57.8-19.7,87.7-25.9
				c61-12.5,122.6-16.4,184.6-14.2c28.3,0.9,56.5,3.6,84.5,7.8c44.2,6.8,87.4,18.9,128.7,36c35.4,14.6,69.1,33,102.5,52.1
				c27.3,15.6,54.6,31.5,82.2,46.6c47.3,26,98,45.4,150.6,57.4c28.4,6.3,57.3,10.6,86.3,12.9c35.6,3,71.3,3.2,106.9,1.6
				c46-2.1,91.6-8,136.4-19.7c45.4-11.9,89.3-29.3,130.5-51.9c30.9-16.8,60.7-35.7,90.7-54.2c19-11.8,38.2-23,57.4-34.4
				c1.9-0.9,3.8-1.7,5.8-2.4L1896.6,416.8z"/>
			<path id="Path_81" class="st2" d="M-1270.6,682c2.9-1.3,5.9-2.3,8.7-3.9c27.4-15.3,54-32.3,80.7-49
				c31.7-19.8,63.9-38.9,97.5-54.8c33.9-16.1,69.4-28.7,105.9-37.7c37.6-9,75.8-14.8,114.4-17.3c33.7-2.3,67.6-2.7,101.4-1
				c45,2.2,89.5,8.3,133.2,20.2c38.4,10.5,75.6,24.9,111.1,43c31.1,15.7,61.3,33.4,91.6,51c28.2,16.4,56.5,32.3,86,45.9
				c39.5,18.2,80.2,32.3,122.4,41c34,7,68.4,11.3,103.1,12.9c30.6,1.4,61.3,1.2,91.9-0.5c51.3-2.8,101.9-10.8,151.4-26
				c33.9-10.5,66.8-24.2,98.2-40.7c31.9-16.6,62.4-35.8,93-55c30.8-19.4,61.8-38.2,94.2-54.4c53.1-26.7,110-44.8,168.8-53.8
				c32.1-4.9,64.6-7.8,97.1-8.7c29.9-1,59.7-0.3,89.5,2c43.6,3.5,86.6,10.8,128.7,23.8c35.5,11,69.9,25.3,102.8,42.5
				c31.2,16.2,61.5,34.4,92.1,51.9c29.7,17,59.6,33.4,90.8,46.9c43.2,18.8,88.6,32.1,135.1,39.7c50.6,8.2,101.5,9.9,152.6,8
				c33.6-1.2,67-4.7,100.1-10.6c54-9.7,106.3-27.2,155.3-51.9c29.2-14.6,57.3-31.6,85.2-49c27.2-17,54.2-34.2,82.2-49.7
				c1.4-0.8,2.9-1.3,4.3-2l0.1,6.8c-6.8,3.7-13.8,7-20.4,11.1c-26.9,16.4-53.6,33-80.5,49.5c-25.7,15.7-51.7,30.9-78.8,43.8
				c-32.6,15.7-66.7,28.3-101.8,37.5c-38.9,10-78.3,15.9-118.2,18.9c-35.1,2.6-70.2,3.1-105.3,1.3c-47.1-2.4-93.7-9-139.4-21.8
				c-33.1-9.4-65.3-21.8-96.3-37c-32.3-15.7-63.5-33.8-94.7-52.1c-31.9-18.6-63.9-36.7-97.4-51.8c-26.2-11.9-53.3-21.8-81-29.6
				c-38.5-10.9-77.6-17.2-117.2-20.3c-46.7-3.6-93.5-3.2-140.1,1.1c-40.1,3.6-79.7,10.6-118.5,22.2c-38.9,11.7-76.4,27.3-112.1,46.7
				c-30.9,16.8-60.8,35.5-90.7,54.3c-28.1,17.6-56.4,34.7-85.8,49.6c-45.2,22.8-92.1,39.6-141.2,49.6C19.5,737-41.1,740.9-102,738.9
				c-29.1-0.9-58.1-3.5-86.8-7.9c-44.4-6.9-87.9-19.1-129.4-36.3c-35.1-14.6-68.6-32.8-101.8-51.8c-27.3-15.6-54.6-31.5-82.1-46.6
				c-47.1-25.9-97.5-45.2-149.8-57.3c-24-5.4-48.4-9.3-72.9-11.8c-40.1-4.2-80.2-4.6-120.4-2.9c-46.3,2-92.1,8-137.2,19.7
				c-37.1,9.7-73.2,23.1-107.6,40.1c-33.2,16.3-64.9,35.7-96.4,55.3c-24.7,15.3-49.6,30.2-74.5,45.2c-3,1.8-6.3,2.9-9.4,4.3
				L-1270.6,682"/>
			<path id="Path_82" class="st2" d="M-1276.1,343.3c2.7-1,5.4-2.2,8-3.5c20.3-12.1,40.7-24,60.9-36.6c30.6-19.1,61.2-38.3,93-55.1
				c27.6-14.6,56.3-27,85.9-37.1c34.9-11.8,70.9-20.2,107.5-25.1c46.1-6.4,92.7-8.7,139.2-6.7c16.9,0.8,33.8,1.6,50.6,3.2
				c36.7,3.5,73,10.4,108.4,20.7c45.9,13.3,89.5,33.1,131.6,56.6c27.2,15.2,54.2,31.1,81.3,46.5c26.7,15.2,53.8,29.4,81.9,41.3
				c36.7,15.7,75,27.5,114.2,35.1c52.3,10,104.9,13,157.9,11.7c33.6-0.8,67-3.8,100.2-9c60.5-9.6,119.1-28.8,173.5-57.1
				c28.8-14.9,56.6-31.9,84.2-49.1c27.4-17.1,54.7-34.4,83-49.8c61-34.1,127.8-56.7,197-66.7c44.7-6.6,89.9-9.4,135.1-8.3
				c32.8,0.5,65.5,3.3,97.9,8.3c44.4,7,87.8,19.2,129.4,36.4c35.1,14.6,68.6,32.8,101.8,51.8c27.3,15.6,54.5,31.6,82.1,46.6
				c49.4,26.8,101,46.8,155.3,58.4c27.7,5.8,55.8,9.8,84,12.1c37.5,3.1,75,3,112.5,1c48.4-2.6,96.2-9.8,143.1-23.3
				c39.7-11.4,77.7-27.4,114.5-47.1c31.5-16.8,61.6-36.2,92.1-55c19-11.7,38.3-23,57.4-34.4c1.9-1,3.8-1.9,5.8-2.7l0.1,6.8
				c-4.7,2.4-9.6,4.6-14.2,7.4c-27.1,16.5-54.1,33.2-81.2,49.8c-25.3,15.5-50.7,30.6-77.1,43.6c-38.8,19.1-78.8,34.1-120.6,43.9
				c-42.2,9.9-84.9,15.3-128,17.4c-34.6,1.7-69.2,1.3-103.8-1.3c-44.1-3.5-87.7-10.7-130.3-23.7c-32.2-9.9-63.4-22.6-93.5-37.7
				c-34.6-17.3-67.8-37.3-101.4-56.7c-33.1-19.1-66.7-37.2-101.9-51.6c-23.4-9.6-47.4-17.6-71.9-24.1
				c-55.3-14.6-111.5-20-168.2-19.9c-32.8-0.1-65.5,1.7-98.1,5.4c-64,7.7-125.6,24.7-184.4,53.1c-32.8,15.8-64.2,34.5-95.3,54
				c-30.1,18.9-60.1,37.9-91.3,54.8c-45.8,24.7-93.4,43.7-143.5,55.3c-35.1,8-70.7,13.3-106.6,15.8c-34.5,2.5-69.2,2.9-103.8,1.2
				c-45.2-2.2-90-8.4-134-20.4c-41.2-11.1-80.7-27.3-118.9-47.2c-31-16.1-61.1-34-91.4-51.5c-33.6-19.4-67.6-37.8-103.3-52.3
				c-22.4-9.2-45.4-16.9-68.9-23.1c-43.3-11.5-87.2-17.5-131.7-19.6c-31.2-1.4-62.4-1.1-93.5,0.7c-37,2-73.8,7.1-109.9,15.4
				c-48.3,11.3-95,28.8-138.8,52c-31.3,16.6-61.4,35.5-91.6,54.2c-21,13.1-42.4,25.6-63.6,38.2c-2.8,1.5-5.7,2.8-8.7,4
				L-1276.1,343.3"/>
			<path id="Path_83" class="st2" d="M-1278.3,206.4c3.2,1.3,5.7-0.7,8.1-2.2c10.5-6,21-12,31.3-18.4c23.4-14.3,46.6-29,70.1-43.3
				c30.1-18.4,60.8-35.5,92.9-49.5c32.7-14.3,66.6-25.4,101.4-33.3c41.4-9.1,83.4-14.4,125.8-15.9c26.9-1,53.9-1.2,80.8,0.3
				c42.6,2.4,84.8,8,126.3,18.8c42.3,11,82.9,27.1,122.2,47.3c31.5,16.2,62.1,34.4,92.9,52.2c28.4,16.4,57.2,32.3,87,45.5
				c42.5,19.1,87.3,32.9,133.2,41c28.7,4.9,57.6,8,86.7,9.3c25.4,1.2,50.7,1.2,76.1,0.1c44.2-1.9,88-7.2,131.1-17.6
				c39.1-9.5,77.1-23.2,113.3-40.7c30.2-14.5,59-31.8,87.7-49.4c26.8-16.5,53.5-33.3,80.6-49.2c48.9-28.7,100.5-50.3,154.9-63.6
				c27.8-6.7,56-11.5,84.4-14.6c33.2-3.7,66.4-4.9,99.7-4.6c45.5,0.3,90.8,4.6,135.5,14c47.4,10,93,26.4,136.9,48.2
				c31.7,15.8,62.4,33.7,93.1,51.6c28.6,16.7,57.5,32.9,87.4,46.8c24.4,11.4,49.6,21.1,75.4,29c43.4,13.4,87.7,20.8,132.7,24.1
				c33,2.4,66,2.9,99,1.3c42.8-2,85.3-7.1,127.2-17.1c43.6-10.4,85.7-26,125.6-46.3c32.3-16.3,63.2-35.6,94.1-54.7
				c23.1-14.3,46.5-28.1,69.8-42.2c2.1-1.2,4-2.7,6-4.1l0.1,8.6c-3.1-0.2-5.5,1.9-7.9,3.4c-24.4,14.7-48.8,29.5-73.1,44.5
				c-27.7,17.1-55.5,34.1-84.4,48.9c-29.4,15.1-60.1,27.7-91.7,37.6c-40.5,12.6-81.8,20.1-123.7,24.3c-38.1,3.8-76.5,4.9-114.8,3.4
				c-38.6-1.5-77-5.7-114.9-13.9c-43-9.4-84.8-23.7-124.5-42.6c-32.2-15.3-63.3-33-94.2-51.1c-31.1-18.2-62.4-36.2-94.9-51.5
				c-24.9-11.7-50.5-21.7-76.8-29.8c-25.6-7.9-51.8-14-78.2-18.1c-22.8-3.6-45.6-5.9-68.6-7.2c-32.5-1.8-65-1.7-97.4,0.3
				c-47.6,2.8-94.6,9.8-140.7,23c-34.8,10.1-68.6,23.5-101,40c-32.5,16.5-63.7,35.7-94.7,55.2c-30.8,19.4-61.7,38.5-93.9,55
				c-43.6,22.5-89.9,39.2-137.8,49.8C43.9,256.3,9.6,261-25,263.3c-30.9,2.1-61.8,2.5-92.7,1.1c-44.4-1.9-88.5-7.4-131.9-18.5
				c-39.3-10.1-77.4-24.4-113.7-42.5c-31.7-15.7-62.5-33.6-93.2-51.5c-28.1-16.4-56.5-32.4-85.9-46.2c-45.5-21.4-92.7-37-141.7-45.8
				c-27.1-4.8-54.4-7.9-81.9-9.5c-32.2-1.8-64.5-1.7-96.6,0.2c-48.1,2.7-95.7,9.7-142.3,23.2c-35.4,10.3-69.6,23.9-102.4,40.8
				c-29.1,14.9-57.1,32.1-85,49.3c-24.5,15.1-49.2,30-73.8,44.8c-3.9,2.3-8.1,4.2-12.1,6.3L-1278.3,206.4"/>
			<path id="Path_84" class="st2" d="M-1283.8-132.4c2.9,1.3,5.1-0.5,7.4-1.8c15.5-9.2,31.1-18.2,46.5-27.6
				c26.7-16.2,53.1-32.8,79.9-48.8c34.7-20.8,71.4-37.9,109.5-51.3c25.3-8.8,51.2-15.7,77.6-20.8c41.7-8.1,83.7-12,126.1-12.8
				c28.5-0.7,57.1,0,85.5,2.3c45.7,3.9,90.7,12,134.7,26.2c39.7,12.8,77.6,30,114.4,50.4c24.4,13.6,48.6,27.8,72.9,41.7
				c29.5,16.8,59.1,33.1,90.1,46.5C-303.6-113-267-101-229.2-93.2c35.5,7.2,71.6,11.5,107.8,12.8c25.6,1,51.3,0.9,76.9-0.3
				c39.1-1.7,78-6.7,116.3-15c45-9.9,88.2-25.5,129.8-46.1c29.8-14.7,58.3-32,86.7-49.6c27.2-16.9,54.2-34.2,82.1-49.8
				c35-19.6,71.1-36.1,108.9-48.4c34.1-10.9,69-18.8,104.5-23.6c43.6-6.1,87.4-7.6,131.3-6.7c38.1,0.7,76.1,4.6,113.5,11.8
				c44.7,8.7,88.2,22.8,129.6,42c32.8,15.2,64.5,33,95.9,51.4c30.7,18,61.4,35.8,93.3,51.2c42.4,20.4,86.3,36,131.9,45.5
				c28,5.8,56.3,9.7,84.8,11.8c33,2.4,66,2.8,99,1.2c47.6-2.1,94.7-8.4,141.1-20.6c37.1-9.9,73.1-23.5,107.4-40.7
				c33.2-16.4,64.7-36,96.3-55.6c23.8-14.7,47.9-29,71.8-43.4c1.9-0.9,3.8-1.7,5.8-2.3l0.1,5.1c-7.1,4.3-14.3,8.5-21.4,12.8
				c-20.6,12.7-41.3,25.4-61.9,38.1c-28.4,17.6-56.9,34.9-86.6,49.8c-45.4,23-93.7,39.6-143.7,49.6
				c-54.5,10.8-109.5,14.7-164.9,13.6c-19.3-0.4-38.6-1.2-57.8-3c-47-4.4-93.2-13.4-138.2-29c-33.1-11.5-65.2-25.8-95.9-42.8
				c-30.6-17-60.8-34.6-91.2-51.9c-25.5-14.5-51.4-28.2-78.1-39.9c-37.3-16.4-76.3-28.6-116.3-36.7c-22.9-4.4-45.9-7.7-69.1-9.7
				c-42.2-3.8-84.5-3.5-126.7-0.9c-41,2.4-81.6,8.8-121.3,19.2c-44.9,11.9-88.2,29.2-128.9,51.5c-31.1,16.9-61.2,35.9-91.3,54.8
				c-28.3,17.7-56.9,34.9-86.6,49.8c-45.2,22.8-93.3,39.4-142.9,49.4C8.4-76.9-46.4-73-101.5-74c-19.8-0.4-39.6-1.2-59.4-3
				c-63.1-5.8-124.2-20.7-182.9-46.7c-30.1-13.4-59.1-29.2-87.9-45.6c-27.6-15.7-55-31.7-82.8-47c-42.6-23.5-88-41.6-135.1-53.9
				c-33.2-8.6-66.9-13.8-101-16.8c-43.3-3.8-86.6-3.4-129.9-0.5c-38.3,2.5-76.3,8.5-113.5,18c-38.2,9.9-75.3,23.6-110.6,41.1
				c-32.9,16.2-64.3,35.6-95.7,55c-24.5,15.2-49.2,29.9-73.9,44.7c-2.9,1.8-5.8,4.3-9.6,3.2L-1283.8-132.4z"/>
			<path id="Path_85" class="st2" d="M-1273.9,478.4c3.1,0.1,5.6-1.6,8.1-3.1c24.2-14.6,48.4-29,72.5-43.9
				c27.9-17.3,55.9-34.5,84.9-49.6c34.3-18,70.3-32.4,107.5-43c45.4-12.9,91.5-19.9,138.4-22.9c32.2-2.1,64.4-2.3,96.6-0.8
				c56.5,2.7,112,12,166.1,30c26.8,8.9,52.8,20.2,78.3,32.9c31.7,15.8,62.3,34,93,51.8c28.7,16.5,57.5,32.8,87.5,46.5
				c38.6,17.6,78.3,31.2,119.5,39.8c41.5,8.6,83.7,13.2,126,13.8c33.3,0.7,66.6-0.5,99.8-3.6c57.9-5.7,114.4-18.3,168.7-40.7
				c31.2-12.9,61.3-28.2,90.2-45.8c29.7-18,59.1-36.5,88.7-54.6c31.1-18.9,62.9-36,96.3-49.8c26-10.8,52.9-19.6,80.2-26.3
				c39.5-9.8,79.5-15.3,119.9-17.8c38.8-2.5,77.7-2.3,116.4,0.6c50,3.8,99.1,13.1,147,29.3c29.6,10,58.1,22.8,86.1,37.2
				c28.4,14.6,55.9,31.1,83.7,47.1c28.5,16.4,57.1,32.5,86.8,46.2c47.1,21.8,97.1,37.1,148.3,45.3c47.5,7.7,95.2,9.7,143.1,8.3
				c23.2-0.7,46.4-2.1,69.6-5c47.1-5.8,93.3-16.1,138.1-33c29.8-11.2,58.7-24.8,86.2-40.7c27.6-16.1,54.8-33.1,82.1-49.8
				c19.7-12.1,39.3-24.5,59.7-35.2l0.1,6.8c-13.3,7.6-26.7,15-39.8,22.9c-29.7,18-59,36.6-88.8,54.4
				c-33.7,20.2-69.4,37.2-106.4,50.5c-24.3,8.6-49.1,15.6-74.3,20.7c-61.8,12.8-124.1,16.5-186.9,14.1
				c-35.7-1.3-71.2-5.4-106.3-12.2c-47.8-9.3-93.7-25.5-138.1-46.9c-29.5-14.2-57.9-30.7-86.3-47.2c-27.7-16.1-55.4-32.2-84-46.4
				c-45.8-23-94.4-39.8-144.6-50c-44.1-8.8-88.5-12.6-133.2-12.7c-26.7-0.1-53.4,0.8-80,3.2c-63,5.8-124.3,19.8-183.1,45
				c-30.2,13-59.3,28.6-87.6,45.7c-27.1,16.5-54,33.4-81.1,50c-34.2,21-69.6,39.5-106.5,54.3c-29.6,11.8-60.2,20.9-91.5,27.3
				c-62.6,13-125.7,16.7-189.3,14.2c-34.6-1.4-69.1-5.3-103.2-11.8c-52.4-10.1-102.3-28.3-150.4-52.6
				c-28.5-14.4-56.2-30.6-83.9-46.7c-31.9-18.6-64-36.7-97.4-51.8c-30.6-13.9-62.3-25-94.9-33.3c-53-13.4-106.8-18.9-161.2-19
				c-26.7,0-53.4,0.8-80,3.2c-57.9,5.4-114.4,17.6-169.1,39.3c-28.4,11.3-55.8,24.7-82.1,40.3c-27.8,16.4-55.1,33.6-82.7,50.4
				c-15.6,9.5-31.3,18.8-47.1,28c-3,1.7-6.3,2.7-9.5,4L-1273.9,478.4"/>
			<path id="Path_86" class="st2" d="M-1262.9,1156c2.8,0.3,5.1-1.2,7.4-2.6c18-10.7,36.1-21.3,54-32.3c26.8-16.5,53.4-33.5,80.7-49
				c51.4-29.2,105.4-51,162.4-63.7c38.1-8.5,76.6-13,115.5-15.3c41.4-2.4,83-1.6,124.3,2.4c45.7,4.3,90.8,13.9,134.2,28.9
				c29.3,10.1,57.5,22.8,85.2,37.2c28.6,14.8,56.4,31.4,84.3,47.6c24.5,14.1,49.1,28,74.5,40.1c50.6,24.2,103,41.1,157.8,49.8
				c49.3,7.8,98.9,9.9,148.6,8.2c28-0.9,55.9-3.4,83.7-7.6c41.7-6.3,82.5-16.4,122.2-31.8c37.9-14.7,74.1-33.3,109-54.6
				c26.6-16.3,53-33,79.7-49.2c30.1-18.3,61-35.2,93.2-48.9c35-14.9,71.4-26.2,108.7-33.8c30.9-6.1,62.1-10.3,93.5-12.3
				c29.5-2,59.1-2.4,88.7-1.3c43.7,1.5,87,6.7,129.6,17c44.4,10.9,87.3,26.9,127.9,47.8c28.2,14.4,55.7,30.3,83.2,46.3
				c28.2,16.4,56.4,32.6,85.7,46.5c44.2,21,90,36.7,137.6,45.7c38.2,7.2,77,11.2,115.9,11.9c25.1,0.5,50.2,0,75.3-1.6
				c54.5-3.5,108.1-12.7,160.3-30.3c35.4-12.1,69.6-27.5,102.2-45.9c30.7-17.2,60.4-36.4,90.4-54.8c17.6-10.9,35.6-21,53.5-31.5
				l0.1,6.8c-19.7,11.6-39.5,23-58.9,34.9c-30.3,18.6-60.2,37.9-91.3,54.8c-44.8,24.3-91.3,43.2-140.3,54.8
				c-34,8.1-68.6,13.5-103.4,16.2c-39.5,3.1-79.2,3.6-118.8,1.3c-43.4-2.5-86.3-8.9-128.4-20.5c-37.2-10.2-73.1-24.6-108-42.1
				c-31.4-15.8-61.8-33.7-92.3-51.4c-32.1-18.7-64.6-36.6-98.4-51.5c-27.1-11.9-55.1-21.6-83.7-29.1c-45.1-11.8-91-17.7-137.3-19.4
				c-35.1-1.3-70.3-0.5-105.3,2.4c-60.6,5.1-119.7,18.1-176.6,41.4c-31.2,12.9-61.3,28.2-90.2,45.8c-29.9,18-59.6,36.7-89.4,54.9
				c-31.7,19.4-64.4,36.6-98.5,50.7c-25.8,10.6-52.4,19.2-79.6,25.7c-40.7,9.7-82.2,15.6-124,17.5c-38,1.9-76.1,2-114.1-1.3
				c-43.3-3.7-86.1-11-127.9-23.9c-31.6-9.9-62.4-22.3-92-37.3c-34.6-17.3-67.9-37.3-101.4-56.7c-33.6-19.4-67.7-37.7-103.4-52.2
				c-23.4-9.5-47.5-17.5-71.9-23.8c-44.4-11.5-89.4-17.2-135-18.9c-35.4-1.4-70.8-0.6-106.1,2.4c-49.7,4.2-98.5,13.6-146,30
				c-35.1,12.2-69,27.6-101.3,46c-30.7,17.2-60.3,36.5-90.3,54.9c-15.6,9.6-31.4,18.7-47.2,27.9c-2.5,1.5-5.4,2.1-8.1,3.2
				L-1262.9,1156"/>
			<path id="Path_87" class="st2" d="M1905.3,957.4c-9.7,5.7-19.5,11.3-29.1,17.3c-26.8,16.5-53.5,33.2-80.4,49.6
				c-31,19-62.9,36.2-96.1,50.3c-32.1,13.5-65.4,24-99.5,31.3c-54.9,11.9-110.4,16.4-166.3,15.8c-35.2-0.3-70.3-2.7-105.1-8.3
				c-45.6-7.3-90.2-19.3-133.2-37.6c-34-14.5-66.7-32-98.9-50.5c-27.3-15.7-54.5-31.6-82.1-46.6c-41.5-22.5-84.6-40.5-129.7-52.3
				c-21-5.5-42.3-9.9-63.8-13.2c-57.8-8.7-115.9-9.7-174-5.3c-43.9,3.1-87.3,10.8-129.6,22.9c-35.3,10.2-69.3,24.2-102.3,41.1
				c-28.9,14.8-56.6,31.9-84.3,49.1c-27.2,16.9-54.3,34.1-82.3,49.5c-51.6,28.4-105.6,49.1-162.5,60.9c-29,5.9-58.4,10.1-87.9,12.4
				c-35,2.8-70.2,3.3-105.3,1.6c-47.7-2.3-94.7-9.1-141-21.9c-30.1-8.5-59.3-19.4-87.6-32.7c-36-16.7-70.4-36.9-104.8-56.9
				c-28.2-16.4-56.5-32.5-85.8-46.4c-43.3-20.7-89-35.9-136.1-45.1c-58-11.3-116.5-14-175.3-11.4c-28.3,1.2-56.4,4.1-84.4,8.7
				c-39.9,6.3-78.9,16.9-116.6,31.5c-29.7,11.6-58.4,25.5-85.8,41.7c-30.3,17.9-60.1,36.8-90.3,55.1c-13.6,8.2-27.3,16.2-41,24.2
				c-2.5,1.5-5,3.3-8.2,2.5l-0.1-6.8c2.9,1.1,5.1-0.6,7.4-2c13-7.6,26-15.1,38.9-22.9c29.7-18,59-36.7,88.9-54.3
				c40.2-23.6,82.1-43,126.3-56.4c30.5-9.1,61.6-16,93.1-20.4c45.7-6.6,91.6-8.3,137.6-7.1c49.3,1.1,98.3,7.7,146,19.9
				c39.2,10.1,76.9,25.1,113.5,43.3c31.7,15.7,62.3,33.9,93.1,51.8c28.4,16.5,57.1,32.4,86.7,46.2c31.4,14.7,64.1,26.4,97.7,35
				c43.9,11.2,88.4,17.2,133.4,18.9c36.7,1.5,73.5,0.6,110.1-2.6c59.8-5.4,118.1-18.4,174.3-41.4c28-11.5,55.1-25.1,81.1-40.6
				c26.8-15.9,53.4-32.4,79.9-48.9c33.4-20.8,67.5-40.2,103.2-56c23.6-10.5,47.9-19.2,72.8-26.1c54.5-15.1,109.9-22.4,166.1-23.8
				c40.5-1.1,80.8,0.1,121.1,5.2c58.1,7.4,114.3,22.5,168.2,47.3c30.2,13.9,59.3,30.1,88.3,46.7c24.3,13.9,48.5,28.1,73,41.5
				c34.5,18.8,70.1,34.8,107.3,46.5c24.8,7.8,50.1,14,75.7,18.5c60.3,10.6,121,11.8,181.8,7.9c24-1.5,47.9-4.4,71.6-8.5
				c52.4-9.2,103-24.9,151.4-48.4c32.3-15.7,63.3-34,93.9-53.2c26.9-16.8,53.8-33.9,81.4-49.4c1.9-1,3.6-2.4,5.4-3.6L1905.3,957.4z"
				/>
			<path id="Path_88" class="st2" d="M-1279.4,139.7c4.7-0.3,8.4-3.2,12.3-5.5c18.9-11.3,37.8-22.7,56.6-34.2
				c27-16.6,53.9-33.7,81.6-49c51.3-28.3,105.1-48.9,161.8-60.6c30.1-6.1,60.5-10.4,91.1-12.7c20.6-1.6,41.1-2.4,61.8-2.4
				c38.9,0,77.7,2.4,116.2,8.6c47.8,7.6,94.3,20.6,139,40.4c28.4,12.7,56.2,26.9,83.1,42.5c30.4,17.4,60.6,35.1,91.3,51.8
				c41.7,22.7,85.1,40.6,130.5,52.5c34.1,8.8,68.9,14.7,104,17.7c40,3.4,80.3,3.8,120.4,1.2c53.5-3.2,106.1-12,157.5-28.5
				c33.2-10.6,65.2-24.9,96.3-41.3c25.4-13.4,49.8-28.6,74.3-43.9c27.7-17.2,55.2-34.7,83.7-50.3C425.6,2,471.1-16.7,518.9-28.7
				c36.5-9,73.7-15,111.1-17.9c24-1.9,48-2.9,72.1-2.7c37,0.4,73.9,2.7,110.6,8.7c38,6.2,75.2,15.6,111.5,29.4
				c28,10.7,55.3,23.4,81.5,37.9c24.7,13.6,49.2,27.8,73.7,41.9c28.7,16.5,57.6,32.5,87.7,46.1c32.8,14.9,66.9,26.6,101.8,35
				c43.8,10.4,88.1,15.6,132.8,16.9c34.9,1.1,69.8,0,104.5-3.3c32.1-3.1,64-8.5,95.4-16.2c50-12.4,97.3-32.2,142.8-57.4
				c27.9-15.5,54.9-32.9,82.2-49.6c18.6-11.4,37.3-22.5,56-33.7c2.3-1.4,4.7-2.5,7.1-3.7l0.1,6.8c-11.2,6.3-22.5,12.4-33.6,19.1
				c-29.9,18.2-59.5,36.9-89.4,54.9c-32.7,19.9-67.2,36.8-102.9,50.4c-30.4,11.3-61.6,20-93.4,26c-56.4,11-113.3,13.9-170.5,12.4
				c-48.7-1.1-97.2-7.8-144.4-19.8c-35.1-9-68.9-22-101.9-37.6c-29.8-14.1-58.5-30.6-87.2-47.2c-28-16.2-55.8-32.5-84.6-47
				C930.1-5.4,874.6-23.8,817.3-33.7c-45.3-7.7-90.9-10.2-136.7-9.4c-38.6,0.7-77.1,3.7-115.2,10.5c-43,7.4-84.9,19.7-125.1,36.7
				c-35.7,15.2-69.7,34.1-102.9,54.6c-29.6,18.2-59,36.7-88.8,54.3c-40.2,23.6-82.1,43-126.3,56.4c-31.2,9.4-63.1,16.3-95.4,20.8
				c-44.9,6.3-90,7.9-135.2,6.8c-49.5-1.1-98.8-7.8-146.8-20.1c-42.3-10.9-82.8-27.6-122-47.8c-28.4-14.6-56-30.9-83.7-47
				c-28.6-16.7-57.5-32.8-87.4-46.6c-29.7-13.8-60.6-25-92.3-33.5C-685.3-9.6-731.1-16.3-777.1-18c-44.4-2-88.8-0.4-132.9,4.8
				c-57.8,7-113.9,21.4-167.7,45.4c-29.6,13.3-58.3,28.6-85.9,45.7c-29.6,18.1-59.1,36.4-88.7,54.6c-6.4,3.9-13,7.6-19.6,11.2
				c-2.4,1.1-4.8,2.1-7.4,2.9L-1279.4,139.7"/>
			<path id="Path_89" class="st2" d="M-1268.4,817.2c4.2-0.1,7.5-2.5,10.9-4.6c21.4-12.9,42.9-25.7,64.2-38.9
				c27.7-17.2,55.3-34.4,84-49.7c32.4-17.4,66.5-31.8,101.7-42.7c40.7-12.6,82.3-20.3,124.5-24.4c40.5-4,81.3-5,121.9-3
				c36,1.6,71.8,6.1,107,13.7c46.1,10.1,90.8,25.8,133.2,46.8c32.2,15.9,63.4,34.2,94.6,52.3c28.7,16.6,57.4,33,87.3,46.9
				c45.4,21.1,92.3,36.4,141.1,45c55.3,9.7,110.9,12.3,166.7,9.7c24-1.1,48-3.3,71.8-6.7c63.6-8.8,125.3-28.2,182.4-57.4
				c32.2-16.5,63.1-35.6,93.9-54.9c27.4-17.1,54.8-34.2,83.2-49.3c32.9-17.7,67.5-32.2,103.2-43.3c40.3-12.4,81.3-20,122.9-24.1
				c40.5-4,81.3-5,121.9-3c36.5,1.6,72.8,6.2,108.5,13.9c49.7,10.9,97.3,28.5,143.2,52.1c28.2,14.5,55.6,30.6,83.1,46.5
				c25.2,14.6,50.4,29,76.4,41.7c40.9,19.9,83,35.5,127,45.3c34.6,7.6,69.8,12.4,105.3,14.4c32.7,1.9,65.5,1.9,98.2-0.1
				c39.1-2.2,77.9-7.8,116.1-16.6c51.4-12.1,100.2-31.9,147-57.6c28-15.4,55.1-32.5,82.3-49.5c21.7-13.6,43.4-27,65.9-39.1l0.1,6.8
				c-15.1,8.8-30.3,17.3-45.3,26.3c-26.7,16.2-53.1,32.9-79.8,49c-38.4,23-78.4,42.1-120.4,56.2c-26.9,9-54.5,15.9-82.5,20.7
				c-59.7,10.5-119.8,13.1-180.1,10c-34.1-1.7-68-6.1-101.5-13.1c-46.7-9.8-91.4-26-134.7-47.2c-29.1-14.3-57.4-30.6-85.5-47
				c-27.9-16.3-55.9-32.4-84.8-46.6c-40.2-19.9-82.5-35-126.2-45c-37.6-8.6-75.6-13.2-114-15.1c-28-1.3-56-1.3-84,0.3
				c-41.8,2.2-83.2,7.4-124,17.4c-43.5,10.6-85.6,26.3-125.5,46.8c-31.7,16.3-62.2,35-92.6,54c-31,19.5-62.1,38.9-94.6,55.4
				c-43.6,22.2-88.9,39-136.3,49.4c-50.7,11.1-101.9,15.9-153.5,16.4c-34.1,0.4-68.2-1.4-102.1-5.6c-41.3-5.1-81.9-14-121.5-28.2
				c-29.8-10.5-58.7-23.4-86.4-38.5c-30.6-16.9-60.9-34.4-91.3-51.7c-34.2-19.5-68.8-37.7-105.2-51.9c-32.7-12.7-66.5-22.4-101-28.8
				c-31.6-6-63.4-9.1-95.3-10.6c-43.8-2-87.8-0.4-131.4,4.7c-54.7,6.2-108.2,20.1-158.9,41.3c-30.3,12.7-59.4,28.2-87.8,45.3
				c-26.9,16.2-53.6,33.1-80.4,49.5c-11.7,7.2-23.6,13.9-35.5,20.8c-2.3,1.3-4.9,1.9-7.3,2.9L-1268.4,817.2"/>
			<path id="Path_90" class="st2" d="M1899.8,618.7c-14.3,8.6-28.7,17-42.9,25.7c-23.2,14.2-46.2,28.8-69.4,42.8
				c-35.5,21.5-71.9,40.8-110.4,55.5c-21.1,8-42.7,14.8-64.6,20.3c-27.5,6.9-55.4,11.9-83.6,15c-34.7,3.9-69.6,5.5-104.5,4.8
				c-14.8-0.4-29.6-0.8-44.3-1.8c-35.4-2.3-70.6-7.6-105.1-16c-22.5-5.5-44.6-12.3-66.3-20.5c-26.8-10.2-52.8-22.2-77.9-36.1
				c-27.3-15-54.3-30.7-81.4-46.2c-29.2-16.7-58.7-32.8-89.4-46.2c-35.1-15.5-71.7-27.2-109.2-35.2c-42.3-8.7-85.3-13.3-128.4-13.8
				c-32-0.6-64,0.6-95.8,3.6c-53.4,5.1-105.6,16.1-156.2,35.4c-36.2,13.9-71.2,31.2-104.3,51.4c-32.9,19.9-65.5,40.5-98.4,60.3
				C235.4,736.9,202,754,167,767.2c-29.8,11.3-60.5,20.1-91.7,26.3c-49.5,10-99.5,13.7-149.8,13.7c-34.1,0.2-68.2-2.1-102-6.8
				C-236.4,792-294,775-349.1,748.1c-31.8-15.6-62.6-33.3-93.4-51.1c-28.4-16.5-56.9-32.9-86.4-47c-49.9-24.2-103.1-41-157.8-49.9
				c-50.7-8.2-101.5-10.1-152.6-8c-20.6,0.8-41.2,2.3-61.6,4.8c-46.9,5.8-92.8,16.2-137.3,33c-30.1,11.3-59.1,25-86.9,41.2
				c-30.1,17.7-59.7,36.4-89.7,54.5c-15.6,9.5-31.5,18.6-47.2,27.9c-2.3,1.4-4.6,2.8-7.5,2.2l-0.1-6.8c2.9,1.1,5.1-0.7,7.4-2
				c11.9-6.9,23.8-13.6,35.5-20.8c26.6-16.3,53-33,79.7-49.1c37.1-22.5,75.7-41.7,116.2-56.2c23.8-8.5,48.1-15.3,72.8-20.3
				c63.3-13.1,127.3-17,191.7-14.2c34.4,1.4,68.6,5.4,102.4,12c51.8,10,101.3,28.1,148.9,52.1c28.8,14.5,56.7,30.8,84.6,47.1
				c28.2,16.4,56.5,32.4,85.8,46.4c35.8,17.2,73.4,30.6,112,40c41.1,10,82.8,15.2,124.9,17c36.7,1.6,73.5,0.7,110.1-2.5
				c40.9-3.5,81.4-11,120.8-22.5c38.6-11.5,76-27,111.4-46.2c31.4-16.9,61.7-36.2,92.1-55.1c24.5-15.2,49-30.2,74.4-43.6
				C450,605,501,586.1,554.6,575.3c61.6-12.5,123.7-16.2,186.2-13.8c27.2,1,54.4,3.6,81.3,7.8c36.2,5.5,71.9,14.7,106.3,27.3
				c29.9,11,58.9,24.3,86.8,39.7c27.5,15.3,54.8,31,82.1,46.7c33.4,19.2,67.4,37.1,102.8,51.4c24.7,9.9,50.1,18.1,75.9,24.4
				c49.2,12.1,99.1,17.3,149.4,17.9c28.5,0.4,57.1-0.6,85.5-3.1c63.3-5.7,124.8-19.6,184-44.9c30.7-13.1,60.3-29,89-46.5
				c26.4-16.1,52.7-32.6,79-48.7c10.6-6.5,21.3-12.5,32-18.8c1.6-1,3.2-2,4.7-3.1L1899.8,618.7z"/>
			<path id="Path_91" class="st2" d="M-1257.4,1494.7c3.1,0.2,5.6-1.4,8.1-2.9c24.4-14.8,48.9-29.3,73.1-44.4
				c31.3-19.4,62.8-38.7,95.7-55c23.9-11.9,48.6-22,73.9-30.4c38.5-12.8,77.8-20.9,117.8-25.7c45.5-5.5,91.2-6.7,136.9-4.8
				c30.9,1.2,61.7,4.7,92.2,10.4c45.3,8.4,89.4,22.4,131.3,41.6c33.2,15.1,65.1,33,96.7,51.5c27.9,16.3,55.8,32.6,84.6,47.1
				c44,22.2,89.6,39.3,137.3,49.6c33.4,7.2,67.3,11.8,101.4,13.6c36.2,2,72.4,1.8,108.5-0.7c41.5-2.7,82.6-9.3,122.8-20
				c40.9-11,80.1-26.8,118-46.6c31.8-16.7,62.4-35.8,93-55.1c30.8-19.4,61.8-38.2,94.2-54.3c31.7-15.8,64.9-28.7,99-38.3
				c30.6-8.5,61.9-14.6,93.4-18.4c52.3-6.2,105-7.5,157.5-3.7c82.1,5.1,162.1,27.5,234.8,65.9c31.5,16.3,62,34.6,92.8,52.3
				c29.2,16.8,58.6,32.9,89.3,46.3c42.9,18.9,88,32.4,134.2,40.1c52.2,8.6,104.6,10.8,157.3,8.5c20.3-0.9,40.6-2.3,60.8-4.8
				c59.1-7.2,116.4-22.3,171.3-47.3c30.9-14.1,60.6-30.9,89.7-48.7c23.6-14.5,47.1-29.3,70.7-43.7c10.8-6.6,21.9-12.6,32.8-18.9
				l0.1,6.8c-22.2,12-43.7,25.3-65.1,38.8c-30.1,18.9-60.2,37.8-91.5,54.4c-33.2,17.8-68,32.2-104,43.3
				c-43.1,13-87.1,20.4-131.7,24.2c-29.5,2.5-59.1,3.4-88.7,2.7c-41.8-0.9-83.4-4.8-124.5-13.2c-47.2-9.7-92.6-25.7-136.4-47
				c-32.1-15.6-63-33.6-93.9-51.7c-31.9-18.7-64-36.7-97.4-51.8c-25.3-11.4-51.4-21-78-28.7c-32.6-9.4-66-15.8-99.8-19.2
				c-45.8-4.7-91.9-5.5-137.8-2.4c-31.7,2-63.2,6.1-94.3,12.4c-38.3,7.9-75.7,19.8-111.5,35.3c-35.6,15.4-69.3,34.8-102.6,55.3
				c-26.8,16.5-53.5,33.3-80.5,49.4c-38.9,23.2-79.6,42.2-122.2,56c-29.3,9.4-59.3,16.5-89.7,21.1c-46.4,7.3-93,9.9-139.9,9
				c-42.1-0.8-83.9-4.7-125.3-13.2c-43.6-9-86-23.1-126.3-42c-32.8-15.3-64.4-33.3-95.7-51.7c-28.4-16.6-56.8-33-86.2-47.5
				c-32.3-16-66-29-100.7-38.9c-40.3-11.4-81.3-17.7-122.8-20.7c-43-3-86.1-2.7-129.1,1c-34.8,2.8-69.4,8.5-103.3,17
				c-38.2,9.8-75.3,23.6-110.7,41c-32.5,16-63.4,34.9-94.4,54.1c-25.2,15.6-50.6,30.8-75.9,46.1c-3,1.8-5.9,3.8-9.5,3.9
				L-1257.4,1494.7z"/>
			<path id="Path_92" class="st2" d="M-1258.5,1426.3c2.9,1.1,5.2-0.6,7.4-1.9c10.9-6.3,21.9-12.5,32.7-19.1
				c29.8-18.2,59.4-37,89.5-54.9c37.8-22.4,77-41.5,118.3-55.2c27.7-9.1,56-16.3,84.8-21.4c54.7-9.8,109.8-12.3,165.1-10.5
				c45.3,1.4,90.3,7.5,134.3,18.2c35.7,9,70.4,21.4,103.7,37.1c29.9,14,58.7,30.3,87.3,46.9c27.7,16,55.3,32.4,83.8,46.9
				c46.6,23.8,94.9,41.8,145.5,52.4c32.7,6.8,65.8,11.1,99.1,12.9c52,3.1,104.2,1,155.8-6.2c50.2-7.1,99.1-20,146.3-40.1
				c33.2-14.2,65-31.5,96-50.5c29.8-18.3,59.4-37,89.5-54.9c33.3-19.9,67.8-37,103.9-50.2c23.5-8.5,47.4-15.6,71.8-21
				c56.1-12.6,112.9-16.9,170.2-16.5c36.5,0.1,73,3.1,109,8.9c48.9,7.8,96.6,22.1,141.8,42.4c33.5,15.2,65.6,33.2,97.6,51.5
				c24.3,14,48.5,28,73.1,41.3c30.3,16.5,62,30.3,94.8,41.3c33.5,11,68,19,103,23.9c50,7.1,100.1,8.3,150.3,5.5
				c48.1-2.6,95.7-9.7,142.4-22.8c43.6-12.2,85.2-30.2,125.3-52.2c27.5-15.1,54-32.3,80.9-48.7c20.4-12.5,41-24.6,61.6-37
				c1.6-1,3.1-2.2,4.6-3.3l0.1,8.6c-2.9-0.6-5,1.5-7.2,2.9c-21,12.6-42,25.2-62.8,38c-27.5,16.9-54.8,34.2-83.2,49.4
				c-46.8,25.1-95.6,44-146.9,55.3c-25.6,5.6-51.5,9.9-77.5,12.6c-42.3,4.4-85,5.5-127.5,3.3c-54.3-2.8-107.8-11.4-160-28.2
				c-27.4-8.8-53.9-20.2-80-32.9c-32.1-15.7-62.9-34-93.9-52c-28.7-16.6-57.5-32.9-87.4-46.8c-37.4-17.6-76.6-31-117-39.9
				c-72.8-16-146.3-18.6-220.2-12.5c-22.1,1.8-44.2,4.7-66.1,8.7c-41.9,7.5-82.8,19.8-121.9,36.5c-35.4,15.3-69.1,34-102.1,54.4
				c-26.8,16.6-53.5,33.4-80.5,49.5c-32.4,19.3-65.9,36.1-100.9,49.3c-23.4,8.8-47.3,16-71.7,21.6c-62.3,14.4-125.4,19-189.1,17.3
				c-32.8-0.7-65.5-3.8-97.9-9.2c-44.5-7.5-87.9-19.8-129.8-38c-33.9-14.7-66.5-32.4-98.7-51c-24.2-14-48.5-28.1-73-41.6
				c-45.2-24.8-92.2-44.5-141.6-56.9c-35.5-8.9-71.7-14.6-108.1-17.2c-38.5-2.8-77.2-2.9-115.7-0.2c-36.2,2.6-72.1,7.4-107.5,15.7
				c-40.2,9.3-79.3,23.1-116.5,41.1c-30.1,14.6-59.1,31.5-87.7,49.3c-29.5,18.3-58.7,37.3-89,54c-2.5,1.4-4.9,3.5-8.1,2.4
				L-1258.5,1426.3z"/>
			<path id="Path_93" class="st2" d="M1894.3,279.9c-23,13.9-46,27.8-69.1,41.7c-18.8,11.5-37.5,23.3-56.5,34.5
				c-28.3,16.7-57.3,31.7-87.5,43.9c-19.7,7.9-39.9,14.8-60.4,20.5c-26.8,7.5-54.1,13-81.7,16.6c-39.1,5.1-78.4,7.4-117.8,6.9
				c-22.2-0.3-44.4-1.4-66.5-3.5c-33-3.2-65.6-9-97.7-17.5c-31.2-8.3-61.6-19.3-90.9-32.9c-25.3-11.7-49.9-24.9-74.2-38.8
				c-27.3-15.7-54.5-31.6-82-46.8c-39.9-22-81.3-40-124.6-52.6c-28.8-8.3-58.2-14.3-87.9-18c-51.7-6.5-103.9-7.8-155.9-4
				c-43.3,3.1-86.1,9.7-128.2,21.2c-36.7,10.1-72,24.3-106.3,41.6C381,305.8,355.9,321,331,336.4c-30.2,18.7-60.1,38-91.1,55.1
				c-42.7,23.6-87,42.3-133.7,54.7c-28.2,7.4-56.8,12.9-85.7,16.4c-45.4,5.5-91.2,7.2-136.9,5c-43.6-2-86.9-7.6-129.5-18.5
				c-39.3-10.1-77.4-24.3-113.8-42.4c-31.8-15.7-62.4-33.7-93.2-51.5c-28.9-16.7-57.9-33.3-88-47.3c-44.9-20.9-91.3-36.1-139.5-44.8
				c-56-10-112.4-12.7-169.1-9.9c-24.3,1.2-48.5,3.3-72.6,6.8c-43.8,6.4-86.7,17-128.3,33.5c-31.9,12.6-62.7,27.8-92.1,45.4
				c-30,18-59.6,36.7-89.5,54.9c-11.7,7.1-23.7,13.8-35.5,20.7c-2.3,1.3-4.5,3.1-7.4,2.3l-0.1-6.8c3.5,0.9,6.1-1.3,8.9-2.9
				c13.2-7.7,26.5-15.4,39.6-23.4c29.9-18.2,59.5-36.9,89.6-54.6c35-20.7,72.1-37.7,110.6-50.7c26.9-8.9,54.5-15.9,82.5-20.7
				c53.9-9.6,108.2-12.5,162.7-10.8c46.9,1.4,93.3,7.1,139.1,18.4c31.8,8.1,62.8,18.9,92.7,32.3c31.1,13.8,60.9,30.5,90.6,47.4
				c27.4,15.6,54.6,31.4,82.2,46.4c36.6,20,75.4,35.8,115.5,47.3c29.6,8.5,59.8,14.6,90.3,18.3c46.7,5.6,93.9,6.9,140.9,4.1
				c31.7-1.6,63.3-5.4,94.4-11.4c43.9-8.5,86.6-22.2,127.3-40.6c34.8-15.9,68-35.2,100.7-55.6c29.9-18.7,59.6-37.7,90.4-54.7
				c49.6-27.4,101.3-48.2,156.1-60.2c48.8-10.7,98.2-15.7,148-16.5c36.5-0.7,73,1.1,109.2,5.5c40.8,5.1,80.9,13.9,120,27.8
				c33.6,11.9,66.1,26.7,97.1,44.1c30.5,17.1,60.7,34.8,91.2,52c30.7,17.3,62,33.3,94.7,46c26.3,10.2,53.3,18.5,80.8,24.8
				c38.1,8.7,76.7,13.2,115.6,15c43.3,2,86.7,0.5,129.8-4.4c60-6.8,118.1-21.9,173.8-46.9c29.3-13.1,57.4-28.8,85-45.6
				c26.6-16.3,53.1-32.8,79.7-49.2c7.8-4.8,15.8-9.2,23.7-13.9c2.3-1.4,4.6-2.8,6.9-4.2L1894.3,279.9z"/>
			<path id="Path_94" class="st2" d="M1886.7-194c-17.1,10.1-34.3,20-51.4,30.3c-26.9,16.3-53.5,33.2-80.6,49.2
				c-29.7,17.6-60.8,32.7-93.1,44.9c-21.7,8.1-43.8,14.9-66.2,20.3c-55.7,13.6-112.1,18.8-169.1,18.7c-19.3,0-38.6-0.3-57.8-1.6
				c-61.8-4.2-122.1-16.3-180.4-39.5c-30.3-12.3-59.8-26.6-88.2-42.8c-30.2-17.1-60.2-34.7-90.4-51.7c-37.8-21.3-77-39.1-118-52.2
				c-25-7.9-50.6-14.1-76.5-18.5c-57.4-9.7-115.1-11.5-173.1-8.1c-29,1.7-58,5.1-86.6,10.3c-60.9,11.1-118.6,32.2-173.6,62.3
				c-28.3,15.5-55.6,32.7-83,49.8c-27.4,17.1-55,33.9-83.5,48.8c-35.2,18.5-72.2,33.2-110.5,43.9c-30.9,8.5-62.4,14.6-94.2,18.4
				C-36.3-5.9-83-4.9-129.8-7.1c-28.3-1.3-56.4-4.5-84.3-9.6c-42.7-7.6-84.4-20.2-124.2-37.5c-33.9-14.8-66.4-32.6-98.6-51.1
				c-27.5-15.8-55-31.8-83-46.8c-36.5-19.7-75-35.4-114.8-46.7c-31.4-8.8-63.5-15-95.9-18.6c-41-4.5-82.3-5.8-123.5-3.9
				c-33.8,1.3-67.5,5-100.8,11.1c-47.4,8.7-93.4,23.5-137.1,43.9c-28.6,13.6-56.4,28.9-83.2,45.7c-26.8,16.6-53.6,33.1-80.4,49.5
				c-6.4,3.9-13,7.6-19.6,11.2c-2.3,1.2-4.9,1.8-7.4,2.7l-0.1-6.8c3.1,0.5,5.6-1.5,8.1-2.9c14.1-8.3,28.3-16.5,42.4-25
				c29.7-18,59-36.7,88.9-54.1c41.9-24.4,85.8-43.9,132-57c35.2-9.9,71.2-16.8,107.5-20.5c39.2-4.2,78.6-5.5,117.9-4
				c37.3,1.4,74.4,5.7,111,12.8c55.2,11,107.8,30.7,158,57.7c31,16.6,61.4,34.5,92,52c33.4,19.2,67.4,37,102.9,51.3
				c25,10,50.6,18.1,76.8,24.4c60.2,14.6,121.3,18.8,182.7,17.2c41.8-1.1,83.3-5.1,124.4-13.6c48-9.7,94.6-25.7,138.5-47.4
				c32.4-16.1,63.5-34.8,94.3-54.1c30.6-19.2,61.1-38.4,92.9-55.2c48.1-25.4,98.3-44.2,151.1-55c57.8-11.9,116.2-16.4,175-14.8
				c32.8,0.7,65.5,3.6,97.9,8.8c36.4,6,72.1,15,106.9,28.2c28.8,10.9,56.8,23.8,83.8,38.7c27.7,15.4,55.2,31.4,82.8,47.2
				c33.2,19,66.9,36.8,102.2,51c32.1,12.9,65.3,22.7,99.3,29.4c60.9,12.1,122.3,14.7,184,11.4c23-1.2,45.9-3.5,68.6-6.9
				c29.4-4.3,58.4-10.9,86.8-19.6c25.7-7.9,50.9-17.6,75.2-29.1c26.6-12.8,52.5-27,77.6-42.5c29.6-18.1,59.1-36.4,88.7-54.5
				c6.2-3.8,12.6-7.2,18.9-10.8L1886.7-194z"/>
			<path id="Path_95" class="st2" d="M1888.8-58.9c-16.9,10-33.8,20-50.6,30.2c-23,14-45.7,28.5-68.7,42.3
				c-36.9,22.2-75.1,41.5-115.4,55.8c-25.5,9.1-51.6,16.3-78.2,21.7c-30.9,6.1-62.1,10.2-93.5,12.2c-30.1,2-60.2,2.4-90.3,1.2
				c-42.9-1.6-85.4-6.8-127.3-16.9c-40.7-10-80.2-24.3-117.8-42.9c-31.6-15.5-62.1-33.1-92.6-50.9c-32.4-18.8-64.8-37.4-98.8-52.6
				c-39.6-17.9-81-31.2-123.6-39.7c-57-11.1-114.4-14-172.1-11.7c-26.7,1-53.3,3.5-79.7,7.4c-41.7,6.2-82.5,16.4-122.2,31.6
				c-41.2,15.8-80.2,36.6-118,59.9c-26.8,16.5-53.5,33.4-80.4,49.5c-31.9,19.1-64.6,36.2-99,49.5c-30.4,11.9-61.8,21.1-93.9,27.7
				c-23.9,4.8-48,8.3-72.2,10.5c-37.6,3.5-75.5,4.5-113.2,2.9c-42.6-1.7-84.8-6.9-126.5-17C-286,102-325.5,87.6-363,69
				c-31.8-15.6-62.5-33.4-93.3-51.3c-27.9-16.3-56-32.3-85-46.1c-43.7-20.8-88.9-36.4-136-45.5c-58.6-11.4-117.5-14.2-176.9-11.6
				c-25.1,1.1-50.1,3.5-75,7.1c-36.8,5.3-72.9,14.1-108,26.3c-43.6,15.4-84.9,36.2-124.7,60.5c-29.4,18-58.7,36.1-88,54.1
				c-7.3,4.5-14.9,8.6-22.3,12.9c-2.5,1.4-5,3.2-8.2,2.7l-0.1-6.8c2.9,0.8,5.1-0.8,7.4-2.2c18.5-11,37.1-21.8,55.4-33.1
				c30-18.5,59.7-37.6,90.6-54.3c44.7-24.3,91.3-43.2,140.3-54.9c43-10.2,86.9-16.2,131.1-18c30.4-1.5,60.8-1.3,91.1,0.4
				c54.3,3.3,107.7,12.2,159.7,30c33.4,11.4,65.8,25.7,96.8,42.8c30.6,16.9,60.8,34.6,91.2,51.9C-386.7,50.8-356,67-324.1,80
				c23.2,9.4,47,17.4,71.2,23.7c37.3,9.8,75.3,15.4,113.6,18.1c43,2.9,86.1,2.5,129.1-1.2c37-3,73.6-9.3,109.4-18.9
				c41.2-11.2,81-26.9,118.8-46.9c31.3-16.6,61.5-35.3,91.6-54.2c31-19.4,62.2-38.6,94.9-54.8c46.5-23.2,95.9-40,146.9-49.8
				c51.2-9.8,102.8-13.1,154.6-12.8c41.8,0.2,83.5,4.1,124.6,11.8c48.7,9.1,95.4,25.1,140.6,46.8c32.4,15.5,63.6,33.6,94.8,51.9
				c28.4,16.6,56.9,32.7,86.4,47c32.9,15.9,67.3,28.7,102.6,38.1c46.1,12.3,93,18.2,140.4,19.9c33.8,1.2,67.7,0.5,101.4-2.3
				c50.5-4.2,100.1-13.5,148.4-30.1c35.1-12,68.7-27.7,101.3-45.9c30.5-17.1,59.8-36.3,89.7-54.5c14.7-9,29.6-17.6,44.4-26.4
				c2.8-1.7,5.5-3.4,8.3-5.1L1888.8-58.9z"/>
			<path id="Path_96" class="st2" d="M-1260.7,1291.1c2.9,0.7,5.1-0.8,7.4-2.2c12.7-7.5,25.6-14.9,38.2-22.6
				c26.9-16.4,53.5-33.3,80.5-49.5c32.6-19.5,66.2-36.6,101.4-50c18.7-7,37.7-13.1,56.9-18.2c31.5-8.2,63.6-14,96-17.2
				c33.2-3.5,66.4-4.4,99.7-4.1c38.6,0.3,77.2,3.9,115.2,10.7c38.2,6.9,75.6,17.7,111.6,32.4c37.9,15.6,74,35.2,109.7,55.7
				c27.8,16,55.5,32.1,83.7,47.1c44.5,23.7,90.9,41.8,139.5,53.1c39.7,9.1,80.3,14.5,121,16.1c33.3,1.4,66.6,0.8,99.8-1.6
				c47-3.5,93.4-11.5,138.8-25.3c38-11.6,74.3-27.7,109.5-46.8c28.1-15.2,55.2-32.4,82.3-49.4c27.6-17.3,55.4-34.3,84.2-49.2
				c34.3-17.9,70.3-32.3,107.5-42.9c52.4-14.8,105.7-22,159.8-23.9c30.4-1,60.8-1,91.1,1.2c55.9,4.1,110.7,14.5,163.8,34
				c31.9,11.8,62.8,26.1,92.5,42.8c27.7,15.4,55.2,31.5,82.7,47.3c30.4,17.4,61.4,33.4,93.5,46.7c38.4,15.7,78.5,27.1,119.4,33.9
				c56.4,9.5,113.1,11.2,169.9,8.1c29.6-1.5,59-5,88.2-10.3c38.6-7.2,76.4-17.8,113-33c31.4-13.1,61.8-28.5,90.9-46.2
				c29.7-18,59.1-36.5,88.7-54.6c10.8-6.6,21.8-12.8,32.7-19.2l0.1,6.8c-37.5,20.9-73.5,44.7-110.3,67.1
				c-35.2,21.4-71.5,40.5-109.5,55.6c-27.9,11-56.8,19.6-86.2,25.7c-65.7,13.8-132,17.9-198.8,14.4c-31.7-1.5-63.3-5.3-94.5-11.2
				c-37.4-7.2-73.9-18.2-109-33c-38.6-16.1-75.2-36.5-111.5-57.6c-27.2-15.8-54.4-31.8-82.3-46.2c-45.1-23.2-91.9-40.8-140.8-51.7
				c-30-6.6-60.4-11.1-91.1-13.3c-43-3.2-86.1-3-129.1,0.6c-54.2,4.5-107.3,15-158.9,33.7c-34,12.3-66.7,27.8-97.8,46.1
				c-27.6,16.2-54.7,33.2-82,50c-25,15.4-50.1,30.4-76.2,43.6c-44.4,22.5-90.6,39.1-138.8,49.1c-64.9,13.5-130.4,17.6-196.4,14.3
				c-25.6-1.2-51.2-3.8-76.5-7.8c-36.7-5.9-72.7-14.9-107.7-28.2c-28.8-10.8-56.9-23.7-83.8-38.6c-30.5-17-60.8-34.7-91.2-51.9
				c-35.1-19.9-71-38.2-108.7-52c-27.7-10.2-56.1-18.2-85.1-23.9c-62.2-12.4-124.9-14.8-187.9-11.1c-32.5,1.8-64.8,5.9-96.7,12.3
				c-29.1,5.9-57.8,14.1-85.7,24.4c-39.4,14.5-76.6,34-112.8,55.8c-29.7,18-59.1,36.4-88.7,54.6c-7.6,4.6-15.3,9-23,13.3
				c-2.5,1.4-5,3.2-8.2,2.8L-1260.7,1291.1z"/>
			<path id="Path_97" class="st2" d="M-1266.2,952.3c2.9,0.7,5.1-0.9,7.4-2.3c14.6-8.6,29.2-17.1,43.7-25.9
				c27.1-16.5,54-33.6,81.3-49.7c33.4-19.7,68-36.7,104.2-49.6c24.3-8.7,49.1-15.7,74.3-21c60.4-12.9,121.5-16.7,182.9-14.8
				c37.3,1,74.5,5.1,111.1,12.2c48.4,9.7,95.3,25.6,139.6,47.3c32.3,15.8,63.5,34,94.7,52.1c28.2,16.3,56.5,32.5,85.8,46.4
				c42.8,20.5,88,35.6,134.5,45c60.9,12,122.3,14.6,184,11.5c26.7-1.4,53.2-4.3,79.6-8.6c35.4-5.8,70.1-14.8,103.8-27
				c26.6-9.9,52.4-21.5,77.4-35c28.7-15.2,56.2-32.7,83.9-49.9c27.6-17.3,55.3-34.4,84.1-49.5c40.3-21.3,83-37.8,127.2-49.1
				c47.3-11.9,95.2-17.6,143.6-19.7c36.7-1.6,73.5-0.6,110.1,3c44.9,4.2,89.2,13.5,132,27.8c27.3,9.2,53.7,20.8,79.7,33.8
				c28.6,14.3,56.2,30.6,83.9,46.7c28.4,16.5,56.9,32.8,86.5,46.8c42.8,20.5,88,35.6,134.5,44.9c55.4,10.9,111.2,14,167.4,12.2
				c32-1,63.9-4.1,95.4-9.3c40.1-6.5,79.4-17.2,117.3-32c29.2-11.5,57.4-25.2,84.3-41.2c30.1-17.8,59.7-36.5,89.6-54.7
				c15.2-9.2,30.5-18.1,45.8-27.1l0.1,6.8c-32.4,18-63.6,38.2-95.2,57.8c-33,20.5-66.6,39.6-101.8,55.3
				c-30.2,13.4-61.5,24-93.6,31.7c-52.5,12.7-105.8,18.2-159.6,18.9c-37.6,0.5-75-1.1-112.3-6.1c-57.2-7.7-112.6-23-165.7-47.7
				c-29.4-13.7-57.9-29.4-86.1-45.7c-27.8-16-55.3-32.5-83.6-47.2c-37.5-19.4-76.1-35.6-116.5-46.8c-33.2-9.1-67.2-15.4-101.5-18.8
				c-41.9-4.2-83.9-4.6-125.9-2.3c-26.9,1.4-53.8,4.3-80.4,8.9c-47.9,8.3-94.4,21.9-139.2,42.2c-34.4,15.6-67.2,34.5-99.5,54.5
				c-26.8,16.6-53.5,33.4-80.6,49.3c-53.9,31.6-110.6,55.1-170.9,68.1c-43.5,9.3-87.7,14.6-132.1,15.8c-28.5,0.8-57.1,0.7-85.6-1.4
				c-51.8-3.8-102.9-12.8-152.5-29.8c-32.9-11.3-64.8-25.4-95.3-42.2c-30.8-17-61.4-34.7-91.9-52.2c-31.1-17.8-62.8-34.1-95.8-47.5
				c-29.9-12-60.7-21.5-92.2-28.2c-56.3-12.1-113.2-15.6-170.4-14c-35.4,1-70.7,4-105.7,10.2c-51.8,9.2-102,24.5-149.9,47.8
				c-29.7,14.4-58.2,30.9-86.4,48.3c-26.8,16.6-53.7,32.9-80.5,49.4c-3.9,2.4-7.9,4.7-11.9,6.7c-2.1,1-4.5,1.4-6.7,2.1
				L-1266.2,952.3"/>
			<path id="Path_98" class="st2" d="M-1271.7,613.6c3.7,0.5,6.6-1.8,9.6-3.5c13-7.6,26-15.2,38.8-23.1c26.6-16.3,53-33,79.8-49
				c38.2-22.8,77.8-42.1,119.6-56c26.4-8.8,53.5-15.7,80.9-20.6c58.1-10.7,116.6-13.4,175.3-11c49.8,2.1,98.9,9.4,147.2,23.1
				c33.3,9.5,65.4,22.6,96.8,37.9c29.2,14.3,57.3,30.7,85.5,47c27.7,16.1,55.5,32.1,84.1,46.2c52.1,25.9,107.8,43.7,165.2,52.7
				c55.6,8.7,111.6,10.5,167.6,6.8c30.9-1.9,61.6-5.8,92-11.8c36-7.1,71.2-17.7,105.1-31.6c28.7-11.9,56.5-25.9,83.2-41.8
				c29.8-17.8,59.2-36.3,88.8-54.5c34.9-21.5,70.8-40.8,108.4-56c26.9-10.8,54.6-19.4,82.8-25.9c31.7-7.3,64-12.2,96.4-14.8
				c29.2-2.4,58.6-3.2,87.9-2.5c34.1,0.6,68.1,3.7,101.8,9.3c48.4,8,95.4,22.3,140.1,42.5c33.2,15.1,65.1,32.9,96.8,51.3
				c27.7,16,55.3,32.3,83.8,46.9c47.3,24.1,96.5,42.2,147.9,52.7c34.3,6.8,69,11.1,103.9,12.6c48.1,2.4,96.3,0.3,144-6.1
				c51-6.9,100.8-19.7,148.7-40c30.3-13,59.6-28.1,87.8-45.3c29.6-18,59.1-36.5,88.7-54.6c10.1-6.2,20.4-11.9,30.7-17.8l0.1,6.8
				c-24,13.2-47.2,27.8-70.5,42.4c-31.1,19.4-62.1,38.8-94.6,55.4c-42.6,22-87.9,38.5-134.7,49.1c-57.7,13-116,17.4-174.9,16.9
				c-25.6-0.2-51.3-1.8-76.7-4.8c-53.6-6.3-105.8-18.9-156.1-40.1c-29.4-12.5-58-26.8-85.6-42.7c-30.1-17.2-60.1-34.8-90.5-51.6
				c-34.4-19.1-70-35.2-107-47.3c-33.1-10.7-67-18.5-101.5-23.1c-48.4-6.6-96.9-8.1-145.6-5.5c-41.5,2.2-82.6,7.5-123.2,17.2
				c-47.5,11.4-93.3,28.9-136.3,51.9c-28.7,15.2-56.3,32.4-84,49.7c-24.2,15.1-48.4,30.3-73.3,44c-48.6,26.9-99.4,47.3-153,59.5
				c-57.4,13.1-115.5,17.8-174,17.3c-26.7-0.1-53.4-1.8-79.9-4.9c-53.3-6.3-105.3-18.8-155.4-39.9c-29.6-12.6-58.5-27-86.4-43
				c-30.4-17.4-60.6-35.1-91.2-52c-33.9-18.7-69-34.6-105.6-46.5c-34.1-11-69.1-19-104.6-23.6c-44.1-5.7-88.5-7.6-132.9-5.7
				c-45.2,1.8-90.1,7.3-134.3,17.9c-46.9,11.4-92.2,28.7-134.8,51.4c-25.8,13.7-50.8,29-75.8,44.5c-26.1,16.2-51.9,32.8-78.7,47.6
				c-2.6,1.4-5,3.3-8.1,2.9L-1271.7,613.6z"/>
			<path id="Path_99" class="st2" d="M1892.1,144.7c-28.5,15.5-55.9,33.2-83.6,50.5c-28.6,17.8-57.4,35.1-87.3,50.2
				c-36,18.1-73.7,32.3-112.7,42.3c-62.8,16.1-126.7,21.5-191.1,20.7c-32.5-0.2-65-2.7-97.2-7.5c-51-7.7-100.5-21.4-148.2-42.8
				c-33.3-14.9-65.3-32.5-96.9-50.9c-27.2-15.8-54.3-31.9-82.3-46.3c-38.5-19.8-78.2-36.3-119.7-47.3c-21-5.6-42.3-10-63.8-13.3
				c-61.5-9.5-123.3-10.1-185-4.8c-52.3,4.6-103.6,14.9-153.5,32.9c-30.9,11.1-60.5,25.2-89.5,41.2c-31.3,17.3-61.4,36.7-91.8,55.7
				c-32.7,20.4-66,39.5-100.9,55.3c-29.1,13.1-59.3,23.7-90.3,31.5c-62,15.9-125.1,21.5-188.7,20.6c-20.6-0.3-41.2-1.2-61.7-3
				c-59.8-5.3-118.1-18.5-174.2-42.2c-31.1-13.1-61.1-28.7-90.5-45.5c-30.1-17.2-60.1-34.8-90.6-51.4c-41.2-22.5-84-40.4-128.9-52.4
				c-20.7-5.5-41.8-10-63-13.3c-61.5-9.5-123.2-10.3-185-5.1c-47.5,4-94.3,13-139.9,27.9c-32.7,10.7-64.1,24.8-94.6,41.1
				c-31.5,16.8-61.6,36.3-92.1,55c-18.8,11.5-37.8,22.7-56.7,34c-3,1.8-5.9,3.8-9.6,3.8l-0.1-6.8c2.8,0.5,5.1-1.1,7.4-2.5
				c18.2-10.9,36.6-21.6,54.7-32.7c30.5-18.7,60.6-38.1,92-55.2c53.4-29,109.4-49.5,168.3-60.7c50.9-9.7,102.2-13.1,153.8-12.8
				c29.9,0.1,59.7,2.2,89.3,6.1c53.2,7.1,104.9,20.7,154.7,42.7c33.8,14.9,66.3,32.8,98.5,51.3c24.3,14,48.5,28.1,73,41.4
				c30,16.6,61.4,30.6,93.7,41.8c29.6,10.2,60.1,17.9,91,23.1c56.1,9.5,112.5,11.2,169.2,8.1c27.2-1.4,54.3-4.4,81.1-9
				c51.8-9.1,102-24.4,150-47.6c32.8-15.8,64.3-34.4,95.3-53.8c27.2-17,54.2-34.2,82.1-49.8c43.3-24.2,88.2-43.8,135.6-56.3
				c27.9-7.4,56.3-12.9,84.9-16.5c41.3-5.3,82.7-6.6,124.2-5.7c37.8,0.8,75.5,4.7,112.7,11.8c28.5,5.4,56.4,13,83.7,22.9
				c26.5,9.5,52.2,20.9,77,34.2c27.7,14.9,55,30.5,82.3,46.2c32.9,19,66,37.4,100.7,52.4c27.4,11.9,55.6,21.6,84.6,28.9
				c45.5,11.5,91.6,17.4,138.2,18.9c39.6,1.4,79.3,0,118.7-4.3c59.4-6.6,117.2-20.9,172.6-45.3c29.9-13.3,58.8-28.7,86.7-45.9
				c29.6-18.1,59.1-36.4,88.7-54.6c8-4.9,16.3-9.4,24.4-14.1L1892.1,144.7z"/>
			<path id="Path_100" class="st2" d="M-729.3-360.4c3.4,2.7,7.5,2.6,11.3,3.3c14.9,2.7,29.8,4.8,44.6,7.8
				c40.2,8.3,79.3,21.1,116.6,38.2c32.9,15,64.5,32.8,96,50.9c24.7,14.2,49.4,28.5,74.5,42c36.8,19.7,74.9,35.8,114.7,47.1
				c29.6,8.4,59.8,14.5,90.3,18.2c40.7,5,81.7,6.7,122.6,5.2c38-1.4,75.9-5,113.4-12.4c36.8-7.1,72.8-17.8,107.5-31.9
				c25-10.2,49.3-22.2,72.7-35.8c27.6-16.2,54.8-33,82-49.9c31.8-19.7,64-38.6,97.7-54.4c28.4-13.4,58-24.2,88.3-32.5
				c19.7-5.4,39.6-9.7,59.7-13.2c3.8-0.7,8-0.7,11.2-3.6l88.8-1.4c-2.9,0.4-5.7,1.1-8.6,1.3c-24,1.4-48,3.4-71.8,6.8
				c-56.8,8.1-111.9,23.2-164.6,47.9c-33.5,15.7-65.5,34.3-97.1,53.9c-30.2,18.8-60.1,38-91.2,55.1c-45.1,24.9-92,44.4-141.5,56.5
				c-32.4,7.9-65.4,13.4-98.6,16.5c-33.7,3.1-67.5,4.2-101.4,3.2c-53.8-1.4-107-8.4-159.2-23.1c-33.1-9.3-65-22.2-96.2-37.2
				c-29.7-14.4-58.3-31.1-87-47.7c-27.7-16.1-55.4-32.2-84.1-46.3C-582-317.4-627-333.5-674-343.4c-32.4-6.8-65.3-11.1-98.3-12.9
				c-12.4-0.7-24.8-1-37.2-1.7c-2.9-0.1-5.7-0.7-8.6-1L-729.3-360.4z"/>
			<path id="Path_102" class="st2" d="M781.5-384.9c1.6,0.8,3.2,2,4.9,2.3c4.4,0.9,8.9,1.5,13.3,2.2c37.6,5.3,74.6,14.4,110.3,27.2
				c29.2,10.5,57.6,23.3,84.8,38.2c24.5,13.4,48.8,27.3,73,41.3c28.5,16.4,57,32.5,86.6,46.4c37.2,17.4,76.1,30.8,116.1,39.9
				c38.6,8.7,77.7,13.2,117.1,14.9c48.3,2.2,96.8-0.1,144.7-6.8c29.1-4.1,57.9-10.3,86.1-18.6c36.8-10.8,72.1-25.7,106.4-43.6
				c28.5-14.9,55.9-32.1,83.3-49.2c24-15,47.9-30.1,72.5-43.7c1.2-0.6,2.4-1.1,3.6-1.7l0.1,6.8c-9.4,5.2-18.9,10.1-28,15.7
				c-26.4,16.1-52.7,32.6-79,48.8c-35.1,21.6-71.3,40.9-109.2,56.2c-27.7,11-56.2,19.7-85.2,26.1c-56.9,12.8-114.5,17-172.5,16.5
				c-36.2-0.3-72.4-3.3-108.2-9.2c-52.1-8.5-102.7-24.3-150.4-46.8c-29.8-14.1-58.6-30.4-87.3-46.9c-24.3-13.9-48.5-28-73.1-41.2
				c-36.3-19.5-73.8-35.6-113-47.1c-27.5-8-55.5-14-83.9-18.1c-31-4.4-62.1-6.3-93.2-7.2c-3.4-0.1-6.8-0.7-10.2-1.1L781.5-384.9z"/>
			<path id="Path_106" class="st2" d="M-523.2-363.8c1.8,1.5,3.5,3.5,5.6,4.6c30.7,16.1,60.4,34.2,90.6,51.4
				c29.7,17,59.7,33.1,91.1,46.3c35.6,15,72.6,26.4,110.4,33.9c62.3,12.1,125,14.6,188,10.9c22.2-1.3,44.2-3.6,66.2-6.9
				c33.8-5.1,67.2-13.1,99.6-24c48.1-16.2,93.3-39.6,137-66.4c26.6-16.3,53.1-32.8,79.7-49.2c5.5-3.4,11.1-6.5,16.7-9.7
				c2.3-1.3,4.8-2.4,6.1-5.2l12.7-0.2c-0.9,2.8-3.4,3.4-5.4,4.6c-23.1,13.8-46.2,27.5-69.2,41.3c-21.2,12.8-42.1,26-63.4,38.6
				c-40.6,24.3-84,43.5-129.2,57.5c-20.5,6.2-41.4,11.3-62.5,15.1c-49.9,9.2-100.1,12.4-150.7,11.9c-29.9-0.2-59.7-2.3-89.3-6.1
				c-42.9-5.6-85.1-16.1-125.7-31.2c-37.1-13.9-72.4-31.9-107-51.5c-27.1-15.4-54.1-31.1-81.3-46.5c-8.7-4.9-17.5-9.4-26.3-14.1
				c-2.3-1.2-5.1-1.8-6.3-4.8L-523.2-363.8z"/>
			<path id="Path_107" class="st2" d="M987.6-388.3c1,3.6,4.1,4.2,6.6,5.6c11.5,6.4,23.1,12.6,34.6,19.2
				c24.1,13.7,48,27.8,72.1,41.4c30.8,17.2,62.3,32.7,95.1,44.9c39.3,14.7,80.1,25.1,121.7,30.8c51.6,6.9,103.8,8.6,155.8,5.1
				c22.2-1.4,44.2-3.6,66.2-7c39.4-6,78-16,115.3-30c42.1-15.7,81.7-36.9,120.4-60.5c26.4-16.1,52.7-32.5,79-48.8
				c5.5-3.4,11.1-6.5,16.7-9.8c2.3-1.3,4.8-2.4,5.8-5.4l6.3-0.1l0.1,5.1c-35.5,20.1-69.9,42.5-104.8,63.8
				c-29.2,17.8-58.9,34.6-89.9,48.4c-32.3,14.4-65.9,25.8-100.4,33.9c-23.2,5.3-46.7,9.4-70.3,12.3c-44.5,5.5-89.1,6.6-133.7,4.9
				c-44.7-1.7-89-7.5-132.6-18.8c-36.2-9.4-71.3-22.2-105-38.5c-32.2-15.4-63.1-33.4-94.2-51.3c-24-13.8-48.4-26.9-72.6-40.4
				c-2.3-1.4-4.5-3-6.6-4.6L987.6-388.3z"/>
			<path id="Path_108" class="st2" d="M1103.3-390.1c0.6,3.4,3.4,4.2,5.7,5.4c9.2,4.9,18.5,9.9,27.9,14.5
				c33.3,16.3,67.3,30.2,102.8,40.1c32.2,8.8,65,15.1,98.2,18.6c41.9,4.6,83.9,5,125.9,3c46-2,91.7-8.8,136.3-20.2
				c48.5-12.6,94.5-32.2,138.7-56.9c5.6-3.1,11.2-6.3,16.8-9.6c2.3-1.3,4.9-2.3,5.7-5.5l12.7-0.2c-1.8,1.6-3.4,3.6-5.4,4.8
				c-39.2,23.7-79.6,44.4-122.4,59.6c-24.8,8.7-50.1,15.7-75.9,20.9c-58.1,11.8-116.7,15.4-175.8,13.8c-29.3-0.7-58.6-3.3-87.6-7.7
				c-33.3-5-66.1-12.9-98-23.8c-29.8-10.4-58.7-23-86.7-37.6c-8.6-4.4-17-9.1-25.5-13.8c-2.3-1.3-5-2-6.1-5.1L1103.3-390.1z"/>
			<path id="Path_109" class="st2" d="M-407.5-365.6c1.3,2.7,3.8,3.9,6.1,5.1c37.6,20.4,76.3,38,116.9,50.6
				c25.9,8,52.3,14.1,79,18.3c60.4,9.7,121,10.5,181.8,6c37.5-2.7,74.7-8.7,111.1-18c34.6-8.8,68.2-21.1,100.4-36.5
				c19.6-9.3,38.7-19.5,57.5-30.5c2.5-1.5,5.4-2.6,6.7-5.7l12.7-0.2c-2,1.8-4.1,3.5-6.3,5c-34.5,21-70.2,39.5-107.5,54
				c-29.2,11.3-59.4,20.1-90.1,26.2C-7.3-277.6-76-274.6-145.1-278.9c-40.5-2.4-80.6-8.9-119.8-19.1c-27-7.2-53.5-16.5-79.1-27.7
				c-23.8-10.5-47.1-22.1-69.7-34.9c-2.3-1.5-4.4-3-6.5-4.8L-407.5-365.6z"/>
			<path id="Path_112" class="st2" d="M-1284.9-199.1c3.4-1.5,7-2.5,10.2-4.4c21.2-12.7,42.4-25.4,63.5-38.4
				c27.7-17.1,55.2-34.5,83.8-49.8c46.3-24.8,94.5-43.7,145.2-54.7c12.2-2.6,24.4-4.8,36.5-7.4c3-0.6,6.4-0.3,8.7-3.3l90.4-1.5
				c-2.9,0.4-5.7,1.1-8.6,1.3c-24.5,1.4-49,3.5-73.3,6.9c-35.7,5-70.9,13.1-105.1,24.4c-42,13.9-82,33.1-120.4,56
				c-29.8,17.7-59.1,36.3-88.7,54.4c-11.5,7-23.1,13.6-34.8,20.3c-2.4,1.2-4.8,2.2-7.3,3L-1284.9-199.1"/>
			<path id="Path_113" class="st2" d="M1914.1,1499.8c-39.4,22.1-77.1,47.2-115.9,70.5c-36,21.6-73.2,40.8-112.2,55.4
				c-31.9,11.8-64.7,20.7-98.2,26.6c-5.2,0.9-10.5,1-15.3,3.7l-69.8,1.1c2.6-0.4,5.2-1,7.8-1.3c18.6-2.1,37.3-3.5,55.9-6.2
				c38.3-5.3,76-14.7,112.4-27.8c30.6-11.2,60.3-24.8,88.7-40.7c30.5-16.9,59.9-35.9,89.7-54.2c16.7-10.3,33.7-20.1,50.5-30.2
				c2.1-1.2,4.1-2.5,6.2-3.8L1914.1,1499.8z"/>
			<path id="Path_114" class="st2" d="M-242.6-368.3c0.8,0.7,1.4,1.8,2.3,2.1c2.5,0.9,5.1,1.6,7.7,2.1c28.2,5.8,56.9,9.6,85.6,11.5
				c25.1,1.6,50.1,2.5,75.2,1.8c40.7-1.1,81.2-4.6,121.3-12.2c10.1-1.9,20.2-4.3,30.2-6.7c2.7-0.6,5.9-0.6,7.5-3.9l25.4-0.4
				c-1.6,2.7-4.4,2.9-6.9,3.6c-8.2,2.3-16.3,4.7-24.6,6.7c-32.4,7.7-65.4,13-98.6,15.9c-34.5,3-69.1,3.9-103.7,2.7
				c-38.9-1.1-77.6-5.7-115.7-13.6c-7.8-1.6-15.5-3.6-23.2-5.6c-2.7-0.7-5.8-0.8-7.8-3.6L-242.6-368.3z"/>
			<path id="Path_115" class="st2" d="M1266.6-392.8c3.4,3.2,7.7,3.8,11.8,4.5c16.4,2.8,32.9,5.9,49.4,7.9
				c42.5,5.1,85.4,6.6,128.2,4.5c34.1-1.4,68-5.2,101.6-11.3c9.9-1.8,19.7-4.1,29.5-6.3c3.8-0.9,7.8-1.6,10.9-4.6l25.4-0.4
				c-2.9,2.8-6.7,3.3-10.2,4.3c-27.7,7.9-56,13.8-84.6,17.8c-46.7,6.6-93.6,8.2-140.6,6.8c-38.6-1.1-77-5.6-114.8-13.5
				c-7.8-1.6-15.5-3.5-23.2-5.5c-3-0.8-6.3-1.1-8.7-3.7L1266.6-392.8z"/>
			<path id="Path_118" class="st2" d="M-1286-267.6c2.9,0.9,5.1-0.9,7.4-2.2c11.6-6.7,23.2-13.3,34.7-20.3
				c26.5-16.2,52.9-32.7,79.4-48.9c5.7-3.5,11.6-6.7,17.3-10.1c1.7-1,4.1-1.7,4.1-4.6l14.3-0.2c-2.1,1.6-4.1,3.6-6.3,4.8
				c-26.9,14.9-53,31.5-79.2,47.6c-21.2,13.1-42.7,25.6-64.1,38.4c-2.3,1.4-4.6,2.9-7.4,2.4L-1286-267.6z"/>
			<path id="Path_119" class="st2" d="M1915.2,1568.2c-9.6,5.4-19.3,10.4-28.6,16.1c-26.6,16.2-53,32.7-79.5,49
				c-8.2,5.1-16.6,9.8-24.9,14.7c-2.3,1.4-4.4,3-6.6,4.5l-12.7,0.2c1.5-1.2,3-2.3,4.6-3.2c27.3-14.9,53.5-31.7,80-48.1
				c21.5-13.3,43.2-26,64.9-38.9c0.9-0.5,1.9-0.9,2.9-1.2L1915.2,1568.2z"/>
			<path id="Path_120" class="st2" d="M-1287.1-334.3c3.3-1.5,6.7-2.9,9.9-4.7c5.1-2.8,10.1-5.7,15.1-8.7c1.5-0.9,3.4-1.8,3.2-4.3
				l12.7-0.2c-0.8,1-1.4,2.5-2.4,3.1c-11.3,6.7-22.6,13.2-34,19.7c-1.4,0.7-2.9,1.3-4.4,1.8L-1287.1-334.3z"/>
			<path id="Path_121" class="st2" d="M1880.1,1651c0.8-1.1,1.7-2,2.7-2.9c10.1-5.9,20.2-11.8,30.4-17.6c1-0.4,2-0.6,3-0.7l0.1,5.1
				c-3.2,2-6.4,3.9-9.6,5.9c-5.2,3.3-11.1,5.3-15.6,9.9L1880.1,1651z"/>
		</g>
	</g>
</g>
</svg>
