<svg xmlns="http://www.w3.org/2000/svg" width="420.7" height="37.648" viewBox="0 0 420.7 37.648">
  <path id="Path_4" data-name="Path 4" d="M366.962,0,321.438,23.346,276.345.217,275.918,0,230.4,23.344,185.307.217,184.88,0,139.363,23.344,94.278.217,93.851,0,48.341,23.344,4.815,1.021,3.983.6,0,8.362,47.916,32.938l.427.217L93.851,9.81l45.087,23.128.426.217L184.882,9.81l45.093,23.128.425.217L275.919,9.81l45.093,23.127.426.217L366.964,9.81,410.5,32.135l.832.424,3.983-7.766L367.391.219Z" transform="translate(2.693 2.247)" fill="#cea155" stroke="#cea155" stroke-width="4"/>
</svg>
